<?xml version="1.0" encoding="UTF-8" standalone="no"?>
<svg xmlns:dc="http://purl.org/dc/elements/1.1/" xmlns:cc="http://creativecommons.org/ns#"
  xmlns:rdf="http://www.w3.org/1999/02/22-rdf-syntax-ns#" xmlns:svg="http://www.w3.org/2000/svg"
  xmlns="http://www.w3.org/2000/svg" viewBox="0 0 666.66669 666.66669" height="666.66669" width="666.66669"
  xml:space="preserve" id="svg2" version="1.1">
  <metadata id="metadata8">
    <rdf:RDF>
      <cc:Work rdf:about="">
        <dc:format>image/svg+xml</dc:format>
        <dc:type rdf:resource="http://purl.org/dc/dcmitype/StillImage" />
      </cc:Work>
    </rdf:RDF>
  </metadata>
  <defs id="defs6" />
  <g transform="matrix(1.3333333,0,0,-1.3333333,0,666.66667)" id="g10">
    <g transform="scale(0.1)" id="g12">
      <path id="path16" style="fill:#efdec8;fill-opacity:1;fill-rule:nonzero;stroke:none"
        d="m 3989.35,1134.26 v 1450.78 h -698.51 v 479.86 c 0,128.77 -104.38,233.15 -233.15,233.15 h -61.82 l 20.24,56.25 v 0 l 102.15,283.87 0.01,0.03 48.77,135.54 c 3.67,10.2 0.28,21.6 -8.37,28.14 l -72.27,54.6 c -5.5,4.16 -11.83,6.09 -18.05,6.09 -3,0 -5.98,-0.44 -8.83,-1.31 l 0.2,1.31 -20.68,1.67 c -0.87,0.07 -1.74,0.11 -2.6,0.11 -13.62,0 -25.88,-8.65 -30.35,-21.72 l -46.89,-137.35 v 0 l -88.82,-260.13 c 0,0 0,0 0.01,0 l -34.4,-100.76 c -5.6,-16.37 -1.48,-34.13 9.93,-46.34 h -783.13 c -34.08,0 -66.47,-7.32 -95.65,-20.46 h -76.62 -786.79 V 2490.8 1798.25 h 379.66 c 92.91,-46 142.17,-60.59 142.17,-60.59 l 26.26,60.59 h 139.58 l 38.24,-139.03 v -459.3 h -725.91 v -37.1 c -298.05,340.28 -478.675,785.97 -478.675,1273.87 0,951.42 686.985,1742.4 1591.925,1904.05 -10,-11.29 -14.15,-18.49 -14.15,-18.49 l 89.25,-6.19 c 0,0 -173.99,-74.14 -183.62,-260.95 -0.01,-0.2 -0.02,-0.4 -0.03,-0.6 v 0 0 0 c 28.88,25.27 52.16,28.08 61.07,28.08 2.55,0 3.93,-0.23 3.93,-0.23 0,0 24.18,-91.36 59.74,-159.58 -6.59,-0.28 -12.96,-1.8 -18.93,-4.68 -34.26,-16.52 -42.02,-71.42 -17.34,-122.62 19.9,-41.25 54.8,-67.52 85.52,-67.52 7.41,0 14.57,1.52 21.22,4.73 1.41,0.68 2.78,1.42 4.1,2.23 36.94,-161.23 135.17,-282.45 250.54,-282.45 115.37,0 213.59,121.22 250.54,282.46 1.32,-0.81 2.69,-1.56 4.1,-2.24 6.65,-3.21 13.81,-4.73 21.22,-4.73 30.72,0 65.62,26.27 85.52,67.52 24.69,51.2 16.92,106.1 -17.34,122.62 -6.65,3.21 -13.81,4.73 -21.22,4.73 -1.43,0 -2.88,-0.05 -4.33,-0.17 14.55,58.73 32.08,146.77 32.07,230.16 0,5.95 -0.09,11.88 -0.28,17.76 46.44,-49.53 60.37,-86.67 60.37,-86.67 0,0 0,0 0,0 v 0 0 0.01 0 c 0.56,1.18 78.22,165.87 -116.08,241.43 2.67,7.79 4.81,15.28 6.48,22.46 925.79,-144.16 1634.21,-944.9 1634.21,-1911.12 0,-501.66 -190.97,-958.71 -504.19,-1302.43 m -2215.38,751.17 h -84.37 l 100.67,232.26 c 0.38,0 0.76,-0.01 1.14,-0.01 4.46,0 8.42,0.54 11.93,1.47 v -174.67 c -19.04,-12.86 -28.42,-33.75 -29.37,-59.05 m -384.84,0 h -198.22 v 605.37 h 386.72 c -91.18,-231.65 -174.86,-476.72 -188.5,-605.37" />
      <path id="path18" style="fill:#e0d0bb;fill-opacity:1;fill-rule:nonzero;stroke:none"
        d="m 1147.32,2534.39 h 699.609 v 699.609 H 1147.32 Z" />
      <path id="path20" style="fill:#fef3df;fill-opacity:1;fill-rule:nonzero;stroke:none"
        d="m 1846.93,2534.39 v 43.59 h -656.02 v 612.43 h 612.43 v -656.02 h 43.59 v 43.59 -43.59 h 43.59 v 743.2 H 1103.73 V 2490.8 h 786.79 v 43.59 h -43.59" />
      <path id="path22" style="fill:#e0d0bb;fill-opacity:1;fill-rule:nonzero;stroke:none"
        d="m 1846.93,2534.39 h 699.609 v 699.609 H 1846.93 Z" />
      <path id="path24" style="fill:#fef3df;fill-opacity:1;fill-rule:nonzero;stroke:none"
        d="m 2546.54,2534.39 v 43.59 h -656.02 v 612.43 h 612.43 v -656.02 h 43.59 v 43.59 -43.59 h 43.59 v 743.2 H 1803.34 V 2490.8 h 786.79 v 43.59 h -43.59" />
      <path id="path26" style="fill:#e0d0bb;fill-opacity:1;fill-rule:nonzero;stroke:none"
        d="M 3246.15,2534.39 H 2546.54 V 3234 h 699.61 v -699.61" />
      <path id="path28" style="fill:#fef3df;fill-opacity:1;fill-rule:nonzero;stroke:none"
        d="m 3246.15,2534.39 v 43.59 h -656.02 v 612.43 h 612.43 v -656.02 h 43.59 v 43.59 -43.59 h 43.59 v 743.2 H 2502.95 V 2490.8 h 786.79 v 43.59 h -43.59" />
      <path id="path30" style="fill:#e0d0bb;fill-opacity:1;fill-rule:nonzero;stroke:none"
        d="M 3945.76,2534.39 H 3246.15 V 3234 h 699.61 v -699.61" />
      <path id="path32" style="fill:#fef3df;fill-opacity:1;fill-rule:nonzero;stroke:none"
        d="m 3945.76,2534.39 v 43.59 h -656.02 v 612.43 h 612.43 v -656.02 h 43.59 v 43.59 -43.59 h 43.59 v 743.2 H 3202.56 V 2490.8 h 786.79 v 43.59 h -43.59" />
      <path id="path34" style="fill:#e0d0bb;fill-opacity:1;fill-rule:nonzero;stroke:none"
        d="m 1846.93,1841.84 h -699.61 v 699.61 h 699.61 v -699.61" />
      <path id="path36" style="fill:#fef3df;fill-opacity:1;fill-rule:nonzero;stroke:none"
        d="m 1846.93,1841.84 v 43.59 h -656.02 v 612.43 h 612.43 v -656.02 h 43.59 v 43.59 -43.59 h 43.59 v 743.2 h -786.79 v -786.79 h 786.79 v 43.59 h -43.59" />
      <path id="path38" style="fill:#e0d0bb;fill-opacity:1;fill-rule:nonzero;stroke:none"
        d="m 1846.93,1841.84 h 699.609 v 699.609 H 1846.93 Z" />
      <path id="path40" style="fill:#fef3df;fill-opacity:1;fill-rule:nonzero;stroke:none"
        d="m 2546.54,1841.84 v 43.59 h -656.02 v 612.43 h 612.43 v -656.02 h 43.59 v 43.59 -43.59 h 43.59 v 743.2 h -786.79 v -786.79 h 786.79 v 43.59 h -43.59" />
      <path id="path42" style="fill:#e0d0bb;fill-opacity:1;fill-rule:nonzero;stroke:none"
        d="m 2546.54,1841.84 h 699.609 v 699.609 H 2546.54 Z" />
      <path id="path44" style="fill:#fef3df;fill-opacity:1;fill-rule:nonzero;stroke:none"
        d="m 3246.15,1841.84 v 43.59 h -656.02 v 612.43 h 612.43 v -656.02 h 43.59 v 43.59 -43.59 h 43.59 v 743.2 h -786.79 v -786.79 h 786.79 v 43.59 h -43.59" />
      <path id="path46" style="fill:#e0d0bb;fill-opacity:1;fill-rule:nonzero;stroke:none"
        d="m 3246.15,1841.84 h 699.613 v 699.609 H 3246.15 Z" />
      <path id="path48" style="fill:#fef3df;fill-opacity:1;fill-rule:nonzero;stroke:none"
        d="m 3945.76,1841.84 v 43.59 h -656.02 v 612.43 h 612.43 v -656.02 h 43.59 v 43.59 -43.59 h 43.59 v 743.2 h -786.79 v -786.79 h 786.79 v 43.59 h -43.59" />
      <path id="path50" style="fill:#e0d0bb;fill-opacity:1;fill-rule:nonzero;stroke:none"
        d="m 1846.93,1149.28 h -699.61 v 699.61 h 699.61 v -699.61" />
      <path id="path52" style="fill:#fef3df;fill-opacity:1;fill-rule:nonzero;stroke:none"
        d="m 1846.93,1149.28 v 43.59 h -656.02 v 612.43 h 612.43 v -656.02 h 43.59 v 43.59 -43.59 h 43.59 v 743.2 h -786.79 v -786.79 h 786.79 v 43.59 h -43.59" />
      <path id="path54" style="fill:#e0d0bb;fill-opacity:1;fill-rule:nonzero;stroke:none"
        d="m 2546.54,1149.28 h -699.61 v 699.61 h 699.61 v -699.61" />
      <path id="path56" style="fill:#fef3df;fill-opacity:1;fill-rule:nonzero;stroke:none"
        d="m 2546.54,1149.28 v 43.59 h -656.02 v 612.43 h 612.43 v -656.02 h 43.59 v 43.59 -43.59 h 43.59 v 743.2 h -786.79 v -786.79 h 786.79 v 43.59 h -43.59" />
      <path id="path58" style="fill:#e0d0bb;fill-opacity:1;fill-rule:nonzero;stroke:none"
        d="m 2546.54,1149.28 h 699.609 v 699.609 H 2546.54 Z" />
      <path id="path60" style="fill:#fef3df;fill-opacity:1;fill-rule:nonzero;stroke:none"
        d="m 3246.15,1149.28 v 43.59 h -656.02 v 612.43 h 612.43 v -656.02 h 43.59 v 43.59 -43.59 h 43.59 v 743.2 h -786.79 v -786.79 h 786.79 v 43.59 h -43.59" />
      <path id="path62" style="fill:#e0d0bb;fill-opacity:1;fill-rule:nonzero;stroke:none"
        d="m 3246.15,1149.28 h 699.613 v 699.609 H 3246.15 Z" />
      <path id="path64" style="fill:#fef3df;fill-opacity:1;fill-rule:nonzero;stroke:none"
        d="m 3945.76,1149.28 v 43.59 h -656.02 v 612.43 h 612.43 v -656.02 h 43.59 v 43.59 -43.59 h 43.59 v 743.2 h -786.79 v -786.79 h 786.79 v 43.59 h -43.59" />
      <path id="path66" style="fill:#e0d0bb;fill-opacity:1;fill-rule:nonzero;stroke:none"
        d="m 1147.32,456.719 h 699.609 v 699.613 H 1147.32 Z" />
      <path id="path68" style="fill:#fef3df;fill-opacity:1;fill-rule:nonzero;stroke:none"
        d="m 1846.93,456.719 v 43.59 h -656.02 v 612.431 h 612.43 V 456.719 h 43.59 v 43.59 -43.59 h 43.59 V 1199.92 H 1103.73 V 413.129 h 786.79 v 43.59 h -43.59" />
      <path id="path70" style="fill:#e0d0bb;fill-opacity:1;fill-rule:nonzero;stroke:none"
        d="m 1846.93,456.719 h 699.609 v 699.613 H 1846.93 Z" />
      <path id="path72" style="fill:#fef3df;fill-opacity:1;fill-rule:nonzero;stroke:none"
        d="m 2546.54,456.719 v 43.59 h -656.02 v 612.431 h 612.43 V 456.719 h 43.59 v 43.59 -43.59 h 43.59 V 1199.92 H 1803.34 V 413.129 h 786.79 v 43.59 h -43.59" />
      <path id="path74" style="fill:#e0d0bb;fill-opacity:1;fill-rule:nonzero;stroke:none"
        d="m 2546.54,456.719 h 699.609 v 699.613 H 2546.54 Z" />
      <path id="path76" style="fill:#fef3df;fill-opacity:1;fill-rule:nonzero;stroke:none"
        d="m 3246.15,456.719 v 43.59 h -656.02 v 612.431 h 612.43 V 456.719 h 43.59 v 43.59 -43.59 h 43.59 V 1199.92 H 2502.95 V 413.129 h 786.79 v 43.59 h -43.59" />
      <path id="path78" style="fill:#e0d0bb;fill-opacity:1;fill-rule:nonzero;stroke:none"
        d="m 3246.15,456.719 h 699.613 v 699.613 H 3246.15 Z" />
      <path id="path80" style="fill:#fef3df;fill-opacity:1;fill-rule:nonzero;stroke:none"
        d="m 3945.76,456.719 v 43.59 h -656.02 v 612.431 h 612.43 V 456.719 h 43.59 v 43.59 -43.59 h 43.59 V 1199.92 H 3202.56 V 413.129 h 786.79 v 43.59 h -43.59" />
      <path id="path82" style="fill:#7ca586;fill-opacity:1;fill-rule:nonzero;stroke:none"
        d="m 3420.96,3042.2 h 416.15 v -454.42 h -416.15 v 454.42" />
      <path id="path84" style="fill:#3c5844;fill-opacity:1;fill-rule:nonzero;stroke:none"
        d="m 3715.13,3042.2 h 121.98 v -454.42 h -121.98 v 454.42" />
      <path id="path86" style="fill:#344d3b;fill-opacity:1;fill-rule:nonzero;stroke:none"
        d="m 1280.34,3069.98 h -88.82 v -482.2 h 88.82 v 482.2" />
      <path id="path88" style="fill:#344d3b;fill-opacity:1;fill-rule:nonzero;stroke:none"
        d="m 3902.61,1891.68 v 88.82 h -482.2 v -88.82 h 482.2" />
      <path id="path90" style="fill:#7ca586;fill-opacity:1;fill-rule:nonzero;stroke:none"
        d="m 1423.31,3072.43 -84.94,-25.97 141.01,-461.13 84.93,25.97 -141,461.13" />
      <path id="path92" style="fill:#f3604d;fill-opacity:1;fill-rule:nonzero;stroke:none"
        d="m 1369.11,2945.18 h -88.82 v -357.4 h 88.82 v 357.4" />
      <path id="path94" style="fill:#7ca586;fill-opacity:1;fill-rule:nonzero;stroke:none"
        d="m 3837.16,1891.68 h -36.18 v 88.82 h 36.18 v -88.82" />
      <path id="path96" style="fill:#f3604d;fill-opacity:1;fill-rule:nonzero;stroke:none"
        d="m 3866.43,1978.21 v 88.82 h -482.21 v -88.82 h 482.21" />
      <path id="path98" style="fill:#7f3526;fill-opacity:1;fill-rule:nonzero;stroke:none"
        d="m 3505.13,1978.21 h -36.18 v 88.82 h 36.18 v -88.82" />
      <path id="path100" style="fill:#7f3526;fill-opacity:1;fill-rule:nonzero;stroke:none"
        d="m 1721.02,1200.8 h -191.73 v 191.73 h 191.73 V 1200.8" />
      <path id="path102" style="fill:#e84839;fill-opacity:1;fill-rule:nonzero;stroke:none"
        d="m 1721.02,1312.68 h -191.73 v 79.85 h 191.73 v -79.85" />
      <path id="path104" style="fill:#7ca586;fill-opacity:1;fill-rule:nonzero;stroke:none"
        d="m 3057.69,3298.05 h -994.9 c -128.76,0 -233.15,-104.38 -233.15,-233.15 V 973.57 h 1461.2 V 3064.9 c 0,128.77 -104.38,233.15 -233.15,233.15" />
      <path id="path106" style="fill:#5a8c66;fill-opacity:1;fill-rule:nonzero;stroke:none"
        d="m 1121.63,1291.61 -2.64,531.79 c 0,0 252.37,-327.28 2.64,-531.79" />
      <path id="path108" style="fill:#344d3b;fill-opacity:1;fill-rule:nonzero;stroke:none"
        d="m 1121.63,1291.61 -2.64,531.79 c 0,0 -249.103,-329.76 2.64,-531.79" />
      <path id="path110" style="fill:#0c593b;fill-opacity:1;fill-rule:nonzero;stroke:none"
        d="m 1115.5,1823.38 2.64,-531.79 6.98,0.04 -2.64,531.79" />
      <path id="path112" style="fill:#0c593b;fill-opacity:1;fill-rule:nonzero;stroke:none"
        d="m 1122.07,1597.57 85.71,58.79 -3.95,5.76 -85.71,-58.79" />
      <path id="path114" style="fill:#0c593b;fill-opacity:1;fill-rule:nonzero;stroke:none"
        d="m 1122.87,1470.66 -111.87,85.14 -4.22,-5.55 111.86,-85.14" />
      <path id="path116" style="fill:#5a8c66;fill-opacity:1;fill-rule:nonzero;stroke:none"
        d="m 1104.17,1215.28 389.26,362.33 c 0,0 -69.64,-407.37 -389.26,-362.33" />
      <path id="path118" style="fill:#344d3b;fill-opacity:1;fill-rule:nonzero;stroke:none"
        d="m 1104.17,1215.28 389.26,362.33 c 0,0 -411.31,-40.3 -389.26,-362.33" />
      <path id="path120" style="fill:#0c593b;fill-opacity:1;fill-rule:nonzero;stroke:none"
        d="m 1491.06,1580.16 -389.27,-362.32 4.75,-5.11 389.27,362.32" />
      <path id="path122" style="fill:#0c593b;fill-opacity:1;fill-rule:nonzero;stroke:none"
        d="m 1329.46,1422.3 101.31,-23.18 1.56,6.8 -101.32,23.18" />
      <path id="path124" style="fill:#0c593b;fill-opacity:1;fill-rule:nonzero;stroke:none"
        d="m 1236.67,1335.71 -13.2,139.96 -6.94,-0.66 13.19,-139.96" />
      <path id="path126" style="fill:#4f7259;fill-opacity:1;fill-rule:nonzero;stroke:none"
        d="m 1082.29,1212.81 216.08,485.92 c 0,0 95.63,-402.06 -216.08,-485.92" />
      <path id="path128" style="fill:#4f7259;fill-opacity:1;fill-rule:nonzero;stroke:none"
        d="m 1082.29,1212.81 216.08,485.92 c 0,0 -362.589,-198.3 -216.08,-485.92" />
      <path id="path130" style="fill:#0c593b;fill-opacity:1;fill-rule:nonzero;stroke:none"
        d="m 1295.18,1700.15 -216.07,-485.92 6.37,-2.83 216.08,485.91" />
      <path id="path132" style="fill:#0c593b;fill-opacity:1;fill-rule:nonzero;stroke:none"
        d="m 1208.4,1491.58 102.3,18.39 -1.24,6.86 -102.29,-18.39" />
      <path id="path134" style="fill:#0c593b;fill-opacity:1;fill-rule:nonzero;stroke:none"
        d="m 1156.98,1375.54 -67,123.58 -6.13,-3.32 67,-123.59" />
      <path id="path136" style="fill:#5a8c66;fill-opacity:1;fill-rule:nonzero;stroke:none"
        d="m 1127.47,1215.28 -389.271,362.33 c 0,0 69.637,-407.37 389.271,-362.33" />
      <path id="path138" style="fill:#344d3b;fill-opacity:1;fill-rule:nonzero;stroke:none"
        d="m 1127.47,1215.28 -389.271,362.33 c 0,0 411.301,-40.3 389.271,-362.33" />
      <path id="path140" style="fill:#0c593b;fill-opacity:1;fill-rule:nonzero;stroke:none"
        d="m 735.82,1575.05 389.27,-362.32 4.75,5.11 -389.266,362.32" />
      <path id="path142" style="fill:#0c593b;fill-opacity:1;fill-rule:nonzero;stroke:none"
        d="m 900.617,1429.1 -101.316,-23.18 1.554,-6.8 101.321,23.18" />
      <path id="path144" style="fill:#0c593b;fill-opacity:1;fill-rule:nonzero;stroke:none"
        d="m 1001.91,1335.05 13.19,139.96 -6.95,0.66 -13.185,-139.96" />
      <path id="path146" style="fill:#7ca586;fill-opacity:1;fill-rule:nonzero;stroke:none"
        d="m 1149.33,1212.81 -216.072,485.92 c 0,0 -95.625,-402.06 216.072,-485.92" />
      <path id="path148" style="fill:#7ca586;fill-opacity:1;fill-rule:nonzero;stroke:none"
        d="m 1149.33,1212.81 -216.072,485.92 c 0,0 362.592,-198.3 216.072,-485.92" />
      <path id="path150" style="fill:#0c593b;fill-opacity:1;fill-rule:nonzero;stroke:none"
        d="m 930.07,1697.31 216.07,-485.91 6.38,2.83 -216.075,485.92" />
      <path id="path152" style="fill:#0c593b;fill-opacity:1;fill-rule:nonzero;stroke:none"
        d="m 1024.46,1498.44 -102.288,18.39 -1.234,-6.86 102.292,-18.39" />
      <path id="path154" style="fill:#0c593b;fill-opacity:1;fill-rule:nonzero;stroke:none"
        d="m 1080.78,1372.21 67,123.59 -6.13,3.32 -67,-123.58" />
      <path id="path156" style="fill:#f3604d;fill-opacity:1;fill-rule:nonzero;stroke:none"
        d="M 1362.04,973.57 H 901.395 v 243.72 H 1362.04 V 973.57" />
      <path id="path158" style="fill:#e84839;fill-opacity:1;fill-rule:nonzero;stroke:none"
        d="m 1362.04,973.57 h -230.32 v 243.72 h 230.32 V 973.57" />
      <path id="path160" style="fill:#7ca586;fill-opacity:1;fill-rule:nonzero;stroke:none"
        d="m 1765.13,3939.82 -68.77,-51.7 -68.77,-51.69 -9.71,86.94 -9.72,86.94 78.49,-35.25 78.48,-35.24" />
      <path id="path162" style="fill:#344d3b;fill-opacity:1;fill-rule:nonzero;stroke:none"
        d="m 3661.5,1743.87 -57.77,-43.43 -57.78,-43.43 -8.16,73.04 -8.15,73.05 65.93,-29.61 65.93,-29.62" />
      <path id="path164" style="fill:#344d3b;fill-opacity:1;fill-rule:nonzero;stroke:none"
        d="m 3697.39,3771.13 -57.77,-43.43 -57.78,-43.43 -8.16,73.04 -8.16,73.04 65.94,-29.61 65.93,-29.61" />
      <path id="path166" style="fill:#f3604d;fill-opacity:1;fill-rule:nonzero;stroke:none"
        d="m 4228.33,2653.88 35.89,-77.2 35.89,-77.2 -84.81,7.52 -84.79,7.52 48.9,69.68 48.92,69.68" />
      <path id="path168" style="fill:#f3604d;fill-opacity:1;fill-rule:nonzero;stroke:none"
        d="m 1062.44,2139.73 -28.04,-50.11 -28.04,-50.1 -29.372,49.34 -29.367,49.33 57.409,0.77 57.41,0.77" />
      <path id="path170" style="fill:#f3604d;fill-opacity:1;fill-rule:nonzero;stroke:none"
        d="m 1502.44,3577.31 c 0,-39.15 -31.74,-70.89 -70.89,-70.89 -39.15,0 -70.89,31.74 -70.89,70.89 0,39.15 31.74,70.89 70.89,70.89 39.15,0 70.89,-31.74 70.89,-70.89" />
      <path id="path172" style="fill:#7ca586;fill-opacity:1;fill-rule:nonzero;stroke:none"
        d="m 4263.46,3090.35 c 0,-26.59 -21.57,-48.15 -48.15,-48.15 -26.59,0 -48.15,21.56 -48.15,48.15 0,26.59 21.56,48.15 48.15,48.15 26.58,0 48.15,-21.56 48.15,-48.15" />
      <path id="path174" style="fill:#344d3b;fill-opacity:1;fill-rule:nonzero;stroke:none"
        d="m 901.395,2328.85 c 0,-34.09 -27.633,-61.73 -61.727,-61.73 -34.098,0 -61.734,27.64 -61.734,61.73 0,34.09 27.636,61.74 61.734,61.74 34.094,0 61.727,-27.65 61.727,-61.74" />
      <path id="path176" style="fill:#f9b08c;fill-opacity:1;fill-rule:nonzero;stroke:none"
        d="m 845.535,813.301 h 3423.43 V 980.34 H 845.535 Z" />
      <path id="path178" style="fill:#8c7968;fill-opacity:1;fill-rule:nonzero;stroke:none"
        d="M 3365.13,980.328 H 4000.7 L 4108,1455.77 h -635.57 l -107.3,-475.442" />
      <path id="path180" style="fill:#c3b5a3;fill-opacity:1;fill-rule:nonzero;stroke:none"
        d="M 4215.3,980.328 H 3579.74 L 3472.43,1455.77 H 4108 l 107.3,-475.442" />
      <path id="path182" style="fill:#fef3df;fill-opacity:1;fill-rule:nonzero;stroke:none"
        d="m 4132.97,1026.56 v 4.48 h -485.66 l -80.58,357.01 h 480.06 l 81.81,-362.47 4.37,0.98 v 4.48 -4.48 l 4.37,0.99 -83.39,369.46 h -498.42 l 84.62,-374.93 h 498.42 l -1.23,5.47 -4.37,-0.99" />
      <path id="path184" style="fill:#fef3df;fill-opacity:1;fill-rule:nonzero;stroke:none"
        d="m 3580.01,1320.34 h 485.16 v 8.6914 h -485.16 z" />
      <path id="path186" style="fill:#fef3df;fill-opacity:1;fill-rule:nonzero;stroke:none"
        d="m 3594.53,1246.34 h 485.16 v 8.6914 h -485.16 z" />
      <path id="path188" style="fill:#fef3df;fill-opacity:1;fill-rule:nonzero;stroke:none"
        d="m 3611.25,1172.33 h 485.16 v 8.6992 h -485.16 z" />
      <path id="path190" style="fill:#fef3df;fill-opacity:1;fill-rule:nonzero;stroke:none"
        d="m 3631.46,1098.33 h 485.148 v 8.6875 H 3631.46 Z" />
      <path id="path192" style="fill:#fef3df;fill-opacity:1;fill-rule:nonzero;stroke:none"
        d="m 3648.52,1391.51 88.73,-365.97 8.45,2.05 -88.73,365.96" />
      <path id="path194" style="fill:#fef3df;fill-opacity:1;fill-rule:nonzero;stroke:none"
        d="m 3750.39,1391.51 88.74,-365.97 8.44,2.05 -88.73,365.96" />
      <path id="path196" style="fill:#fef3df;fill-opacity:1;fill-rule:nonzero;stroke:none"
        d="m 3852.27,1391.51 88.74,-365.97 8.45,2.05 -88.74,365.96" />
      <path id="path198" style="fill:#fef3df;fill-opacity:1;fill-rule:nonzero;stroke:none"
        d="m 3954.15,1391.51 88.73,-365.97 8.45,2.05 -88.73,365.96" />
      <path id="path200" style="fill:#f3604d;fill-opacity:1;fill-rule:nonzero;stroke:none"
        d="m 3697.3,1290.6 32.46,-26.88 28.25,46.71 -7.44,4.49 -23.03,-38.07 -24.7,20.44 -5.54,-6.69" />
      <path id="path202" style="fill:#f3604d;fill-opacity:1;fill-rule:nonzero;stroke:none"
        d="m 3532.28,1421.93 v 0 c -7.67,0 -13.94,6.27 -13.94,13.94 v 49.52 c 0,7.66 6.27,13.93 13.94,13.93 7.65,0 13.92,-6.27 13.92,-13.93 v -49.52 c 0,-7.67 -6.27,-13.94 -13.92,-13.94" />
      <path id="path204" style="fill:#f3604d;fill-opacity:1;fill-rule:nonzero;stroke:none"
        d="m 3605.01,1421.93 v 0 c -7.66,0 -13.93,6.27 -13.93,13.94 v 49.52 c 0,7.66 6.27,13.93 13.93,13.93 7.67,0 13.94,-6.27 13.94,-13.93 v -49.52 c 0,-7.67 -6.27,-13.94 -13.94,-13.94" />
      <path id="path206" style="fill:#f3604d;fill-opacity:1;fill-rule:nonzero;stroke:none"
        d="m 3677.75,1421.93 v 0 c -7.66,0 -13.92,6.27 -13.92,13.94 v 49.52 c 0,7.66 6.26,13.93 13.92,13.93 7.66,0 13.93,-6.27 13.93,-13.93 v -49.52 c 0,-7.67 -6.27,-13.94 -13.93,-13.94" />
      <path id="path208" style="fill:#f3604d;fill-opacity:1;fill-rule:nonzero;stroke:none"
        d="m 3750.5,1421.93 v 0 c -7.67,0 -13.94,6.27 -13.94,13.94 v 49.52 c 0,7.66 6.27,13.93 13.94,13.93 7.65,0 13.92,-6.27 13.92,-13.93 v -49.52 c 0,-7.67 -6.27,-13.94 -13.92,-13.94" />
      <path id="path210" style="fill:#f3604d;fill-opacity:1;fill-rule:nonzero;stroke:none"
        d="m 3823.23,1421.93 v 0 c -7.65,0 -13.92,6.27 -13.92,13.94 v 49.52 c 0,7.66 6.27,13.93 13.92,13.93 7.67,0 13.93,-6.27 13.93,-13.93 v -49.52 c 0,-7.67 -6.26,-13.94 -13.93,-13.94" />
      <path id="path212" style="fill:#f3604d;fill-opacity:1;fill-rule:nonzero;stroke:none"
        d="m 3895.98,1421.93 v 0 c -7.67,0 -13.94,6.27 -13.94,13.94 v 49.52 c 0,7.66 6.27,13.93 13.94,13.93 7.65,0 13.92,-6.27 13.92,-13.93 v -49.52 c 0,-7.67 -6.27,-13.94 -13.92,-13.94" />
      <path id="path214" style="fill:#f3604d;fill-opacity:1;fill-rule:nonzero;stroke:none"
        d="m 3968.71,1421.93 v 0 c -7.66,0 -13.92,6.27 -13.92,13.94 v 49.52 c 0,7.66 6.26,13.93 13.92,13.93 7.67,0 13.94,-6.27 13.94,-13.93 v -49.52 c 0,-7.67 -6.27,-13.94 -13.94,-13.94" />
      <path id="path216" style="fill:#f3604d;fill-opacity:1;fill-rule:nonzero;stroke:none"
        d="m 4041.46,1421.93 v 0 c -7.67,0 -13.94,6.27 -13.94,13.94 v 49.52 c 0,7.66 6.27,13.93 13.94,13.93 7.65,0 13.92,-6.27 13.92,-13.93 v -49.52 c 0,-7.67 -6.27,-13.94 -13.92,-13.94" />
      <path id="path218" style="fill:#f9b08c;fill-opacity:1;fill-rule:nonzero;stroke:none"
        d="M 3906.57,419.051 H 1217.32 c -87.58,0 -158.59,71.008 -158.59,158.601 V 813.301 H 4065.17 V 577.652 c 0,-87.593 -71.01,-158.601 -158.6,-158.601" />
      <path id="path220" style="fill:#ab5e47;fill-opacity:1;fill-rule:nonzero;stroke:none"
        d="M 1058.73,669.242 H 4065.17 V 813.301 H 1058.73 Z" />
      <path id="path222" style="fill:#7ca586;fill-opacity:1;fill-rule:nonzero;stroke:none"
        d="m 3059.72,3862.57 -20.68,1.67 c -14.64,1.18 -28.2,-7.72 -32.95,-21.61 l -170.1,-498.24 c -6.83,-19.98 0.81,-42.04 18.52,-53.53 l 44.19,-28.65 c 15.77,-10.23 35.2,-13.1 53.25,-7.88 l 19.22,5.56 88.55,602.68" />
      <path id="path224" style="fill:#344d3b;fill-opacity:1;fill-rule:nonzero;stroke:none"
        d="m 3039.9,3842.44 -174.4,-497.51 c -4.62,-13.16 0.43,-27.78 12.19,-35.28 l 73.35,-46.85 c 13.39,-8.55 31.25,-2.46 36.64,12.48 l 179.36,498.46 c 3.67,10.2 0.28,21.6 -8.37,28.14 l -72.27,54.6 c -16.25,12.28 -39.76,5.18 -46.5,-14.04" />
      <path id="path226" style="fill:#65735d;fill-opacity:1;fill-rule:nonzero;stroke:none"
        d="m 3016.11,3354.3 v 0 l 102.16,283.9 -0.01,-0.03 -102.15,-283.87 m -145.72,90.85 c -0.01,0 -0.01,0 -0.01,0 l 88.82,260.13 -88.81,-260.13" />
      <path id="path228" style="fill:#36523e;fill-opacity:1;fill-rule:nonzero;stroke:none"
        d="m 2893.96,3426.12 c -9.03,6.14 -16.94,12.78 -23.57,19.03 l 88.81,260.13 29.17,-9.83 -94.41,-269.33" />
      <path id="path230" style="fill:#152419;fill-opacity:1;fill-rule:nonzero;stroke:none"
        d="m 3016.11,3354.3 c -24.27,17.32 -64.76,44.67 -94.65,56.9 -10.03,4.1 -19.23,9.3 -27.5,14.92 l 94.41,269.33 133.26,-44.88 -3.36,-12.37 -102.16,-283.9" />
      <path id="path232" style="fill:#e84839;fill-opacity:1;fill-rule:nonzero;stroke:none"
        d="m 3096.87,3180.08 c 0,0 173.34,-57.78 280.64,-284.77 107.3,-226.99 326.03,-658.27 326.03,-658.27 l -181.98,-130.05 c 0,0 -152.31,86.71 -267.87,284.82 -115.56,198.09 -177.46,251.73 -177.46,251.73 l 20.64,536.54" />
      <path id="path234" style="fill:#e5836b;fill-opacity:1;fill-rule:nonzero;stroke:none"
        d="m 3206.23,3518.5 c 0,0 -10.31,142.38 -4.12,175.4 6.19,33.02 -47.46,43.34 -70.17,-43.33 -22.69,-86.67 74.29,-132.07 74.29,-132.07" />
      <path id="path236" style="fill:#e84839;fill-opacity:1;fill-rule:nonzero;stroke:none"
        d="m 2019.69,3180.08 c 0,0 -124.84,12.38 -248.66,-241.44 -123.81,-253.82 -386.91,-897.64 -383.81,-1089.55 154.76,-86.67 238.34,-111.43 238.34,-111.43 l 304.49,702.54 89.64,739.88" />
      <path id="path238" style="fill:#f3604d;fill-opacity:1;fill-rule:nonzero;stroke:none"
        d="m 3084.48,2127.67 c 156.83,123.81 115.56,652.08 12.39,1052.41 -247.63,12.38 -368.86,108.33 -368.86,108.33 l -169.73,-128.97 -169.73,128.97 c 0,0 -121.23,-95.95 -368.86,-108.33 -103.17,-400.33 -144.45,-928.6 12.38,-1052.41 70.17,-367.31 -152.7,-1147.342 -152.7,-1147.342 h 678.91 678.91 c 0,0 -222.86,780.032 -152.71,1147.342" />
      <path id="path240" style="fill:#e84839;fill-opacity:1;fill-rule:nonzero;stroke:none"
        d="m 2558.28,3159.44 -169.73,128.97 c 0,0 -47.64,-37.69 -144.16,-68.87 -60.67,-85.55 -162.11,-279.12 -94.69,-553.29 70.16,-299.21 408.58,-328.1 408.58,-328.1 v 821.29" />
      <path id="path242" style="fill:#e84839;fill-opacity:1;fill-rule:nonzero;stroke:none"
        d="m 2558.28,3159.44 169.73,128.97 c 0,0 47.64,-37.69 144.16,-68.87 60.67,-85.55 162.11,-279.12 94.7,-553.29 -70.17,-299.21 -408.59,-328.1 -408.59,-328.1 v 821.29" />
      <path id="path244" style="fill:#e84839;fill-opacity:1;fill-rule:nonzero;stroke:none"
        d="m 3146.67,1355.84 -10.6,4.19 -580.65,-177.46 V 980.34 h 2.86 379.2 c -32.83,168.46 153.77,167.17 259.53,153.56 -15.16,61.57 -32.96,137.89 -50.34,221.94" />
      <path id="path246" style="fill:#e84839;fill-opacity:1;fill-rule:nonzero;stroke:none"
        d="m 1969.52,1355.84 10.6,4.19 580.66,-177.46 V 980.34 h -2.87 -379.2 c 32.83,168.46 -153.77,167.17 -259.53,153.56 15.17,61.57 32.96,137.89 50.34,221.94" />
      <path id="path248" style="fill:#e0d0bb;fill-opacity:1;fill-rule:nonzero;stroke:none"
        d="m 2728.01,3288.41 -159.11,-120.9 -10.62,-8.07 -10.61,8.07 -159.12,120.9 c 0,0 -323.46,-694.38 169.73,-950.26 493.18,255.88 169.73,950.26 169.73,950.26" />
      <path id="path250" style="fill:#fef3df;fill-opacity:1;fill-rule:nonzero;stroke:none"
        d="m 2822.6,2955.92 c -25.71,184.5 -94.59,332.49 -94.59,332.49 l -159.11,-120.9 -5.53,-4.2 c -4.63,-22.94 -6.68,-48.13 -5.09,-76.09 0,0 80.45,-182.99 264.32,-131.3" />
      <path id="path252" style="fill:#fef3df;fill-opacity:1;fill-rule:nonzero;stroke:none"
        d="m 2293.96,2955.92 c 25.7,184.5 94.59,332.49 94.59,332.49 l 159.12,-120.9 5.52,-4.2 c 4.62,-22.94 6.68,-48.13 5.09,-76.09 0,0 -80.45,-182.99 -264.32,-131.3" />
      <path id="path254" style="fill:#f79477;fill-opacity:1;fill-rule:nonzero;stroke:none"
        d="m 1674.75,2326.35 c 0,0 -177.13,-242.01 -220.47,-336.94 -43.33,-94.92 -115.56,-169.2 -55.72,-288.89 59.85,-119.69 217.98,-101.12 255.51,16.5 37.52,117.63 105.62,331.2 136.57,417.35 -82.54,108.85 -115.89,191.98 -115.89,191.98" />
      <path id="path256" style="fill:#f79477;fill-opacity:1;fill-rule:nonzero;stroke:none"
        d="m 3645.77,2092.59 c 0,0 169.21,63.97 123.81,262.07 -45.4,198.1 -330.17,689.22 -398.26,831.61 -68.1,142.38 -78.42,173.33 -146.52,315.72 -68.09,142.38 -90.79,175.4 -171.27,207.39 -80.47,31.98 -122.53,52.14 -150.64,42.3 -28.1,-9.84 -6.19,-31.98 20.64,-50.04 26.82,-18.06 76.35,-53.14 76.35,-53.14 0,0 -43.34,0.18 -90.8,-11.26 -47.46,-11.43 -39.21,-38.26 -33.02,-50.64 6.2,-12.39 6.2,-12.39 6.2,-12.39 0,0 -39.21,-41.27 -6.2,-66.03 -14.44,-26.82 33.02,-59.84 72.23,-76.35 39.21,-16.51 130,-28.89 160.96,-107.3 30.95,-78.42 125.87,-441.61 179.53,-627.32 53.64,-185.72 84.18,-519.24 187.36,-570.83 103.18,-51.59 169.63,-33.79 169.63,-33.79" />
      <path id="path258" style="fill:#e84839;fill-opacity:1;fill-rule:nonzero;stroke:none"
        d="m 3645.77,2092.59 c 0,0 169.21,63.97 123.81,262.07 -14.67,64.01 -54.39,158.68 -103.67,262.24 -32.61,-69.59 -115.46,-154.04 -325.46,-149.28 32.05,-154.19 68.44,-307.61 135.69,-341.24 103.18,-51.59 169.63,-33.79 169.63,-33.79" />
      <path id="path260" style="fill:#7f3526;fill-opacity:1;fill-rule:nonzero;stroke:none"
        d="m 3715.13,2508.48 c -14.66,34.28 -31.29,70.75 -49.22,108.42 -32.61,-69.59 -115.46,-154.04 -325.46,-149.28 6.5,-31.28 13.19,-62.51 20.27,-92.74 178.16,-11.88 290.3,64.34 354.41,133.6" />
      <path id="path262" style="fill:#a85645;fill-opacity:1;fill-rule:nonzero;stroke:none"
        d="m 2882.38,3571.82 121.75,6.19 c 1.32,0.07 2.33,1.2 2.27,2.52 -0.07,1.32 -1.2,2.34 -2.52,2.27 l -121.75,-6.19 c -1.32,-0.07 -2.34,-1.2 -2.27,-2.52 0.07,-1.32 1.2,-2.34 2.52,-2.27" />
      <path id="path264" style="fill:#a85645;fill-opacity:1;fill-rule:nonzero;stroke:none"
        d="m 2875.7,3505.81 121.75,-18.57 c 1.31,-0.2 2.53,0.7 2.73,2.01 0.2,1.31 -0.7,2.53 -2.01,2.73 l -121.74,18.57 c -1.31,0.2 -2.54,-0.7 -2.73,-2 -0.2,-1.31 0.69,-2.54 2,-2.74" />
      <path id="path266" style="fill:#a85645;fill-opacity:1;fill-rule:nonzero;stroke:none"
        d="m 2999.8,3646.11 59.83,-2.06 c 1.33,-0.05 2.44,0.99 2.48,2.31 0.05,1.32 -0.99,2.43 -2.31,2.48 l -59.83,2.06 c -1.33,0.04 -2.44,-0.99 -2.48,-2.32 -0.05,-1.32 0.99,-2.43 2.31,-2.47" />
      <path id="path268" style="fill:#fef3df;fill-opacity:1;fill-rule:nonzero;stroke:none"
        d="m 3150.92,3766.5 c -4.35,-11.14 -13.36,-18.04 -20.13,-15.4 -6.77,2.64 -8.73,13.82 -4.38,24.96 4.34,11.15 13.36,18.05 20.12,15.41 6.77,-2.64 8.73,-13.82 4.39,-24.97" />
      <path id="path270" style="fill:#e84839;fill-opacity:1;fill-rule:nonzero;stroke:none"
        d="m 3084.48,2127.67 c 38.36,30.28 64.85,84.81 81.5,155.7 0,0 -228.18,-145.13 -458.18,-193.75 -225.87,-48.62 376.68,38.05 376.68,38.05" />
      <path id="path272" style="fill:#e84839;fill-opacity:1;fill-rule:nonzero;stroke:none"
        d="m 2032.08,2127.67 c -38.36,30.28 -64.85,84.81 -81.49,155.7 0,0 228.17,-145.13 458.17,-193.75 225.87,-48.62 -376.68,38.05 -376.68,38.05" />
      <path id="path274" style="fill:#e5836b;fill-opacity:1;fill-rule:nonzero;stroke:none"
        d="m 2038.27,2183.39 c 0,0 -74.29,-61.92 -125.88,-74.3 -51.59,-12.37 -68.09,34.03 -68.09,34.03 l 61.9,93.92 107.3,-8.26 24.77,-45.39" />
      <path id="path276" style="fill:#f79477;fill-opacity:1;fill-rule:nonzero;stroke:none"
        d="m 1658.78,2246.11 c -12.64,34.5 0.94,73.13 31.37,93.7 52.79,35.72 140.29,92.8 179.94,106.67 58.81,20.59 139.29,-86.67 185.72,-176.43 46.43,-89.76 49.52,-136.19 24.76,-145.48 -24.76,-9.29 -71.73,85.13 -89.76,86.67 -30.96,-49.52 -74.29,-34.04 -89.77,-30.95 -37.14,-52.62 -71.19,-34.05 -71.19,-34.05 0,0 -9.29,-44.62 -68.1,-22.31 -41.66,15.81 -83.32,68.56 -102.97,122.18" />
      <path id="path278" style="fill:#a85645;fill-opacity:1;fill-rule:nonzero;stroke:none"
        d="m 1992.9,2212.4 -49.52,89.76 c -0.64,1.16 -2.09,1.58 -3.25,0.94 -1.16,-0.63 -1.58,-2.09 -0.94,-3.25 l 49.52,-89.77 c 0.64,-1.16 2.09,-1.58 3.25,-0.94 1.16,0.64 1.58,2.1 0.94,3.26" />
      <path id="path280" style="fill:#a85645;fill-opacity:1;fill-rule:nonzero;stroke:none"
        d="m 1903.19,2181.35 -50.55,103.07 c -0.59,1.19 -2.02,1.68 -3.21,1.1 -1.19,-0.58 -1.68,-2.02 -1.1,-3.21 l 50.56,-103.07 c 0.58,-1.19 2.02,-1.68 3.21,-1.1 1.18,0.58 1.67,2.02 1.09,3.21" />
      <path id="path282" style="fill:#a85645;fill-opacity:1;fill-rule:nonzero;stroke:none"
        d="m 1831.77,2147.68 -68.1,90.8 c -0.8,1.06 -2.3,1.27 -3.36,0.48 -1.06,-0.8 -1.27,-2.3 -0.48,-3.36 l 68.1,-90.8 c 0.8,-1.06 2.3,-1.27 3.36,-0.48 1.06,0.8 1.27,2.3 0.48,3.36" />
      <path id="path284" style="fill:#7f3526;fill-opacity:1;fill-rule:nonzero;stroke:none"
        d="m 3335.85,2466.73 c 0.01,-0.05 9.34,-48.73 24.1,-107.87 14.79,-59.17 34.87,-128.64 56.85,-170.94 l 8.31,4.33 c -21.23,40.75 -41.4,110.05 -56.07,168.88 -7.34,29.43 -13.34,56.29 -17.51,75.78 -2.08,9.75 -3.7,17.65 -4.8,23.11 -1.1,5.47 -1.68,8.47 -1.68,8.48 l -9.2,-1.77" />
      <path id="path286" style="fill:#7f3526;fill-opacity:1;fill-rule:nonzero;stroke:none"
        d="m 1649.19,1704.01 c -180.32,5.44 -208.22,166.56 -209.82,255.18 -42.54,-81.34 -94.16,-151.96 -40.81,-258.67 57.56,-115.11 205.98,-102.29 250.63,3.49" />
      <path id="path288" style="fill:#be4333;fill-opacity:1;fill-rule:nonzero;stroke:none"
        d="m 1930.04,2440.2 c -8.99,7.17 -17.4,25.57 -25.21,50.99 14.23,-31.79 24.87,-50.38 25.21,-50.98 v -0.01" />
      <path id="path290" style="fill:#d5543c;fill-opacity:1;fill-rule:nonzero;stroke:none"
        d="m 1930.05,2440.2 h -0.01 v 0.01 c 0.01,-0.01 0.01,-0.01 0.01,-0.01" />
      <path id="path292" style="fill:#be4333;fill-opacity:1;fill-rule:nonzero;stroke:none"
        d="m 1904.83,2491.19 c -30.9,69.03 -78.74,200.33 -74.98,345.07 0.87,33.65 2.46,47.94 4.75,47.94 10.04,0 33.62,-273.85 70.23,-393.01" />
      <path id="path294" style="fill:#4f7259;fill-opacity:1;fill-rule:nonzero;stroke:none"
        d="m 3259.23,1958.46 h -1401.9 c -74.64,0 -95.58,-53.66 -77.14,-119.45 l 151.32,-550.15 c 11.99,-43.3 51.4,-73.27 96.32,-73.27 h 529.91 1.07 529.91 c 44.93,0 84.34,29.97 96.33,73.27 l 151.33,550.15 c 18.42,65.79 -2.51,119.45 -77.15,119.45" />
      <path id="path296" style="fill:#344d3b;fill-opacity:1;fill-rule:nonzero;stroke:none"
        d="M 3280.04,1913.06 H 1836.52 c -38.63,0 -66.64,-36.81 -56.33,-74.05 l 161.77,-584.38 c 11.79,-42.59 50.54,-72.06 94.72,-72.06 h 521.06 1.07 521.06 c 44.18,0 82.93,29.47 94.72,72.06 l 161.79,584.38 c 10.3,37.24 -17.71,74.05 -56.34,74.05" />
      <path id="path298" style="fill:#4f7259;fill-opacity:1;fill-rule:nonzero;stroke:none"
        d="m 2684.44,1668.53 c 0,-45.01 -57.76,-81.51 -129.02,-81.51 -71.26,0 -129.03,36.5 -129.03,81.51 0,45.01 57.77,81.51 129.03,81.51 71.26,0 129.02,-36.5 129.02,-81.51" />
      <path id="path300" style="fill:#4f7259;fill-opacity:1;fill-rule:nonzero;stroke:none"
        d="m 2795.59,1499.32 h -474.62 l -36.56,-518.992 h 547.74 l -36.56,518.992" />
      <path id="path302" style="fill:#17281c;fill-opacity:1;fill-rule:nonzero;stroke:none"
        d="m 2320.97,1499.32 -80.99,-316.75 h 58.68 z" />
      <path id="path304" style="fill:#7ca586;fill-opacity:1;fill-rule:nonzero;stroke:none"
        d="m 1905.86,1842.38 c 0,-16.99 -13.78,-30.77 -30.78,-30.77 -17,0 -30.78,13.78 -30.78,30.77 0,17 13.78,30.78 30.78,30.78 17,0 30.78,-13.78 30.78,-30.78" />
      <path id="path306" style="fill:#7f3526;fill-opacity:1;fill-rule:nonzero;stroke:none"
        d="m 2554.12,1958.46 h 9.3672 v 379.688 h -9.3672 z" />
      <path id="path308" style="fill:#7f3526;fill-opacity:1;fill-rule:nonzero;stroke:none"
        d="m 2496.66,2210.13 c 0,-20.57 -16.67,-37.24 -37.24,-37.24 -20.56,0 -37.23,16.67 -37.23,37.24 0,20.55 16.67,37.22 37.23,37.22 20.57,0 37.24,-16.67 37.24,-37.22" />
      <path id="path310" style="fill:#1e3023;fill-opacity:1;fill-rule:nonzero;stroke:none"
        d="m 3203.77,1360.03 c 55.32,482.87 -582.4,553.03 -582.4,553.03 h 658.67 c 33.12,0 58.44,-27.06 58.49,-58.25 0.01,-5.19 -0.68,-10.49 -2.15,-15.8 v 0 l -132.61,-478.98" />
      <path id="path312" style="fill:#7f3526;fill-opacity:1;fill-rule:nonzero;stroke:none"
        d="m 2857.62,3854.06 c 0,0 55.59,169.49 50.94,316.52 46.44,-49.53 60.37,-86.67 60.37,-86.67 0,0 78.92,165.6 -116.08,241.44 37.14,108.33 -28.38,157.86 -28.38,157.86 l -30.43,-108.33 c 0,0 -175.14,122.26 -356.87,80.47 -181.72,-41.78 -234.34,-133.1 -234.34,-133.1 l 89.25,-6.19 c 0,0 -174.37,-74.29 -183.65,-261.55 37.14,32.5 65,27.85 65,27.85 0,0 36.37,-137.44 85.51,-201.04 49.14,-63.6 126.52,-62.06 126.52,-62.06 l 472.16,34.8" />
      <path id="path314" style="fill:#9d4738;fill-opacity:1;fill-rule:nonzero;stroke:none"
        d="m 2824.47,4483.21 -30.43,-108.33 c 0,0 -175.14,122.26 -356.87,80.47 -82.11,-18.89 -137.8,-47.87 -174.25,-73.98 l 149.62,-28.17 c 0,0 -109.99,-43.14 -172.56,-164.05 88.21,57.27 458.62,112.98 458.62,112.98 0,0 4.12,-69.65 -56.24,-126.9 78.94,4.64 185.73,92.85 210.49,150.12 37.14,108.33 -28.38,157.86 -28.38,157.86" />
      <path id="path316" style="fill:#5a201a;fill-opacity:1;fill-rule:nonzero;stroke:none"
        d="m 2173.43,4082.36 c 0,0 36.37,-137.44 85.51,-201.04 49.14,-63.6 126.52,-62.06 126.52,-62.06 l 472.16,34.8 c 0,0 55.59,169.49 50.94,316.52 46.44,-49.53 60.37,-86.67 60.37,-86.67 0,0 63.63,133.73 -65.04,215.88 1.03,-1.5 39.04,-56.79 42.72,-118.89 -51.97,37.14 -88.99,35.08 -88.99,35.08 0,0 -8.38,-198.1 -64.09,-249.69 -55.72,-51.59 -439.57,-51.59 -439.57,-51.59 0,0 -92.83,99.05 -125.85,163.02 -33.02,63.97 -41.27,88.74 -41.27,88.74 0,0 -76.35,-65.01 -78.41,-111.95 37.14,32.5 65,27.85 65,27.85" />
      <path id="path318" style="fill:#f79477;fill-opacity:1;fill-rule:nonzero;stroke:none"
        d="m 2664.55,3542.23 -106.27,6.19 -106.27,-6.19 c 0,0 35.59,-191.91 -63.46,-253.82 69.65,-134.64 169.73,-201.19 169.73,-201.19 0,0 100.08,66.55 169.73,201.19 -99.05,61.91 -63.46,253.82 -63.46,253.82" />
      <path id="path320" style="fill:#cf6347;fill-opacity:1;fill-rule:nonzero;stroke:none"
        d="m 2659.73,3430.77 c -4.89,58.94 4.82,111.46 4.82,111.46 l -106.27,6.19 -106.27,-6.19 c 0,0 20.03,-108.02 -11.79,-188.11 110.53,-34.26 180.65,23.51 219.51,76.65" />
      <path id="path322" style="fill:#cf6347;fill-opacity:1;fill-rule:nonzero;stroke:none"
        d="m 2919.66,3795.48 c -24.7,-51.2 -72.48,-79.31 -106.74,-62.79 -34.27,16.52 -42.02,71.42 -17.33,122.62 24.68,51.2 72.47,79.31 106.73,62.79 34.26,-16.52 42.03,-71.42 17.34,-122.62" />
      <path id="path324" style="fill:#f79477;fill-opacity:1;fill-rule:nonzero;stroke:none"
        d="m 2846.08,3830.96 c -18.2,-37.75 -18.72,-77.46 -4.02,-102.37 28.63,4.02 59.4,29.14 77.59,66.89 18.21,37.75 18.72,77.46 4.02,102.37 -28.63,-4.02 -59.38,-29.14 -77.59,-66.89" />
      <path id="path326" style="fill:#cf6347;fill-opacity:1;fill-rule:nonzero;stroke:none"
        d="m 2196.9,3795.48 c 24.69,-51.2 72.48,-79.31 106.74,-62.79 34.26,16.52 42.02,71.42 17.34,122.62 -24.7,51.2 -72.48,79.31 -106.74,62.79 -34.26,-16.52 -42.02,-71.42 -17.34,-122.62" />
      <path id="path328" style="fill:#f79477;fill-opacity:1;fill-rule:nonzero;stroke:none"
        d="m 2270.48,3830.96 c 18.2,-37.75 18.71,-77.46 4.02,-102.37 -28.64,4.02 -59.39,29.14 -77.6,66.89 -18.2,37.75 -18.71,77.46 -4.01,102.37 28.63,-4.02 59.39,-29.14 77.59,-66.89" />
      <path id="path330" style="fill:#f79477;fill-opacity:1;fill-rule:nonzero;stroke:none"
        d="m 2771.87,4149.85 c -40.6,-31.97 -146.68,-105.98 -264.15,-110.82 50.56,99.06 50.56,99.06 50.56,99.06 0,0 -196.05,-50.27 -263.37,-149.1 -1.84,-18.37 -2.83,-93.84 -2.83,-114.01 0,-225.66 119.18,-422.51 266.2,-422.51 147.01,0 266.19,196.85 266.19,422.51 0,91.4 -19.56,220.51 -52.6,274.87" />
      <path id="path332" style="fill:#a4342d;fill-opacity:1;fill-rule:nonzero;stroke:none"
        d="m 2549.1,3831.76 c -0.01,-0.01 -0.2,-5.57 -0.66,-14.45 -0.68,-13.31 -1.97,-34.01 -4.09,-54.22 -2.1,-20.18 -5.12,-40.01 -9,-51.01 -1.47,-4.22 -2.17,-8 -2.17,-11.39 -0.02,-4.71 1.4,-8.71 3.72,-11.72 3.5,-4.54 8.58,-6.81 13.29,-8.05 4.73,-1.23 9.25,-1.45 12.1,-1.45 1.79,0 2.91,0.09 2.99,0.09 l -0.58,7.01 -0.6,-0.04 -1.81,-0.03 c -3.28,-0.02 -9.32,0.41 -14.05,2.49 -2.37,1.04 -4.37,2.43 -5.75,4.24 -1.37,1.83 -2.27,4.08 -2.28,7.46 0,2.42 0.5,5.42 1.78,9.07 5.65,16.26 9.05,46.39 11.22,72.85 2.13,26.4 2.91,48.88 2.91,48.91 l -7.02,0.24" />
      <path id="path334" style="fill:#a4342d;fill-opacity:1;fill-rule:nonzero;stroke:none"
        d="m 2608.32,3701.64 c 0,-4.28 -6.24,-7.74 -13.93,-7.74 -7.69,0 -13.93,3.46 -13.93,7.74 0,4.27 6.24,7.74 13.93,7.74 7.69,0 13.93,-3.47 13.93,-7.74" />
      <path id="path336" style="fill:#62221a;fill-opacity:1;fill-rule:nonzero;stroke:none"
        d="m 2482.96,3984.86 c -12.45,4.46 -24.24,8.2 -35.98,11.14 -11.77,2.73 -23.39,4.65 -34.94,4.75 -11.56,0.59 -23.08,-0.83 -34.54,-3.75 -11.72,-2.48 -22.77,-7.58 -35.38,-12.14 7.67,10.62 17.8,20.18 30.29,25.85 5.97,3.58 12.79,4.9 19.42,7.01 6.83,0.99 13.75,2.05 20.68,1.76 13.83,-0.52 27.43,-3.77 39.5,-9.81 12.03,-5.96 23.04,-14.05 30.95,-24.81" />
      <path id="path338" style="fill:#62221a;fill-opacity:1;fill-rule:nonzero;stroke:none"
        d="m 2633.59,3984.86 c 7.91,10.76 18.92,18.85 30.96,24.81 12.07,6.04 25.67,9.29 39.5,9.81 6.93,0.29 13.85,-0.77 20.68,-1.76 6.63,-2.11 13.45,-3.43 19.42,-7.01 12.48,-5.67 22.62,-15.23 30.28,-25.85 -12.6,4.56 -23.65,9.66 -35.37,12.14 -11.46,2.92 -22.98,4.34 -34.54,3.75 -11.55,-0.1 -23.17,-2.02 -34.94,-4.75 -11.74,-2.94 -23.54,-6.68 -35.99,-11.14" />
      <path id="path340" style="fill:#62221a;fill-opacity:1;fill-rule:nonzero;stroke:none"
        d="m 2636.14,3862.38 c 8.39,7.54 18.4,12.93 28.82,17.03 10.46,4.08 21.53,6.76 32.8,7.85 11.26,1.25 22.77,0.54 33.84,-1.8 11.13,-2.03 21.71,-6.76 31,-12.88 -11.28,0.8 -21.68,2.36 -32.27,2.34 -10.49,0.27 -20.88,-0.12 -31.25,-1.21 -20.83,-1.86 -41.25,-6.32 -62.94,-11.33" />
      <path id="path342" style="fill:#62221a;fill-opacity:1;fill-rule:nonzero;stroke:none"
        d="m 2480.41,3862.38 c -21.69,5.01 -42.11,9.47 -62.94,11.33 -10.37,1.09 -20.75,1.48 -31.24,1.21 -10.59,0.02 -21,-1.54 -32.27,-2.34 9.28,6.12 19.86,10.85 31,12.88 11.07,2.34 22.58,3.05 33.83,1.8 11.27,-1.09 22.34,-3.77 32.8,-7.85 10.42,-4.1 20.44,-9.49 28.82,-17.03" />
      <path id="path344" style="fill:#e84839;fill-opacity:1;fill-rule:nonzero;stroke:none"
        d="m 2487.6,3638.18 63.24,17.03 14.15,-8.51 15.47,13.15 89.76,6.19 c 0,0 -89.76,-108.33 -182.62,-27.86" />
      <path id="path346" style="fill:#3c5844;fill-opacity:1;fill-rule:nonzero;stroke:none"
        d="m 2523.81,3867.86 -1.19,2.02 1.17,-2.03 0.02,0.01 -1.19,2.02 1.17,-2.03 c 0.33,0.25 17.16,9.56 36.86,9.47 10.2,-0.02 21.05,-2.3 31.73,-9.23 l 10.22,15.71 c -14.08,9.19 -28.92,12.28 -41.95,12.26 -26.13,-0.1 -45.55,-11.66 -46.32,-12.03 l 9.48,-16.17" />
      <path id="path348" style="fill:#f36153;fill-opacity:1;fill-rule:nonzero;stroke:none"
        d="m 2408.76,3728.59 c -29.97,0 -54.26,16.29 -54.26,36.38 0,1.97 0.24,3.9 0.69,5.79 13.54,-8.52 29.58,-13.45 46.76,-13.45 h 29.13 c 11.24,0 21.99,2.11 31.87,5.95 -1.32,-19.29 -25.08,-34.67 -54.19,-34.67" />
      <path id="path350" style="fill:#f36153;fill-opacity:1;fill-rule:nonzero;stroke:none"
        d="m 2707.8,3728.59 c -29.12,0 -52.87,15.38 -54.2,34.68 9.89,-3.85 20.64,-5.96 31.88,-5.96 h 29.12 c 17.18,0 33.22,4.93 46.77,13.44 0.45,-1.88 0.68,-3.81 0.68,-5.78 0,-20.09 -24.29,-36.38 -54.25,-36.38" />
      <path id="path352" style="fill:#f9b094;fill-opacity:1;fill-rule:nonzero;stroke:none"
        d="m 2653.6,3763.27 c -32.84,12.76 -56.11,44.68 -56.11,82.03 v 30.64 l 1.01,1.55 v -32.19 c 0,-18.4 5.67,-35.47 15.33,-49.59 34.66,14.59 62.4,42.4 76.88,77.11 2.79,0.34 5.58,0.64 8.37,0.89 8.27,0.86 16.55,1.29 24.88,1.29 2.12,0 4.25,-0.03 6.37,-0.08 0.09,0 0.17,0 0.25,0 10.5,0 20.83,-1.54 32.02,-2.34 -9.29,6.12 -19.87,10.85 -31,12.88 -7.43,1.57 -15.06,2.41 -22.68,2.41 -3.73,0 -7.45,-0.2 -11.16,-0.61 -0.66,-0.07 -1.32,-0.14 -1.98,-0.21 3.86,12.98 5.94,26.74 5.94,40.98 0,7.77 -0.79,15.34 -1.98,22.78 h -73.02 c -15.59,0 -28.22,-12.63 -28.22,-28.21 v -36.3 c -0.34,0.19 -0.67,0.37 -1.01,0.55 v 35.75 c 0,15.58 12.63,28.21 28.21,28.21 h 148.68 c 15.58,0 28.22,-12.63 28.22,-28.21 v -77.3 c 0,-31.41 -16.46,-58.98 -41.23,-74.55 -4.14,17.34 -26.55,30.59 -53.57,30.59 -29.97,0 -54.25,-16.29 -54.25,-36.37 0,-0.57 0.01,-1.14 0.05,-1.7" />
      <path id="path354" style="fill:#925e52;fill-opacity:1;fill-rule:nonzero;stroke:none"
        d="m 2762.6,3872.58 c -11.19,0.8 -21.52,2.34 -32.02,2.34 -0.08,0 -0.16,0 -0.25,0 -2.12,0.05 -4.25,0.08 -6.37,0.08 -8.33,0 -16.61,-0.43 -24.88,-1.29 -2.79,-0.25 -5.58,-0.55 -8.37,-0.89 1.93,4.63 3.63,9.37 5.07,14.23 0.66,0.07 1.32,0.14 1.98,0.21 3.71,0.41 7.43,0.61 11.16,0.61 7.62,0 15.25,-0.84 22.68,-2.41 11.13,-2.03 21.71,-6.76 31,-12.88" />
      <path id="path356" style="fill:#758974;fill-opacity:1;fill-rule:nonzero;stroke:none"
        d="m 2597.49,3875.94 v 10.91 c 0.34,-0.18 0.67,-0.36 1.01,-0.55 v -8.81 l -1.01,-1.55" />
      <path id="path358" style="fill:#f6887b;fill-opacity:1;fill-rule:nonzero;stroke:none"
        d="m 2714.6,3757.31 h -29.12 c -11.24,0 -21.99,2.11 -31.88,5.96 -0.04,0.56 -0.05,1.13 -0.05,1.7 0,20.08 24.28,36.37 54.25,36.37 27.02,0 49.43,-13.25 53.57,-30.59 -13.55,-8.51 -29.59,-13.44 -46.77,-13.44" />
      <path id="path360" style="fill:#f9b094;fill-opacity:1;fill-rule:nonzero;stroke:none"
        d="m 2462.95,3763.26 c 0.04,0.57 0.06,1.14 0.06,1.71 0,20.08 -24.29,36.37 -54.25,36.37 -27.03,0 -49.44,-13.25 -53.57,-30.58 -24.14,15.17 -40.38,41.73 -41.19,72.15 0.47,-17.49 6.05,-33.69 15.29,-47.2 35.25,14.83 63.33,43.33 77.6,78.87 3.53,-0.21 7.06,-0.5 10.58,-0.87 20.83,-1.86 41.25,-6.32 62.94,-11.33 v 0 0 c -8.38,7.54 -18.4,12.93 -28.82,17.03 -10.46,4.08 -21.53,6.76 -32.8,7.85 -2.43,0.27 -4.87,0.45 -7.32,0.54 3.72,12.76 5.71,26.26 5.71,40.23 0,7.77 -0.78,15.34 -1.98,22.78 h -73.02 c -15.58,0 -28.22,-12.63 -28.22,-28.21 v -77.3 0 77.3 c 0,15.58 12.64,28.21 28.22,28.21 h 148.68 c 15.58,0 28.21,-12.63 28.21,-28.21 v -36.14 c -2.86,-1.35 -4.52,-2.33 -4.74,-2.43 l 4.74,-8.09 v -30.64 c 0,-37.35 -23.27,-69.27 -56.12,-82.04" />
      <path id="path362" style="fill:#925e52;fill-opacity:1;fill-rule:nonzero;stroke:none"
        d="m 2480.41,3862.38 c -21.69,5.01 -42.11,9.47 -62.94,11.33 -3.52,0.37 -7.05,0.66 -10.58,0.87 1.73,4.3 3.26,8.72 4.58,13.22 2.45,-0.09 4.89,-0.27 7.32,-0.54 11.27,-1.09 22.34,-3.77 32.8,-7.85 10.42,-4.1 20.44,-9.49 28.82,-17.03" />
      <path id="path364" style="fill:#f9b094;fill-opacity:1;fill-rule:nonzero;stroke:none"
        d="m 2314,3842.95 c -0.01,0.06 -0.01,0.12 -0.01,0.17 0,-0.06 0,-0.11 0.01,-0.17 m -0.01,0.25 c 0,0.05 0,0.11 0,0.16 0,-0.05 0,-0.11 0,-0.16 m -0.01,0.25 c 0,0.08 0,0.17 0,0.25 0,-0.08 0,-0.17 0,-0.25 m 0,0.38 c 0,0.04 0,0.08 -0.01,0.12 0.01,-0.04 0.01,-0.08 0.01,-0.12 m -0.01,0.26 c 0,0.04 0,0.07 0,0.11 0,-0.04 0,-0.07 0,-0.11 m 0,0.35 c 0,0.02 0,0.03 0,0.05 0,-0.01 0,-0.03 0,-0.05 m 0,0.26 c 0,0.03 0,0.06 0,0.09 0,-0.03 0,-0.06 0,-0.09 m 0,0.27 c 0,0.02 0,0.05 -0.01,0.08 0.01,-0.03 0.01,-0.06 0.01,-0.08" />
      <path id="path366" style="fill:#758974;fill-opacity:1;fill-rule:nonzero;stroke:none"
        d="m 2519.07,3875.94 -4.74,8.09 c 0.22,0.1 1.88,1.08 4.74,2.43 v -10.52" />
      <path id="path368" style="fill:#f6887b;fill-opacity:1;fill-rule:nonzero;stroke:none"
        d="m 2431.08,3757.31 h -29.13 c -17.18,0 -33.22,4.93 -46.76,13.45 4.13,17.33 26.54,30.58 53.57,30.58 29.96,0 54.25,-16.29 54.25,-36.37 0,-0.57 -0.02,-1.14 -0.06,-1.71 -9.88,-3.84 -20.63,-5.95 -31.87,-5.95" />
      <path id="path370" style="fill:#f9b094;fill-opacity:1;fill-rule:nonzero;stroke:none"
        d="m 2314,3842.91 c 0,0.01 0,0.03 0,0.04 0,-0.01 0,-0.03 0,-0.04 m -0.01,0.21 c 0,0.03 0,0.05 0,0.08 0,-0.03 0,-0.05 0,-0.08 m 0,0.24 c 0,0.03 -0.01,0.06 -0.01,0.09 0,-0.03 0.01,-0.06 0.01,-0.09 m -0.01,0.34 c 0,0.05 0,0.09 0,0.13 0,-0.04 0,-0.09 0,-0.13 m -0.01,0.25 c 0,0.05 0,0.1 0,0.14 0,-0.04 0,-0.09 0,-0.14 m 0,0.25 c 0,0.08 0,0.16 0,0.24 0,-0.08 0,-0.16 0,-0.24 m 0,0.29 c 0,0.07 0,0.14 0,0.21 0,-0.07 0,-0.14 0,-0.21 m 0,0.3 c 0,0.06 0,0.12 0,0.18 0,-0.06 0,-0.13 0,-0.18 m -0.01,0.26 c 0,0.08 0,0.17 0,0.25 v 0 c 0,-0.08 0,-0.17 0,-0.25" />
      <path id="path372" style="fill:#fbc4ab;fill-opacity:1;fill-rule:nonzero;stroke:none"
        d="m 2329.29,3795.71 c -9.24,13.51 -14.82,29.71 -15.29,47.2 0,0.01 0,0.03 0,0.04 -0.01,0.06 -0.01,0.11 -0.01,0.17 0,0.03 0,0.05 0,0.08 0,0.05 0,0.11 0,0.16 0,0.03 -0.01,0.06 -0.01,0.09 0,0.08 0,0.17 0,0.25 0,0.04 0,0.09 0,0.13 0,0.04 0,0.08 -0.01,0.12 0,0.05 0,0.1 0,0.14 0,0.04 0,0.07 0,0.11 0,0.08 0,0.16 0,0.24 0,0.02 0,0.04 0,0.05 0,0.07 0,0.14 0,0.21 0,0.03 0,0.06 0,0.09 0,0.05 0,0.12 0,0.18 0,0.02 0,0.05 -0.01,0.08 0,0.08 0,0.17 0,0.25 v 77.3 c 0,15.58 12.64,28.21 28.22,28.21 h 73.02 c 1.2,-7.44 1.98,-15.01 1.98,-22.78 0,-13.97 -1.99,-27.47 -5.71,-40.23 -1.28,0.04 -2.56,0.07 -3.83,0.07 -7.62,0 -15.25,-0.84 -22.68,-2.41 -11.14,-2.03 -21.72,-6.76 -31,-12.88 11.18,0.8 21.51,2.34 32.01,2.34 0.09,0 0.17,0 0.26,0 2.12,0.05 4.25,0.08 6.37,0.08 4.78,0 9.54,-0.14 14.29,-0.42 -14.27,-35.54 -42.35,-64.04 -77.6,-78.87" />
      <path id="path374" style="fill:#b68a7d;fill-opacity:1;fill-rule:nonzero;stroke:none"
        d="m 2353.96,3872.58 c 9.28,6.12 19.86,10.85 31,12.88 7.43,1.57 15.06,2.41 22.68,2.41 1.27,0 2.55,-0.03 3.83,-0.07 -1.32,-4.5 -2.85,-8.92 -4.58,-13.22 -4.75,0.28 -9.51,0.42 -14.29,0.42 -2.12,0 -4.25,-0.03 -6.37,-0.08 -0.09,0 -0.17,0 -0.26,0 -10.5,0 -20.83,-1.54 -32.01,-2.34" />
      <path id="path376" style="fill:#fbc4ab;fill-opacity:1;fill-rule:nonzero;stroke:none"
        d="m 2613.83,3795.71 c -9.66,14.12 -15.33,31.19 -15.33,49.59 v 32.19 l 4.1,6.31 c -1.36,0.89 -2.73,1.72 -4.1,2.5 v 36.3 c 0,15.58 12.63,28.21 28.22,28.21 h 73.02 c 1.19,-7.44 1.98,-15.01 1.98,-22.78 0,-14.24 -2.08,-28 -5.94,-40.98 -10.58,-1.2 -20.97,-3.8 -30.82,-7.64 -10.42,-4.1 -20.43,-9.49 -28.82,-17.03 18.78,4.34 36.61,8.26 54.57,10.44 -14.48,-34.71 -42.22,-62.52 -76.88,-77.11" />
      <path id="path378" style="fill:#b68a7d;fill-opacity:1;fill-rule:nonzero;stroke:none"
        d="m 2636.14,3862.38 c 8.39,7.54 18.4,12.93 28.82,17.03 9.85,3.84 20.24,6.44 30.82,7.64 -1.44,-4.86 -3.14,-9.6 -5.07,-14.23 -17.96,-2.18 -35.79,-6.1 -54.57,-10.44" />
      <path id="path380" style="fill:#a0ab93;fill-opacity:1;fill-rule:nonzero;stroke:none"
        d="m 2598.5,3877.49 v 8.81 c 1.37,-0.78 2.74,-1.61 4.1,-2.5 l -4.1,-6.31" />
      <path id="path382" style="fill:#3c5844;fill-opacity:1;fill-rule:nonzero;stroke:none"
        d="m 2714.6,3757.31 v 9.38 h -29.12 c -21.74,0 -41.34,8.78 -55.59,23.02 -14.24,14.26 -23.02,33.85 -23.03,55.59 v 77.3 c 0.02,10.4 8.44,18.82 18.84,18.84 h 148.68 c 10.4,-0.02 18.83,-8.44 18.85,-18.84 v -77.3 c -0.01,-21.74 -8.79,-41.33 -23.03,-55.59 -14.26,-14.24 -33.86,-23.02 -55.6,-23.02 v -9.38 -9.37 c 53.78,0.01 97.36,43.58 97.37,97.36 v 77.3 c -0.01,20.76 -16.83,37.58 -37.59,37.58 H 2625.7 c -20.76,0 -37.58,-16.82 -37.58,-37.58 v -77.3 c 0,-53.78 43.59,-97.35 97.36,-97.36 h 29.12 v 9.37" />
      <path id="path384" style="fill:#3c5844;fill-opacity:1;fill-rule:nonzero;stroke:none"
        d="m 2401.95,3757.31 v -9.37 h 29.13 c 53.78,0.01 97.36,43.58 97.36,97.36 v 77.3 c 0,20.76 -16.82,37.58 -37.58,37.58 h -148.68 c -20.76,0 -37.58,-16.82 -37.59,-37.58 v -77.3 c 0.01,-53.78 43.59,-97.35 97.36,-97.36 v 9.37 9.38 c -21.74,0 -41.33,8.78 -55.59,23.02 -14.24,14.26 -23.02,33.85 -23.02,55.59 v 77.3 c 0.02,10.4 8.44,18.82 18.84,18.84 h 148.68 c 10.4,-0.02 18.82,-8.44 18.84,-18.84 v -77.3 c 0,-21.74 -8.78,-41.33 -23.03,-55.59 -14.25,-14.24 -33.85,-23.02 -55.59,-23.02 h -29.13 v -9.38" />
      <path id="path386" style="fill:#3c5844;fill-opacity:1;fill-rule:nonzero;stroke:none"
        d="m 2802.6,3893.98 h 44.5781 v 18.7383 H 2802.6 Z" />
      <path id="path388" style="fill:#c3b5a3;fill-opacity:1;fill-rule:nonzero;stroke:none"
        d="m 2553.6,2338.15 h 9.3672 v 713.453 H 2553.6 Z" />
      <path id="path390" style="fill:#fef3df;fill-opacity:1;fill-rule:nonzero;stroke:none"
        d="m 2558.28,3087.22 c 3.08,-27.17 5.79,-54.28 9.79,-81.22 3.56,-26.97 7.74,-53.82 12.8,-80.37 5.41,-26.41 11.1,-52.96 20.84,-77.27 4.86,-11.87 10.74,-23.96 18.72,-31.12 3.98,-3.55 7.86,-5.05 11.83,-4.8 4.06,0.39 8.83,2.63 13.38,6.2 9.29,7.29 17.32,17.51 22.46,28.28 5.23,10.95 7.41,23.19 7.35,35.68 -0.05,25.22 -9.71,50.51 -21.43,74.22 -12,23.77 -27.08,46.27 -43.28,67.93 -16.04,21.87 -33.91,42.4 -52.46,62.47 z m 0,0 c 42.08,-34.78 80.5,-75.14 108.58,-123.5 13.79,-24.14 25,-51.06 26.27,-80.72 0.61,-14.72 -2.1,-30 -8.43,-43.77 -6.5,-13.77 -15.6,-25.73 -27.63,-35.44 -6.18,-4.72 -13.99,-9.05 -23.61,-9.85 -4.81,-0.22 -9.73,0.61 -14.11,2.39 -4.27,1.9 -8.05,4.41 -11.13,7.25 -12.12,11.59 -17.88,25.15 -23.07,38.39 -9.52,26.79 -14.88,53.96 -18.7,81.24 -7.67,54.52 -9.68,109.36 -8.17,164.01" />
      <path id="path392" style="fill:#fef3df;fill-opacity:1;fill-rule:nonzero;stroke:none"
        d="m 2558.28,3087.22 c 1.51,-54.65 -0.5,-109.49 -8.17,-164.01 -3.82,-27.28 -9.17,-54.45 -18.7,-81.24 -5.2,-13.24 -10.95,-26.8 -23.07,-38.39 -3.08,-2.84 -6.87,-5.35 -11.13,-7.25 -4.39,-1.78 -9.3,-2.61 -14.11,-2.39 -9.62,0.8 -17.43,5.13 -23.61,9.85 -12.04,9.71 -21.14,21.67 -27.63,35.44 -6.32,13.77 -9.04,29.05 -8.44,43.77 1.28,29.66 12.48,56.58 26.28,80.72 28.08,48.36 66.49,88.72 108.58,123.5 z m 0,0 c -18.54,-20.07 -36.42,-40.6 -52.46,-62.47 -16.21,-21.66 -31.28,-44.16 -43.29,-67.93 -11.71,-23.71 -21.37,-49 -21.42,-74.22 -0.06,-12.49 2.12,-24.73 7.35,-35.68 5.14,-10.77 13.16,-20.99 22.45,-28.28 4.55,-3.57 9.33,-5.81 13.39,-6.2 3.97,-0.25 7.84,1.25 11.83,4.8 7.98,7.16 13.86,19.25 18.72,31.12 9.74,24.31 15.42,50.86 20.83,77.27 5.06,26.55 9.24,53.4 12.82,80.37 3.99,26.94 6.7,54.05 9.78,81.22" />
      <path id="path394" style="fill:#fef3df;fill-opacity:1;fill-rule:nonzero;stroke:none"
        d="m 2558.28,3087.22 c 10.51,-17.44 18.65,-36.21 26.22,-55.1 3.89,-9.43 7.03,-19.1 10.59,-28.66 3.3,-9.63 6.2,-19.39 9.29,-29.1 11.8,-39.01 20.22,-78.9 27.22,-118.96 6.86,-40.11 11.19,-80.56 14.03,-121.07 1.39,-20.26 1.82,-40.58 2.5,-60.84 -0.07,-20.32 -0.2,-40.61 -1.12,-60.89 -3.24,20.1 -5.57,40.19 -8.06,60.24 l -7.88,60.04 c -3.22,19.91 -5.03,39.98 -8.54,59.81 l -4.36,29.86 -5.04,29.74 c -6.56,39.65 -14.08,79.14 -22.84,118.38 -4.63,19.54 -9.11,39.17 -14.48,58.57 -5.08,19.51 -10.79,38.83 -17.53,57.98" />
      <path id="path396" style="fill:#fef3df;fill-opacity:1;fill-rule:nonzero;stroke:none"
        d="m 2558.28,3087.22 c -6.74,-19.15 -12.45,-38.47 -17.54,-57.98 -5.37,-19.4 -9.84,-39.03 -14.47,-58.57 -8.77,-39.24 -16.28,-78.73 -22.84,-118.38 l -5.04,-29.74 -4.36,-29.86 c -3.5,-19.83 -5.32,-39.9 -8.55,-59.81 l -7.87,-60.04 c -2.49,-20.05 -4.82,-40.14 -8.06,-60.24 -0.92,20.28 -1.04,40.57 -1.12,60.89 0.67,20.26 1.11,40.58 2.5,60.84 2.83,40.51 7.17,80.96 14.03,121.07 7,40.06 15.42,79.95 27.22,118.96 3.09,9.71 5.99,19.47 9.29,29.1 3.56,9.56 6.7,19.23 10.59,28.66 7.56,18.89 15.71,37.66 26.22,55.1" />
      <path id="path398" style="fill:#a85645;fill-opacity:1;fill-rule:nonzero;stroke:none"
        d="m 3203.9,3370.82 c 0,0 0.18,-0.81 0.48,-2.34 0.88,-4.58 2.65,-15.44 2.65,-28.05 0.01,-12.36 -1.72,-26.38 -7.45,-37.82 -5.76,-11.44 -15.21,-20.35 -31.5,-23.3 -1.3,-0.23 -2.17,-1.47 -1.93,-2.78 0.23,-1.3 1.47,-2.17 2.78,-1.94 17.74,3.13 28.75,13.38 34.94,25.88 6.23,12.49 7.94,27.17 7.95,39.96 0,17.41 -3.23,31.36 -3.25,31.47 -0.3,1.29 -1.59,2.1 -2.88,1.8 -1.29,-0.3 -2.09,-1.59 -1.79,-2.88" />
      <path id="path400" style="fill:#a85645;fill-opacity:1;fill-rule:nonzero;stroke:none"
        d="m 1785.05,2120.46 -0.34,0.04 c -3.99,0.53 -42.12,6.97 -96.21,72.66 -0.84,1.03 -2.35,1.17 -3.37,0.33 -1.02,-0.84 -1.17,-2.35 -0.33,-3.37 58.29,-70.87 99.21,-74.41 99.88,-74.44 1.32,-0.11 2.48,0.88 2.58,2.2 0.1,1.32 -0.89,2.47 -2.21,2.58" />
      <path id="path402" style="fill:#3c5844;fill-opacity:1;fill-rule:nonzero;stroke:none"
        d="m 2273.51,3893.98 h 40.4492 v 18.7383 H 2273.51 Z" />
    </g>
  </g>
</svg>