<?xml version="1.0" encoding="UTF-8" standalone="no"?>
<!-- Created with Inkscape (http://www.inkscape.org/) -->

<svg
   version="1.1"
   id="svg2"
   width="538.71997"
   height="600.38666"
   viewBox="0 0 538.71997 600.38666"
   sodipodi:docname="4529820.eps"
   xmlns:inkscape="http://www.inkscape.org/namespaces/inkscape"
   xmlns:sodipodi="http://sodipodi.sourceforge.net/DTD/sodipodi-0.dtd"
   xmlns="http://www.w3.org/2000/svg"
   xmlns:svg="http://www.w3.org/2000/svg">
  <defs
     id="defs6">
    <clipPath
       clipPathUnits="userSpaceOnUse"
       id="clipPath370">
      <path
         d="m 2248.41,1893.41 c -7.16,52.64 -15.8,115.06 -25.23,182 -15.46,109.75 -29.61,207.31 -38.98,269.37 56.83,-142.5 79.07,-298.67 64.21,-451.37"
         id="path368" />
    </clipPath>
  </defs>
  <sodipodi:namedview
     id="namedview4"
     pagecolor="#ffffff"
     bordercolor="#000000"
     borderopacity="0.25"
     inkscape:showpageshadow="2"
     inkscape:pageopacity="0.0"
     inkscape:pagecheckerboard="0"
     inkscape:deskcolor="#d1d1d1" />
  <g
     id="g8"
     inkscape:groupmode="layer"
     inkscape:label="ink_ext_XXXXXX"
     transform="matrix(1.3333333,0,0,-1.3333333,0,600.38667)">
    <g
       id="g10"
       transform="scale(0.1)">
      <path
         d="m 3442.69,2063.61 -727.25,275.03 c -50.25,19.01 -75.58,75.16 -56.58,125.41 l 380.69,1006.59 c 19.01,50.26 75.15,75.59 125.41,56.59 l 461.22,-174.43 217.85,-503 -275.94,-729.61 c -19,-50.26 -75.15,-75.59 -125.4,-56.58"
         style="fill:#f3f2f1;fill-opacity:1;fill-rule:nonzero;stroke:none"
         id="path12" />
      <path
         d="m 3626.18,3352.8 -107.14,-283.3 c -17.69,-46.73 5.87,-98.96 52.61,-116.64 l 272.38,-103.06 -217.85,503"
         style="fill:#e7e8e5;fill-opacity:1;fill-rule:nonzero;stroke:none"
         id="path14" />
      <path
         d="m 3513.35,3043.23 c 0,0 -29.57,-67.35 40.11,-119.52 2.62,-1.96 5.38,-3.73 8.2,-5.4 33.15,-19.81 251.55,-150.01 253.58,-144.64 2.2,5.82 28.79,76.13 28.79,76.13 l -272.4,103.02 c 0,0 -67.13,28.05 -58.28,90.41"
         style="fill:#dadbd8;fill-opacity:1;fill-rule:nonzero;stroke:none"
         id="path16" />
      <path
         d="m 3462.43,3104.13 c -1.38,-3.64 -77.82,21.89 -170.72,57.02 -92.93,35.15 -167.11,66.58 -165.74,70.22 1.38,3.64 77.81,-21.89 170.72,-57.03 92.91,-35.13 167.11,-66.57 165.74,-70.21"
         style="fill:#dadbd8;fill-opacity:1;fill-rule:nonzero;stroke:none"
         id="path18" />
      <path
         d="m 3619.14,2861.77 c -1.38,-3.63 -126.46,40.3 -279.35,98.12 -152.95,57.84 -275.77,107.67 -274.39,111.31 1.37,3.64 126.43,-40.29 279.37,-98.13 152.89,-57.82 275.74,-107.65 274.37,-111.3"
         style="fill:#dadbd8;fill-opacity:1;fill-rule:nonzero;stroke:none"
         id="path20" />
      <path
         d="m 3618.42,2709.16 c -1.37,-3.64 -137.62,44.52 -304.28,107.55 -166.71,63.04 -300.71,117.09 -299.33,120.73 1.38,3.64 137.6,-44.5 304.32,-107.56 166.66,-63.02 300.67,-117.08 299.29,-120.72"
         style="fill:#dadbd8;fill-opacity:1;fill-rule:nonzero;stroke:none"
         id="path22" />
      <path
         d="m 3570.7,2582.97 c -1.38,-3.64 -137.63,44.51 -304.29,107.54 -166.71,63.05 -300.7,117.1 -299.32,120.74 1.37,3.64 137.59,-44.5 304.31,-107.56 166.66,-63.02 300.68,-117.08 299.3,-120.72"
         style="fill:#dadbd8;fill-opacity:1;fill-rule:nonzero;stroke:none"
         id="path24" />
      <path
         d="m 3522.97,2456.78 c -1.37,-3.64 -137.62,44.51 -304.28,107.54 -166.72,63.05 -300.71,117.1 -299.33,120.74 1.38,3.64 137.6,-44.51 304.32,-107.56 166.65,-63.03 300.67,-117.08 299.29,-120.72"
         style="fill:#dadbd8;fill-opacity:1;fill-rule:nonzero;stroke:none"
         id="path26" />
      <path
         d="m 3475.25,2330.58 c -1.38,-3.63 -137.63,44.52 -304.29,107.55 -166.72,63.05 -300.7,117.1 -299.32,120.73 1.37,3.65 137.59,-44.5 304.31,-107.55 166.65,-63.03 300.68,-117.08 299.3,-120.73"
         style="fill:#dadbd8;fill-opacity:1;fill-rule:nonzero;stroke:none"
         id="path28" />
      <path
         d="M 1540.8,1614.86 582.082,1279.14 c -33.172,-11.61 -69.469,5.86 -81.086,39.03 L 19.9766,2691.82 c -11.60941,33.17 5.8593,69.47 39.0273,81.09 l 958.7161,335.71 c 33.17,11.62 69.47,-5.85 81.09,-39.02 l 481.01,-1373.65 c 11.62,-33.17 -5.85,-69.47 -39.02,-81.09"
         style="fill:#e7e8e5;fill-opacity:1;fill-rule:nonzero;stroke:none"
         id="path30" />
      <path
         d="M 1506.85,1661.68 579.41,1336.92 102.633,2698.47 1030.06,3023.23 1506.85,1661.68"
         style="fill:#dadbd8;fill-opacity:1;fill-rule:nonzero;stroke:none"
         id="path32" />
      <path
         d="M 1481.15,1694.12 553.719,1369.36 86.0352,2704.91 1013.47,3029.67 1481.15,1694.12"
         style="fill:#fafaf9;fill-opacity:1;fill-rule:nonzero;stroke:none"
         id="path34" />
      <path
         d="m 1481.15,1694.12 c -3.92,11.16 -192.24,547.33 -468.93,1335.11 l 1.69,-0.81 C 732.633,2929.88 417.941,2819.64 86.625,2703.57 l -0.1055,-0.04 0.8946,1.86 C 262.223,2203.72 424.93,1740.44 554.824,1369.75 l -1.5,0.71 c 564.116,196.79 918.726,320.49 927.826,323.66 -9.08,-3.19 -363.41,-127.74 -927.048,-325.88 l -1.11,-0.39 -0.39,1.12 C 422.719,1739.64 260.375,2202.95 84.6602,2704.43 l -0.4805,1.37 1.3789,0.49 0.1055,0.04 C 417.008,2822.3 731.73,2932.46 1013.03,3030.93 l 1.26,0.44 0.44,-1.26 c 275.21,-788.3 462.52,-1324.83 466.42,-1335.99"
         style="fill:#dadbd8;fill-opacity:1;fill-rule:nonzero;stroke:none"
         id="path36" />
      <path
         d="m 1152.16,1578.92 c 0,0 206.54,174.18 242.33,355.6 0,0 -57.33,-89.89 -176.56,-106.31 0,0 -4.14,-190.46 -65.77,-249.29"
         style="fill:#dadbd8;fill-opacity:1;fill-rule:nonzero;stroke:none"
         id="path38" />
      <path
         d="m 442.754,2293.95 -48.836,-17.1 c -17.82,-6.24 -37.324,3.14 -43.566,20.96 l -17.098,48.84 c -6.242,17.82 3.144,37.33 20.965,43.57 l 48.84,17.1 c 17.816,6.24 37.324,-3.15 43.562,-20.97 l 17.102,-48.84 c 6.238,-17.82 -3.145,-37.32 -20.969,-43.56"
         style="fill:#e7e8e5;fill-opacity:1;fill-rule:nonzero;stroke:none"
         id="path40" />
      <path
         d="m 397.102,2323.24 -0.09,-0.03 -2.242,0.25 -22.364,12.97 c -1.336,0.77 -1.789,2.49 -1.015,3.83 0.777,1.32 2.492,1.79 3.828,1.01 l 19.719,-11.43 23.621,50.52 c 0.656,1.4 2.324,2.01 3.718,1.35 1.399,-0.65 2.004,-2.32 1.352,-3.72 l -24.918,-53.29 -1.609,-1.46"
         style="fill:#ffffff;fill-opacity:1;fill-rule:nonzero;stroke:none"
         id="path42" />
      <path
         d="m 1037.55,2614.02 c 0.27,-0.77 -120.183,-43.63 -268.984,-95.74 -148.863,-52.13 -269.714,-93.76 -269.976,-92.99 -0.27,0.75 120.152,43.61 269.008,95.74 148.808,52.11 269.692,93.74 269.952,92.99"
         style="fill:#dadbd8;fill-opacity:1;fill-rule:nonzero;stroke:none"
         id="path44" />
      <path
         d="m 754.703,2421.88 c 0.067,-0.18 -3.047,-1.48 -8.734,-3.66 -6.172,-2.28 -14.324,-5.3 -24.18,-8.96 -20.461,-7.44 -48.789,-17.53 -80.137,-28.51 -31.359,-10.98 -59.8,-20.77 -80.437,-27.71 -9.981,-3.3 -18.231,-6.02 -24.481,-8.09 -5.8,-1.84 -9.043,-2.78 -9.113,-2.58 -0.062,0.19 3.047,1.48 8.738,3.66 6.172,2.28 14.321,5.3 24.18,8.95 20.457,7.45 48.789,17.54 80.149,28.52 31.347,10.98 59.785,20.76 80.421,27.71 9.981,3.29 18.231,6.02 24.489,8.08 5.8,1.85 9.043,2.78 9.105,2.59"
         style="fill:#dadbd8;fill-opacity:1;fill-rule:nonzero;stroke:none"
         id="path46" />
      <path
         d="m 1050.42,2577.27 c 0.26,-0.76 -120.182,-43.63 -268.99,-95.74 -148.856,-52.13 -269.707,-93.75 -269.973,-92.99 -0.266,0.75 120.148,43.62 269.012,95.74 148.808,52.11 269.681,93.74 269.951,92.99"
         style="fill:#dadbd8;fill-opacity:1;fill-rule:nonzero;stroke:none"
         id="path48" />
      <path
         d="m 512.438,2094.95 -48.84,-17.1 c -17.817,-6.24 -37.325,3.15 -43.563,20.97 l -17.101,48.84 c -6.239,17.82 3.144,37.32 20.968,43.56 l 48.836,17.1 c 17.825,6.24 37.325,-3.14 43.567,-20.96 l 17.097,-48.84 c 6.243,-17.82 -3.144,-37.33 -20.964,-43.57"
         style="fill:#e7e8e5;fill-opacity:1;fill-rule:nonzero;stroke:none"
         id="path50" />
      <path
         d="m 466.781,2124.25 -0.086,-0.03 -2.242,0.25 -22.363,12.96 c -1.336,0.78 -1.793,2.49 -1.016,3.83 0.778,1.34 2.485,1.8 3.824,1.02 l 19.723,-11.43 23.621,50.52 c 0.656,1.4 2.324,2 3.719,1.35 1.398,-0.66 2.004,-2.33 1.352,-3.72 l -24.918,-53.29 -1.614,-1.46"
         style="fill:#ffffff;fill-opacity:1;fill-rule:nonzero;stroke:none"
         id="path52" />
      <path
         d="m 1107.23,2415.02 c 0.27,-0.76 -120.175,-43.63 -268.984,-95.74 -148.859,-52.12 -269.711,-93.75 -269.973,-92.99 -0.265,0.76 120.149,43.62 269.008,95.75 148.809,52.1 269.689,93.74 269.949,92.98"
         style="fill:#dadbd8;fill-opacity:1;fill-rule:nonzero;stroke:none"
         id="path54" />
      <path
         d="m 824.387,2222.89 c 0.066,-0.19 -3.047,-1.48 -8.739,-3.66 -6.171,-2.28 -14.32,-5.3 -24.179,-8.95 -20.457,-7.45 -48.789,-17.54 -80.133,-28.52 -31.359,-10.99 -59.801,-20.77 -80.438,-27.72 -9.976,-3.29 -18.23,-6.01 -24.48,-8.08 -5.801,-1.85 -9.043,-2.77 -9.113,-2.59 -0.063,0.2 3.047,1.49 8.738,3.66 6.168,2.29 14.32,5.31 24.176,8.96 20.461,7.44 48.789,17.54 80.152,28.52 31.348,10.98 59.785,20.77 80.422,27.71 9.98,3.29 18.23,6.01 24.48,8.08 5.805,1.85 9.047,2.78 9.114,2.59"
         style="fill:#dadbd8;fill-opacity:1;fill-rule:nonzero;stroke:none"
         id="path56" />
      <path
         d="m 1120.1,2378.27 c 0.27,-0.76 -120.178,-43.62 -268.987,-95.73 -148.855,-52.13 -269.707,-93.76 -269.976,-93 -0.262,0.76 120.152,43.63 269.015,95.75 148.805,52.1 269.678,93.75 269.948,92.98"
         style="fill:#dadbd8;fill-opacity:1;fill-rule:nonzero;stroke:none"
         id="path58" />
      <path
         d="m 582.121,1895.96 -48.84,-17.1 c -17.816,-6.24 -37.324,3.14 -43.562,20.97 l -17.102,48.83 c -6.238,17.83 3.145,37.33 20.969,43.57 l 48.836,17.1 c 17.816,6.24 37.324,-3.15 43.566,-20.97 l 17.098,-48.84 c 6.242,-17.81 -3.145,-37.32 -20.965,-43.56"
         style="fill:#e7e8e5;fill-opacity:1;fill-rule:nonzero;stroke:none"
         id="path60" />
      <path
         d="m 536.469,1925.26 -0.09,-0.03 -2.242,0.25 -22.364,12.96 c -1.339,0.78 -1.793,2.49 -1.015,3.83 0.777,1.34 2.484,1.79 3.824,1.01 l 19.719,-11.42 23.625,50.51 c 0.652,1.4 2.32,2.01 3.715,1.35 1.402,-0.65 2.007,-2.32 1.351,-3.72 l -24.914,-53.29 -1.609,-1.45"
         style="fill:#ffffff;fill-opacity:1;fill-rule:nonzero;stroke:none"
         id="path62" />
      <path
         d="m 1176.91,2216.03 c 0.27,-0.76 -120.18,-43.64 -268.98,-95.74 -148.864,-52.12 -269.711,-93.75 -269.977,-92.99 -0.265,0.76 120.152,43.62 269.016,95.74 148.801,52.11 269.681,93.75 269.941,92.99"
         style="fill:#dadbd8;fill-opacity:1;fill-rule:nonzero;stroke:none"
         id="path64" />
      <path
         d="m 894.066,2023.9 c 0.071,-0.2 -3.046,-1.49 -8.734,-3.66 -6.172,-2.29 -14.32,-5.31 -24.18,-8.96 -20.457,-7.44 -48.789,-17.54 -80.136,-28.51 -31.356,-10.99 -59.801,-20.78 -80.434,-27.72 -9.98,-3.29 -18.234,-6.01 -24.484,-8.09 -5.801,-1.84 -9.043,-2.77 -9.11,-2.58 -0.062,0.19 3.047,1.48 8.735,3.66 6.172,2.28 14.32,5.3 24.179,8.95 20.461,7.45 48.789,17.54 80.153,28.53 31.347,10.98 59.785,20.76 80.418,27.7 9.98,3.3 18.234,6.02 24.484,8.09 5.805,1.85 9.047,2.77 9.109,2.59"
         style="fill:#dadbd8;fill-opacity:1;fill-rule:nonzero;stroke:none"
         id="path66" />
      <path
         d="m 1189.78,2179.28 c 0.27,-0.76 -120.17,-43.62 -268.983,-95.73 -148.859,-52.13 -269.707,-93.76 -269.977,-93 -0.261,0.76 120.157,43.62 269.016,95.74 148.804,52.11 269.684,93.75 269.944,92.99"
         style="fill:#dadbd8;fill-opacity:1;fill-rule:nonzero;stroke:none"
         id="path68" />
      <path
         d="m 651.801,1696.96 -48.836,-17.09 c -17.817,-6.25 -37.324,3.14 -43.567,20.96 l -17.097,48.84 c -6.242,17.82 3.144,37.32 20.965,43.56 l 48.839,17.1 c 17.821,6.24 37.325,-3.14 43.563,-20.96 l 17.102,-48.84 c 6.238,-17.81 -3.145,-37.32 -20.969,-43.57"
         style="fill:#e7e8e5;fill-opacity:1;fill-rule:nonzero;stroke:none"
         id="path70" />
      <path
         d="m 606.148,1726.26 -0.089,-0.03 -2.239,0.26 -22.363,12.96 c -1.34,0.78 -1.793,2.49 -1.016,3.82 0.77,1.34 2.489,1.79 3.821,1.02 l 19.722,-11.43 23.618,50.52 c 0.656,1.4 2.332,2 3.722,1.35 1.403,-0.66 2.008,-2.32 1.352,-3.72 l -24.918,-53.29 -1.61,-1.46"
         style="fill:#ffffff;fill-opacity:1;fill-rule:nonzero;stroke:none"
         id="path72" />
      <path
         d="m 1246.6,2017.03 c 0.26,-0.76 -120.18,-43.62 -268.987,-95.73 -148.863,-52.13 -269.711,-93.76 -269.976,-93 -0.27,0.76 120.152,43.63 269.008,95.74 148.805,52.11 269.685,93.75 269.955,92.99"
         style="fill:#dadbd8;fill-opacity:1;fill-rule:nonzero;stroke:none"
         id="path74" />
      <path
         d="m 963.75,1824.9 c 0.07,-0.19 -3.047,-1.48 -8.734,-3.66 -6.172,-2.28 -14.321,-5.3 -24.18,-8.95 -20.457,-7.44 -48.789,-17.54 -80.137,-28.52 -31.359,-10.98 -59.801,-20.77 -80.433,-27.71 -9.981,-3.29 -18.235,-6.02 -24.485,-8.09 -5.801,-1.85 -9.043,-2.77 -9.109,-2.59 -0.067,0.2 3.047,1.49 8.734,3.66 6.172,2.29 14.321,5.31 24.18,8.96 20.457,7.45 48.789,17.54 80.152,28.53 31.348,10.97 59.785,20.76 80.418,27.7 9.981,3.29 18.235,6.03 24.485,8.09 5.804,1.84 9.047,2.77 9.109,2.58"
         style="fill:#dadbd8;fill-opacity:1;fill-rule:nonzero;stroke:none"
         id="path76" />
      <path
         d="m 1259.46,1980.29 c 0.27,-0.77 -120.17,-43.63 -268.98,-95.74 -148.859,-52.13 -269.707,-93.76 -269.976,-93 -0.266,0.77 120.152,43.63 269.012,95.75 148.804,52.11 269.684,93.75 269.944,92.99"
         style="fill:#dadbd8;fill-opacity:1;fill-rule:nonzero;stroke:none"
         id="path78" />
      <path
         d="m 191.074,2835.02 24.485,-69.91 c 14.203,-40.57 58.601,-61.94 99.171,-47.74 l 512.977,179.64 c 40.566,14.2 61.938,58.61 47.727,99.17 l -24.43,69.78 -659.93,-230.94"
         style="fill:#dadbd8;fill-opacity:1;fill-rule:nonzero;stroke:none"
         id="path80" />
      <path
         d="m 488.883,3041.12 c -23.414,-8.19 -35.793,-33.91 -27.594,-57.32 8.199,-23.42 33.918,-35.79 57.328,-27.59 23.41,8.2 35.789,33.91 27.59,57.32 -8.199,23.42 -33.91,35.79 -57.324,27.59 z m 38.984,-111.33 c -37.972,-13.29 -79.691,6.78 -92.992,44.76 -13.297,37.97 6.781,79.69 44.758,92.99 37.976,13.3 79.687,-6.78 92.988,-44.76 13.297,-37.97 -6.777,-79.69 -44.754,-92.99"
         style="fill:#dadbd8;fill-opacity:1;fill-rule:nonzero;stroke:none"
         id="path82" />
      <path
         d="m 937.891,2748.43 c 0.464,-1.33 -134.793,-49.9 -302.071,-108.48 -167.34,-58.6 -303.32,-105.01 -303.789,-103.67 -0.465,1.32 134.766,49.88 302.106,108.48 167.273,58.58 303.289,105 303.754,103.67"
         style="fill:#dadbd8;fill-opacity:1;fill-rule:nonzero;stroke:none"
         id="path84" />
      <path
         d="m 764.66,2723.56 c 0.461,-1.33 -59.078,-23.39 -132.976,-49.27 -73.926,-25.88 -134.207,-45.79 -134.672,-44.46 -0.469,1.33 59.062,23.38 132.984,49.27 73.902,25.88 134.199,45.78 134.664,44.46"
         style="fill:#dadbd8;fill-opacity:1;fill-rule:nonzero;stroke:none"
         id="path86" />
      <path
         d="m 3429.74,697.23 c 35.92,18.532 78.2,20.942 118.08,14.34 21.42,-3.531 43.75,-9.949 58.33,-26.031 14.58,-16.098 17.33,-44.41 0.6,-58.23 -9.97,-8.239 -23.85,-9.489 -36.78,-9.34 -31.21,0.371 -65.84,5.871 -90.78,-12.918 -14.23,-10.711 -23.7,-28.52 -40.71,-33.789 -16.64,-5.153 -35.42,4.656 -44.25,19.679 -8.82,15.02 -9.12,33.797 -5,50.719 0,0 4.33,36.91 40.51,55.57"
         style="fill:#f2575d;fill-opacity:1;fill-rule:nonzero;stroke:none"
         id="path88" />
      <path
         d="m 3347.46,856.082 c 21.96,-31.371 64.65,-20.992 84.43,-1.852 19.8,19.149 28.15,46.899 35.77,73.36 17.4,60.461 34.94,123.89 22,185.46 -3.86,18.4 -10.75,36.76 -23.68,50.41 -12.94,13.66 -32.82,21.79 -51.01,16.98 -21.52,-5.69 -34.9,-26.77 -44.56,-46.82 -28.42,-58.94 -43.47,-124.28 -43.69,-189.71 -0.1,-30.558 3.5,-62.609 20.74,-87.828"
         style="fill:#f2575d;fill-opacity:1;fill-rule:nonzero;stroke:none"
         id="path90" />
      <path
         d="m 3287.14,811.07 c 23.85,28.301 28.37,69.578 17.77,105.032 -10.62,35.437 -34.58,65.609 -62.21,90.228 -32.39,28.87 -70.47,51.34 -111.4,65.72 -16.1,5.67 -33.09,10.14 -50.09,8.52 -17,-1.62 -34.11,-10.31 -42.04,-25.44 -11.72,-22.35 -0.48,-49.47 11.68,-71.599 21.41,-38.98 45.89,-76.269 73.16,-111.422 21.92,-28.269 47.05,-56.16 80.47,-68.929 33.42,-12.782 68.13,-11.282 85.85,11.898"
         style="fill:#f2575d;fill-opacity:1;fill-rule:nonzero;stroke:none"
         id="path92" />
      <path
         d="m 3345.97,382.922 c 0.41,-0.031 1.08,5.047 1.98,14.25 1.01,10.367 2.28,23.398 3.79,38.898 1.81,16.36 4.2,35.852 8.75,57.051 4.54,21.16 11.62,44.09 20.74,67.34 9.43,23.121 20.94,44.121 34.38,60.93 13.35,16.871 28.88,29.089 43.48,36.14 14.54,7.188 27.59,10.098 36.61,11.399 9.09,0.929 14.18,1.648 14.19,2.05 0,0.411 -5.1,0.481 -14.45,0.219 -9.25,-0.609 -22.84,-2.961 -38.17,-9.929 -15.38,-6.821 -31.85,-19.231 -45.86,-36.45 -14.11,-17.16 -26.03,-38.629 -35.64,-62.16 -9.27,-23.66 -16.25,-46.828 -20.59,-68.441 -4.32,-21.578 -6.29,-41.27 -7.59,-57.77 -1.23,-16.519 -1.7,-29.898 -1.92,-39.14 -0.21,-9.25 -0.1,-14.368 0.3,-14.387"
         style="fill:#17282f;fill-opacity:1;fill-rule:nonzero;stroke:none"
         id="path94" />
      <path
         d="m 3348.65,412.84 c 0.2,0.012 0.33,2.301 0.38,6.621 -0.01,4.98 -0.03,11.23 -0.05,18.91 -0.04,16.418 -0.04,40.168 0.84,69.488 1.46,58.672 6.5,121.789 16.26,210.789 9.24,83.704 21.64,181.102 34.73,244.422 2.8,14.399 5.62,27.36 8.29,38.71 2.54,11.37 4.69,21.18 6.78,29.11 1.8,7.47 3.27,13.55 4.43,18.38 0.95,4.23 1.35,6.47 1.15,6.52 -0.19,0.06 -0.98,-2.07 -2.29,-6.19 -1.45,-4.76 -3.27,-10.76 -5.49,-18.12 -2.44,-7.87 -4.93,-17.61 -7.79,-28.94 -2.96,-11.302 -6.08,-24.231 -9.16,-38.599 -12.95,-57.39 -26.65,-137.582 -36.5,-226.8 -9.78,-89.18 -14.17,-170.391 -14.56,-229.2 -0.35,-29.39 0.27,-53.203 1.02,-69.632 0.47,-7.668 0.85,-13.93 1.16,-18.887 0.33,-4.32 0.59,-6.594 0.8,-6.582"
         style="fill:#17282f;fill-opacity:1;fill-rule:nonzero;stroke:none"
         id="path96" />
      <path
         d="m 3349.04,569.469 c 0.41,0.011 0.34,7.043 -0.14,19.761 -0.72,12.7 -2.47,31.051 -6.04,53.532 -3.79,22.418 -9.09,49.047 -17.42,77.968 -3.6,13.239 -12.08,44.93 -32.6,92.282 -27.05,64.168 -63.8,116.617 -95.76,149.117 -7.5,8.621 -15.85,14.84 -22.53,20.941 -3.46,2.918 -6.52,5.84 -9.63,8.141 -3.13,2.16 -6.05,4.168 -8.74,6.027 -10.52,7.202 -16.42,10.992 -16.63,10.652 -0.95,-1.29 23.56,-15.71 54.51,-48.64 30.83,-32.852 66.55,-84.949 93.38,-148.57 14.96,-34.52 25.39,-65.301 32.79,-91.43 8.55,-28.648 14.24,-55.012 18.53,-77.211 4.08,-22.25 6.44,-40.418 7.87,-53 1.17,-12.59 2.01,-19.59 2.41,-19.57"
         style="fill:#17282f;fill-opacity:1;fill-rule:nonzero;stroke:none"
         id="path98" />
      <path
         d="m 3197.65,293.191 15.7,-215.0191 h 276.23 l 15.69,215.0191 h -307.62"
         style="fill:#17282f;fill-opacity:1;fill-rule:nonzero;stroke:none"
         id="path100" />
      <path
         d="m 3170.97,377.93 v -84.739 h 367.26 v 84.739 h -367.26"
         style="fill:#17282f;fill-opacity:1;fill-rule:nonzero;stroke:none"
         id="path102" />
      <path
         d="m 3170.97,86.3984 v -23.5 h 361.18 v 23.5 h -361.18"
         style="fill:#33535f;fill-opacity:1;fill-rule:nonzero;stroke:none"
         id="path104" />
      <path
         d="m 3205.14,21.5508 -16.91,41.3476 H 3519 l -19.74,-41.3476 h -294.12"
         style="fill:#33535f;fill-opacity:1;fill-rule:nonzero;stroke:none"
         id="path106" />
      <path
         d="m 3500.14,222.91 c 0.06,-0.051 -0.38,-0.719 -1.29,-1.969 -1.09,-1.461 -2.46,-3.261 -4.13,-5.48 -3.92,-5.02 -9.3,-11.91 -16.09,-20.602 l -0.71,-0.898 -0.7,0.949 c -10.11,13.988 -23.62,32.68 -39.53,54.68 h 2.28 c -11.76,-16.66 -24.86,-35.199 -38.93,-55.121 l -1.22,-1.719 -1.36,1.629 c -14.36,17.09 -29.97,35.641 -46.16,54.922 l 2.66,0.027 c -0.8,-1.008 -1.67,-2.098 -2.54,-3.199 -14.32,-17.938 -28.17,-35.309 -41.27,-51.731 l -1.38,-1.726 -1.27,1.789 c -14.01,19.828 -27.11,38.348 -38.94,55.098 l 2.26,-0.11 c -19.19,-21.859 -35.47,-40.41 -47.96,-54.629 l -0.85,-0.98 -0.64,1.09 c -6.33,10.629 -11.37,19.101 -15.02,25.242 -1.57,2.726 -2.84,4.937 -3.86,6.707 -0.84,1.543 -1.25,2.351 -1.17,2.402 0.07,0.039 0.62,-0.679 1.61,-2.133 1.11,-1.699 2.52,-3.839 4.26,-6.457 3.84,-6.043 9.13,-14.351 15.76,-24.781 l -1.49,0.129 c 12.28,14.402 28.3,33.172 47.18,55.301 l 1.2,1.398 1.07,-1.508 c 11.94,-16.671 25.16,-35.109 39.29,-54.839 l -2.65,0.07 c 13.08,16.437 26.89,33.84 41.18,51.809 0.87,1.101 1.74,2.191 2.54,3.199 l 1.31,1.652 1.36,-1.609 c 16.14,-19.313 31.7,-37.91 46.02,-55.032 l -2.58,-0.109 c 14.2,19.809 27.44,38.27 39.31,54.828 l 1.15,1.61 1.13,-1.61 c 15.57,-22.23 28.8,-41.117 38.7,-55.258 l -1.41,0.039 c 7.05,8.461 12.66,15.168 16.74,20.071 1.82,2.097 3.29,3.808 4.48,5.179 1.04,1.161 1.59,1.731 1.66,1.68"
         style="fill:#dadbd8;fill-opacity:1;fill-rule:nonzero;stroke:none"
         id="path108" />
      <path
         d="m 3509.12,294.602 c 0,-0.954 -69.22,-1.723 -154.58,-1.723 -85.39,0 -154.58,0.769 -154.58,1.723 0,0.949 69.19,1.718 154.58,1.718 85.36,0 154.58,-0.769 154.58,-1.718"
         style="fill:#33535f;fill-opacity:1;fill-rule:nonzero;stroke:none"
         id="path110" />
      <path
         d="m 3523.06,60.5898 c 0,-0.9492 -75.21,-1.7187 -167.99,-1.7187 -92.79,0 -167.99,0.7695 -167.99,1.7187 0,0.9415 75.2,1.7188 167.99,1.7188 92.78,0 167.99,-0.7773 167.99,-1.7188"
         style="fill:#17282f;fill-opacity:1;fill-rule:nonzero;stroke:none"
         id="path112" />
      <path
         d="m 798.195,746.559 c -0.757,-0.93 -7.062,2.863 -14.082,8.472 -7.023,5.629 -12.105,10.949 -11.347,11.899 0.754,0.929 7.058,-2.86 14.082,-8.481 7.019,-5.621 12.101,-10.937 11.347,-11.89"
         style="fill:#17282f;fill-opacity:1;fill-rule:nonzero;stroke:none"
         id="path114" />
      <path
         d="m 989.758,1032.89 c 1.156,26.76 1.914,54.19 -6.535,79.6 -8.446,25.41 -28.035,48.78 -54.258,54.21 -29.926,6.2 -60.59,-12.69 -77.36,-38.24 -16.765,-25.55 -22.531,-56.57 -27.488,-86.73 -34.133,-207.8 -46.73,-419.128 -37.539,-629.519 l 122.461,-17.172 c 53.785,219.75 70.941,411.832 80.719,637.851"
         style="fill:#33535f;fill-opacity:1;fill-rule:nonzero;stroke:none"
         id="path116" />
      <path
         d="m 911.969,1167.65 c 0.066,-0.04 -0.121,-0.7 -0.559,-1.96 -0.539,-1.5 -1.211,-3.32 -2.019,-5.55 -1.996,-5.18 -4.723,-12.24 -8.161,-21.15 -1.707,-4.61 -3.976,-9.6 -5.804,-15.31 -1.832,-5.72 -3.821,-11.91 -5.942,-18.54 -2.148,-6.67 -4.441,-13.78 -6.867,-21.3 -1.996,-7.68 -4.105,-15.78 -6.316,-24.28 -9.246,-33.94 -16.906,-75.189 -23.66,-121.189 -6.621,-46.051 -10.969,-97.062 -14.387,-150.652 -6.262,-107.297 -7.242,-204.688 -10,-275.117 -1.309,-35.223 -2.516,-63.711 -3.863,-83.383 -0.645,-9.539 -1.157,-17.098 -1.536,-22.649 -0.203,-2.359 -0.371,-4.289 -0.511,-5.879 -0.137,-1.312 -0.242,-2 -0.321,-1.992 -0.074,0 -0.117,0.692 -0.125,2.02 0.02,1.601 0.047,3.531 0.079,5.902 0.171,5.559 0.41,13.129 0.714,22.68 0.821,19.687 1.559,48.179 2.469,83.398 1.969,70.41 2.453,167.813 8.727,275.281 3.422,53.68 7.902,104.801 14.765,150.961 6.993,46.098 14.996,87.449 24.653,121.409 2.324,8.5 4.547,16.6 6.648,24.28 2.543,7.52 4.949,14.62 7.211,21.27 2.25,6.61 4.356,12.78 6.305,18.5 1.949,5.67 4.34,10.63 6.176,15.21 3.769,8.8 6.746,15.77 8.933,20.88 0.977,2.17 1.774,3.94 2.43,5.38 0.566,1.2 0.887,1.81 0.961,1.78"
         style="fill:#17282f;fill-opacity:1;fill-rule:nonzero;stroke:none"
         id="path118" />
      <path
         d="m 923.313,1167.58 c 0,0 7.507,-7.72 14.96,-25.34 7.704,-17.48 12.54,-45.29 11.165,-79.22 C 946.188,995.352 940.129,902.109 932.07,799.16 923.977,696.199 915,603.129 907.773,535.84 904.16,502.211 901.031,475 898.727,456.219 c -1.168,-9.09 -2.094,-16.297 -2.778,-21.61 -0.332,-2.25 -0.605,-4.078 -0.832,-5.597 -0.211,-1.262 -0.355,-1.91 -0.429,-1.903 -0.079,0.012 -0.079,0.672 -0.016,1.942 0.109,1.539 0.242,3.39 0.402,5.66 0.485,5.328 1.133,12.57 1.957,21.699 1.852,19.231 4.457,46.371 7.668,79.738 6.434,67.352 14.914,160.43 23.012,263.364 8.051,102.879 14.598,196.168 18.637,263.618 1.742,33.69 -2.547,61.03 -9.653,78.48 -6.855,17.56 -13.922,25.65 -13.382,25.97"
         style="fill:#17282f;fill-opacity:1;fill-rule:nonzero;stroke:none"
         id="path120" />
      <path
         d="m 1008.21,850.641 c -0.4,-1.141 -10.796,1.55 -23.206,6 -12.41,4.461 -22.141,8.988 -21.731,10.121 0.403,1.136 10.793,-1.551 23.207,-6.012 12.411,-4.441 22.14,-8.969 21.73,-10.109"
         style="fill:#17282f;fill-opacity:1;fill-rule:nonzero;stroke:none"
         id="path122" />
      <path
         d="m 1022.96,975.441 c 0.5,-1.101 -9.39,-6.601 -22.07,-12.269 -12.691,-5.692 -23.374,-9.391 -23.867,-8.293 -0.496,1.109 9.387,6.601 22.079,12.281 12.678,5.668 23.368,9.379 23.858,8.281"
         style="fill:#17282f;fill-opacity:1;fill-rule:nonzero;stroke:none"
         id="path124" />
      <path
         d="m 1015.32,1077.31 c -0.09,-1.21 -8.26,-1.63 -18.254,-0.94 -10.003,0.69 -18.043,2.23 -17.961,3.44 0.086,1.2 8.258,1.62 18.258,0.92 9.997,-0.69 18.037,-2.22 17.957,-3.42"
         style="fill:#17282f;fill-opacity:1;fill-rule:nonzero;stroke:none"
         id="path126" />
      <path
         d="m 888.945,1142.57 c -1.019,-0.64 -6.382,6.04 -11.972,14.92 -5.59,8.89 -9.297,16.61 -8.27,17.26 1.02,0.64 6.383,-6.04 11.973,-14.92 5.59,-8.89 9.297,-16.62 8.269,-17.26"
         style="fill:#17282f;fill-opacity:1;fill-rule:nonzero;stroke:none"
         id="path128" />
      <path
         d="m 847.191,1080.98 c -0.027,-1.2 -7.816,-2.02 -17.39,-1.82 -9.586,0.21 -17.328,1.35 -17.305,2.56 0.027,1.21 7.813,2.02 17.399,1.82 9.574,-0.21 17.324,-1.35 17.296,-2.56"
         style="fill:#17282f;fill-opacity:1;fill-rule:nonzero;stroke:none"
         id="path130" />
      <path
         d="m 817.207,957.738 c -0.453,-1.129 -8.648,1.133 -18.301,5.024 -9.656,3.886 -17.117,7.957 -16.664,9.078 0.449,1.121 8.641,-1.129 18.301,-5.02 9.652,-3.898 17.113,-7.961 16.664,-9.082"
         style="fill:#17282f;fill-opacity:1;fill-rule:nonzero;stroke:none"
         id="path132" />
      <path
         d="m 814.004,854.09 c 0.25,-1.18 -6.727,-3.641 -15.582,-5.488 -8.852,-1.872 -16.231,-2.422 -16.477,-1.231 -0.25,1.188 6.727,3.649 15.578,5.5 8.856,1.859 16.231,2.41 16.481,1.219"
         style="fill:#17282f;fill-opacity:1;fill-rule:nonzero;stroke:none"
         id="path134" />
      <path
         d="m 799.898,684.559 c 0.215,-1.188 -7.191,-3.5 -16.543,-5.18 -9.351,-1.668 -17.101,-2.07 -17.312,-0.879 -0.211,1.191 7.191,3.512 16.543,5.18 9.348,1.679 17.098,2.07 17.312,0.879"
         style="fill:#17282f;fill-opacity:1;fill-rule:nonzero;stroke:none"
         id="path136" />
      <path
         d="m 790.527,590.98 c 0.563,-1.07 -5.613,-5.441 -13.793,-9.769 -8.183,-4.32 -15.273,-6.973 -15.839,-5.91 -0.567,1.078 5.609,5.449 13.793,9.777 8.179,4.332 15.273,6.973 15.839,5.902"
         style="fill:#17282f;fill-opacity:1;fill-rule:nonzero;stroke:none"
         id="path138" />
      <path
         d="m 866.945,484.762 c -1.047,-0.602 -6.433,6.828 -12.023,16.59 -5.59,9.757 -9.274,18.168 -8.223,18.769 1.047,0.598 6.426,-6.832 12.024,-16.59 5.59,-9.769 9.269,-18.172 8.222,-18.769"
         style="fill:#17282f;fill-opacity:1;fill-rule:nonzero;stroke:none"
         id="path140" />
      <path
         d="M 888.996,661.281 C 889.84,660.41 883.844,653.172 875.605,645.09 867.363,637 860,631.148 859.156,632.02 c -0.851,0.859 5.145,8.109 13.387,16.191 8.238,8.078 15.605,13.93 16.453,13.07"
         style="fill:#17282f;fill-opacity:1;fill-rule:nonzero;stroke:none"
         id="path142" />
      <path
         d="m 884.117,753.898 c -0.89,-0.828 -6.449,3.743 -12.422,10.18 -5.976,6.453 -10.097,12.352 -9.215,13.172 0.891,0.82 6.45,-3.738 12.422,-10.199 5.977,-6.442 10.098,-12.332 9.215,-13.153"
         style="fill:#17282f;fill-opacity:1;fill-rule:nonzero;stroke:none"
         id="path144" />
      <path
         d="m 899.273,872.23 c 0.899,-0.8 -4.097,-7.851 -11.164,-15.73 -7.058,-7.891 -13.515,-13.629 -14.418,-12.82 -0.898,0.808 4.098,7.851 11.164,15.742 7.059,7.879 13.52,13.617 14.418,12.808"
         style="fill:#17282f;fill-opacity:1;fill-rule:nonzero;stroke:none"
         id="path146" />
      <path
         d="m 907.809,958.121 c -0.844,-0.859 -7.817,4.617 -15.571,12.231 -7.754,7.617 -13.355,14.5 -12.508,15.359 0.848,0.859 7.821,-4.609 15.575,-12.242 7.754,-7.617 13.351,-14.489 12.504,-15.348"
         style="fill:#17282f;fill-opacity:1;fill-rule:nonzero;stroke:none"
         id="path148" />
      <path
         d="m 924.574,1074.21 c 1.035,-0.61 -2.465,-8.4 -7.816,-17.38 -5.36,-8.98 -10.543,-15.75 -11.578,-15.14 -1.039,0.62 2.461,8.4 7.82,17.38 5.355,8.98 10.535,15.76 11.574,15.14"
         style="fill:#17282f;fill-opacity:1;fill-rule:nonzero;stroke:none"
         id="path150" />
      <path
         d="m 956.113,1181.8 c 1.067,-0.58 -2.035,-8.37 -6.918,-17.4 -4.882,-9.04 -9.703,-15.89 -10.761,-15.32 -1.067,0.57 2.031,8.36 6.914,17.4 4.882,9.03 9.703,15.89 10.765,15.32"
         style="fill:#17282f;fill-opacity:1;fill-rule:nonzero;stroke:none"
         id="path152" />
      <path
         d="m 991.895,1132.93 c 0.523,-1.09 -4.375,-4.52 -10.938,-7.66 -6.566,-3.14 -12.309,-4.8 -12.832,-3.72 -0.523,1.1 4.375,4.53 10.941,7.67 6.563,3.14 12.313,4.8 12.829,3.71"
         style="fill:#17282f;fill-opacity:1;fill-rule:nonzero;stroke:none"
         id="path154" />
      <path
         d="m 992.754,746.551 c -0.234,-1.129 -11.344,0.39 -23.949,5.808 -12.637,5.36 -21.422,12.309 -20.766,13.282 0.676,1.05 10.246,-4.082 22.481,-9.262 12.199,-5.25 22.527,-8.598 22.234,-9.828"
         style="fill:#17282f;fill-opacity:1;fill-rule:nonzero;stroke:none"
         id="path156" />
      <path
         d="m 978.129,664.719 c 0.23,-1.188 -7.149,-3.61 -16.473,-5.41 -9.328,-1.797 -17.074,-2.297 -17.301,-1.11 -0.226,1.192 7.145,3.61 16.477,5.41 9.324,1.789 17.07,2.289 17.297,1.11"
         style="fill:#17282f;fill-opacity:1;fill-rule:nonzero;stroke:none"
         id="path158" />
      <path
         d="m 960.156,524.398 c -0.707,-0.91 -10.066,5.493 -18.648,16.372 -8.637,10.832 -12.738,21.41 -11.692,21.89 1.125,0.57 6.801,-8.75 15.122,-19.172 8.25,-10.468 16.035,-18.129 15.218,-19.09"
         style="fill:#17282f;fill-opacity:1;fill-rule:nonzero;stroke:none"
         id="path160" />
      <path
         d="m 763.316,460.23 c -0.785,0.911 4.188,6.461 11.114,12.379 6.918,5.922 13.168,9.981 13.953,9.063 0.785,-0.922 -4.188,-6.461 -11.113,-12.383 -6.918,-5.918 -13.168,-9.98 -13.954,-9.059"
         style="fill:#17282f;fill-opacity:1;fill-rule:nonzero;stroke:none"
         id="path162" />
      <path
         d="m 706.723,766.488 c -7.961,24.883 -22.922,53.891 -49.051,54.274 -15.508,0.218 -29.453,-10.903 -36.742,-24.59 -7.293,-13.692 -10.383,-29.563 -9.934,-45.063 2.992,-102.39 20.734,-219.507 56.164,-326.168 h 95.613 c -1.226,118.5 -19.921,228.68 -56.05,341.547"
         style="fill:#33535f;fill-opacity:1;fill-rule:nonzero;stroke:none"
         id="path164" />
      <path
         d="m 533.809,923.148 c -13.364,53.454 -53.231,82.332 -99.539,85.012 -42.262,-7.42 -58.653,-49.019 -63.672,-91.629 -5.02,-42.609 8.211,-85.019 21.277,-125.89 41.953,-131.219 83.906,-262.45 125.859,-393.661 39.649,4.329 79.297,8.661 118.95,12.989 -37.649,175.801 -59.27,338.761 -102.875,513.179"
         style="fill:#33535f;fill-opacity:1;fill-rule:nonzero;stroke:none"
         id="path166" />
      <path
         d="m 657.668,820.762 c 0.414,-0.332 -3.918,-4.293 -8.102,-13.532 -4.14,-9.281 -6.132,-24.082 -4.472,-42.281 1.851,-18.16 3.933,-40.058 6.976,-64.031 3.121,-24.027 7.446,-50.34 12.817,-77.797 10.812,-54.93 22.992,-104.223 30.722,-140.152 3.918,-17.949 6.871,-32.528 8.739,-42.641 0.793,-4.637 1.453,-8.5 1.996,-11.668 0.41,-2.672 0.551,-4.09 0.406,-4.121 -0.148,-0.039 -0.582,1.332 -1.27,3.949 -0.757,3.121 -1.679,6.91 -2.8,11.492 -2.539,10.661 -5.946,24.942 -10.082,42.301 -8.5,35.719 -21.157,84.899 -32,140 -5.391,27.551 -9.618,53.969 -12.528,78.129 -1.523,12.078 -2.531,23.602 -3.507,34.379 -0.875,10.711 -2.047,20.731 -2.555,29.961 -1.297,18.441 1.226,33.832 6.012,43.191 4.828,9.34 9.648,12.821 9.648,12.821"
         style="fill:#17282f;fill-opacity:1;fill-rule:nonzero;stroke:none"
         id="path168" />
      <path
         d="m 435.992,1011.54 c 0.41,-0.36 -6.332,-6.03 -14.375,-19.31 -8.019,-13.14 -16.531,-34.55 -18.101,-62.25 -1.817,-27.671 4.351,-60.531 14.711,-95.761 10.449,-35.399 21.91,-74.239 33.945,-115.02 23.723,-81.527 45.187,-155.308 60.887,-209.269 7.488,-26.489 13.593,-48.078 17.968,-63.551 1.938,-7.207 3.489,-12.969 4.672,-17.348 1.02,-3.98 1.489,-6.09 1.344,-6.133 -0.148,-0.046 -0.895,1.981 -2.188,5.883 -1.382,4.321 -3.195,10.008 -5.464,17.11 -4.7,15.379 -11.254,36.839 -19.301,63.16 -16.016,53.871 -37.918,127.519 -62.117,208.91 -11.922,40.84 -23.274,79.719 -33.621,115.168 -10.196,35.441 -16.176,68.859 -13.926,97.062 2,28.188 11.148,49.879 19.75,62.938 8.629,13.221 15.816,18.411 15.816,18.411"
         style="fill:#17282f;fill-opacity:1;fill-rule:nonzero;stroke:none"
         id="path170" />
      <path
         d="m 610.742,422.68 c -0.137,-0.051 -1.058,1.91 -2.683,5.699 -1.563,3.82 -4.094,9.371 -6.774,16.73 -5.676,14.621 -12.945,36.153 -20.461,63.172 -7.558,27.008 -14.988,59.578 -22.168,95.93 -6.894,36.418 -14.457,76.379 -22.402,118.328 -8.274,41.871 -17.481,81.492 -28.172,116.852 -10.664,35.359 -22.621,66.468 -34.68,91.648 -11.996,25.211 -23.461,44.742 -32.062,57.781 -4.094,6.668 -7.809,11.47 -10.027,14.96 -2.293,3.42 -3.446,5.26 -3.325,5.35 0.121,0.1 1.504,-1.57 4.039,-4.83 2.446,-3.31 6.403,-7.98 10.723,-14.519 9.078,-12.812 21.016,-32.211 33.441,-57.402 12.485,-25.16 24.821,-56.34 35.747,-91.82 10.957,-35.469 20.32,-75.219 28.609,-117.18 7.824,-41.981 15.273,-81.949 22.066,-118.399 6.953,-36.332 14.047,-68.871 21.2,-95.902 7.109,-27.027 13.902,-48.629 19.074,-63.387 2.426,-7.441 4.699,-13.07 5.996,-16.992 1.355,-3.879 2,-5.961 1.859,-6.019"
         style="fill:#17282f;fill-opacity:1;fill-rule:nonzero;stroke:none"
         id="path172" />
      <path
         d="m 394,810.281 c 0.289,-1.179 -6.184,-3.75 -14.449,-5.769 -8.266,-2 -15.199,-2.672 -15.485,-1.5 -0.285,1.168 6.184,3.75 14.454,5.758 8.261,2 15.195,2.679 15.48,1.511"
         style="fill:#17282f;fill-opacity:1;fill-rule:nonzero;stroke:none"
         id="path174" />
      <path
         d="m 381.398,891.461 c -0.062,-1.231 -9.05,-1.731 -20.058,-2.172 -11.016,-0.418 -20.012,-0.629 -20.172,0.59 -0.16,1.18 8.754,3.351 20,3.781 11.234,0.449 20.297,-1.019 20.23,-2.199"
         style="fill:#17282f;fill-opacity:1;fill-rule:nonzero;stroke:none"
         id="path176" />
      <path
         d="m 394.801,965.602 c -0.781,-0.922 -7.242,3.277 -14.43,9.367 -7.191,6.113 -12.387,11.801 -11.601,12.722 0.781,0.918 7.242,-3.269 14.429,-9.382 7.192,-6.09 12.383,-11.778 11.602,-12.707"
         style="fill:#17282f;fill-opacity:1;fill-rule:nonzero;stroke:none"
         id="path178" />
      <path
         d="m 431.086,1034.24 c 1.199,-0.27 0.875,-6.05 0.691,-13.05 -0.222,-6.99 -0.23,-12.78 -1.449,-12.98 -1.156,-0.22 -3.156,5.63 -2.926,13.11 0.2,7.48 2.536,13.2 3.684,12.92"
         style="fill:#17282f;fill-opacity:1;fill-rule:nonzero;stroke:none"
         id="path180" />
      <path
         d="m 505.238,1001.9 c 0.989,-0.7 -1.918,-6.56 -6.492,-13.091 -4.574,-6.528 -9.086,-11.27 -10.074,-10.579 -0.992,0.7 1.914,6.559 6.488,13.09 4.578,6.532 9.09,11.27 10.078,10.58"
         style="fill:#17282f;fill-opacity:1;fill-rule:nonzero;stroke:none"
         id="path182" />
      <path
         d="m 553.355,918.301 c 0.454,-1.11 -5.703,-4.692 -13.753,-7.973 -8.059,-3.277 -14.957,-5.039 -15.411,-3.906 -0.461,1.109 5.704,4.687 13.754,7.969 8.051,3.281 14.95,5.039 15.41,3.91"
         style="fill:#17282f;fill-opacity:1;fill-rule:nonzero;stroke:none"
         id="path184" />
      <path
         d="m 582.551,832.301 c 0.488,-1.063 -7.672,-5.723 -18.86,-8.242 -11.187,-2.547 -20.55,-1.868 -20.566,-0.7 -0.055,1.25 8.871,2.512 19.594,4.981 10.738,2.39 19.336,5.109 19.832,3.961"
         style="fill:#17282f;fill-opacity:1;fill-rule:nonzero;stroke:none"
         id="path186" />
      <path
         d="m 448.52,856.73 c -1.157,0.36 -0.317,6.301 1.867,13.27 2.183,6.961 4.886,12.332 6.039,11.961 1.152,-0.359 0.316,-6.289 -1.863,-13.27 -2.184,-6.972 -4.891,-12.32 -6.043,-11.961"
         style="fill:#17282f;fill-opacity:1;fill-rule:nonzero;stroke:none"
         id="path188" />
      <path
         d="m 467.219,748.75 c -1.11,0.48 1.301,8.488 5.379,17.871 4.078,9.399 8.285,16.617 9.39,16.149 1.11,-0.489 -1.3,-8.489 -5.375,-17.891 -4.082,-9.391 -8.289,-16.617 -9.394,-16.129"
         style="fill:#17282f;fill-opacity:1;fill-rule:nonzero;stroke:none"
         id="path190" />
      <path
         d="m 421.031,719.18 c -0.465,-1.129 -8.008,0.929 -17.129,3.769 -9.117,2.86 -16.484,5.469 -16.222,6.672 0.25,1.16 8.203,0.43 17.527,-2.492 9.328,-2.91 16.281,-6.848 15.824,-7.949"
         style="fill:#17282f;fill-opacity:1;fill-rule:nonzero;stroke:none"
         id="path192" />
      <path
         d="m 447.656,631.141 c 0.703,-0.969 -4.394,-5.821 -11.383,-10.813 -6.992,-4.976 -13.222,-8.219 -13.925,-7.238 -0.696,0.98 4.394,5.832 11.382,10.808 6.993,4.993 13.223,8.231 13.926,7.243"
         style="fill:#17282f;fill-opacity:1;fill-rule:nonzero;stroke:none"
         id="path194" />
      <path
         d="m 469.008,543.371 c 0.289,-1.18 -6.016,-3.723 -14.074,-5.68 -8.063,-1.961 -14.825,-2.601 -15.11,-1.421 -0.289,1.171 6.016,3.71 14.078,5.671 8.059,1.969 14.825,2.598 15.106,1.43"
         style="fill:#17282f;fill-opacity:1;fill-rule:nonzero;stroke:none"
         id="path196" />
      <path
         d="m 584.898,758.969 c 0.61,-1.02 -4.781,-5.321 -12.632,-8.258 -7.84,-2.973 -14.727,-3.301 -14.938,-2.129 -0.238,1.207 5.945,3.387 13.395,6.227 7.465,2.793 13.554,5.222 14.175,4.16"
         style="fill:#17282f;fill-opacity:1;fill-rule:nonzero;stroke:none"
         id="path198" />
      <path
         d="m 601.457,622.41 c -0.516,-1.09 -6.934,0.84 -14.344,4.328 -7.406,3.492 -12.992,7.203 -12.472,8.293 0.511,1.09 6.933,-0.851 14.339,-4.34 7.403,-3.472 12.993,-7.191 12.477,-8.281"
         style="fill:#17282f;fill-opacity:1;fill-rule:nonzero;stroke:none"
         id="path200" />
      <path
         d="m 630.688,524.691 c -0.442,-1.121 -8.918,1.141 -18.938,5.071 -10.02,3.929 -17.785,8.019 -17.344,9.148 0.442,1.121 8.918,-1.14 18.938,-5.07 10.015,-3.93 17.785,-8.031 17.344,-9.149"
         style="fill:#17282f;fill-opacity:1;fill-rule:nonzero;stroke:none"
         id="path202" />
      <path
         d="m 473.691,448.129 c -0.593,1.101 7.207,6.34 16.215,13.461 9.051,7.07 15.989,13.41 16.914,12.57 0.887,-0.762 -4.824,-8.66 -14.211,-16.012 -9.355,-7.386 -18.39,-11.058 -18.918,-10.019"
         style="fill:#17282f;fill-opacity:1;fill-rule:nonzero;stroke:none"
         id="path204" />
      <path
         d="m 550.961,497.82 c -1.238,-0.14 -2.918,6.418 -5.902,14.059 -2.926,7.652 -6.094,13.641 -5.079,14.359 0.922,0.723 5.993,-4.527 9.157,-12.789 3.207,-8.23 2.988,-15.539 1.824,-15.629"
         style="fill:#17282f;fill-opacity:1;fill-rule:nonzero;stroke:none"
         id="path206" />
      <path
         d="m 530.48,615.352 c -0.71,-0.981 -5.699,1.398 -11.148,5.308 -5.449,3.91 -9.297,7.891 -8.594,8.86 0.703,0.992 5.692,-1.391 11.149,-5.309 5.449,-3.91 9.297,-7.883 8.593,-8.859"
         style="fill:#17282f;fill-opacity:1;fill-rule:nonzero;stroke:none"
         id="path208" />
      <path
         d="m 710.59,799.531 c 0.715,-0.972 -4.145,-5.781 -10.86,-10.73 -6.71,-4.949 -12.738,-8.172 -13.457,-7.211 -0.714,0.98 4.149,5.781 10.86,10.742 6.715,4.949 12.734,8.168 13.457,7.199"
         style="fill:#17282f;fill-opacity:1;fill-rule:nonzero;stroke:none"
         id="path210" />
      <path
         d="m 737.734,725.309 c 0.114,-1.161 -7.5,-2.758 -16.914,-1.719 -9.422,0.992 -16.519,4.18 -16.16,5.301 0.356,1.187 7.664,-0.012 16.629,-0.961 8.957,-0.989 16.352,-1.379 16.445,-2.621"
         style="fill:#17282f;fill-opacity:1;fill-rule:nonzero;stroke:none"
         id="path212" />
      <path
         d="m 621.055,708.672 c 0.258,-1.152 -6.785,-3.672 -15.895,-4.262 -9.109,-0.629 -16.426,0.942 -16.32,2.121 0.098,1.231 7.277,1.641 16.027,2.239 8.75,0.57 15.934,1.109 16.188,-0.098"
         style="fill:#17282f;fill-opacity:1;fill-rule:nonzero;stroke:none"
         id="path214" />
      <path
         d="m 631.078,778.84 c -0.086,-1.16 -7.211,-1.36 -15.004,2.262 -7.812,3.558 -12.308,9.089 -11.484,9.91 0.84,0.929 6.203,-2.723 13.316,-5.942 7.071,-3.3 13.328,-4.992 13.172,-6.23"
         style="fill:#17282f;fill-opacity:1;fill-rule:nonzero;stroke:none"
         id="path216" />
      <path
         d="m 747.75,645.66 c -0.645,-1.031 -7.934,2.41 -16.289,7.66 -8.356,5.27 -14.606,10.352 -13.961,11.371 0.645,1.02 7.941,-2.402 16.289,-7.671 8.356,-5.25 14.606,-10.348 13.961,-11.36"
         style="fill:#17282f;fill-opacity:1;fill-rule:nonzero;stroke:none"
         id="path218" />
      <path
         d="M 1032.46,327.07 H 409.941 V 437.41 H 1032.46 V 327.07"
         style="fill:#f2575d;fill-opacity:1;fill-rule:nonzero;stroke:none"
         id="path220" />
      <path
         d="M 456.43,348.969 532.129,19.25 h 371.016 l 82.824,329.719 H 456.43"
         style="fill:#f2575d;fill-opacity:1;fill-rule:nonzero;stroke:none"
         id="path222" />
      <path
         d="m 1032.11,326.941 c 0,-1.222 -140.415,-2.191 -313.59,-2.191 -173.231,0 -313.618,0.969 -313.618,2.191 0,1.207 140.387,2.18 313.618,2.18 173.175,0 313.59,-0.973 313.59,-2.18"
         style="fill:#17282f;fill-opacity:1;fill-rule:nonzero;stroke:none"
         id="path224" />
      <path
         d="m 685.914,706.27 c -1.027,-0.641 -5.277,4.32 -9.504,11.082 -4.222,6.75 -6.816,12.75 -5.789,13.378 1.024,0.649 5.277,-4.308 9.5,-11.07 4.227,-6.762 6.817,-12.75 5.793,-13.39"
         style="fill:#17282f;fill-opacity:1;fill-rule:nonzero;stroke:none"
         id="path226" />
      <path
         d="m 686.145,617.5 c -1.153,0.379 0.304,7.879 3.253,16.75 2.946,8.879 6.266,15.75 7.415,15.371 1.14,-0.383 -0.313,-7.883 -3.262,-16.75 -2.946,-8.859 -6.266,-15.75 -7.406,-15.371"
         style="fill:#17282f;fill-opacity:1;fill-rule:nonzero;stroke:none"
         id="path228" />
      <path
         d="m 716.523,524.309 c -1.089,-0.528 -5.738,6.921 -10.386,16.632 -4.649,9.719 -7.532,18.008 -6.446,18.528 1.094,0.519 5.743,-6.918 10.395,-16.641 4.644,-9.699 7.531,-17.996 6.437,-18.519"
         style="fill:#17282f;fill-opacity:1;fill-rule:nonzero;stroke:none"
         id="path230" />
      <path
         d="m 650.777,449.328 c -0.91,0.793 2.801,6.563 8.297,12.891 5.496,6.34 10.688,10.82 11.602,10.031 0.91,-0.789 -2.797,-6.559 -8.297,-12.891 -5.492,-6.328 -10.688,-10.82 -11.602,-10.031"
         style="fill:#17282f;fill-opacity:1;fill-rule:nonzero;stroke:none"
         id="path232" />
      <path
         d="m 636.977,585.461 c -0.207,-1.191 -6.2,-1.121 -13.379,0.141 -7.18,1.269 -12.825,3.257 -12.618,4.449 0.211,1.187 6.2,1.121 13.379,-0.141 7.18,-1.269 12.829,-3.262 12.618,-4.449"
         style="fill:#17282f;fill-opacity:1;fill-rule:nonzero;stroke:none"
         id="path234" />
      <path
         d="m 1326.49,18.4609 h 1476.23 v 1177.22 H 1326.49 Z"
         style="fill:#dadbd8;fill-opacity:1;fill-rule:nonzero;stroke:none"
         id="path236" />
      <path
         d="m 2671.47,1195.68 h -496.4 l 496.96,1.65 c -0.19,-0.55 -0.37,-1.11 -0.56,-1.65"
         style="fill:#a7a9a8;fill-opacity:1;fill-rule:nonzero;stroke:none"
         id="path238" />
      <path
         d="m 2348.47,530.199 -183.71,67.192 -22.93,-64.243 c -5.58,15.981 -9.15,32.793 -11.65,49.543 -10.88,72.989 -2.78,148.719 23.29,217.75 14.86,39.348 35.42,76.528 47.28,116.891 11.85,40.34 14.08,86.028 -6.81,122.528 -19.2,33.52 -55.38,54.49 -92.76,64.22 -37.38,9.74 -76.5,9.68 -115.12,10.4 -186.52,3.49 -378.22,16.71 -552.02,78.74 l 741.03,2.46 h 496.4 C 2598.4,977.941 2475.32,751.371 2361.52,552.012 c -4.11,-7.192 -8.45,-14.532 -13.05,-21.813"
         style="fill:#8f9192;fill-opacity:1;fill-rule:nonzero;stroke:none"
         id="path240" />
      <path
         d="m 1829.48,24.7695 c -1.44,0 -2.6,260.9215 -2.6,582.6995 0,321.91 1.16,582.781 2.6,582.781 1.44,0 2.61,-260.871 2.61,-582.781 0,-321.778 -1.17,-582.6995 -2.61,-582.6995"
         style="fill:#33535f;fill-opacity:1;fill-rule:nonzero;stroke:none"
         id="path242" />
      <path
         d="m 2434.39,2065.66 c -4.38,29.34 -92.13,126.41 -92.13,126.41 0,0 -43.87,176.08 -57.03,228 -3.28,12.98 -10.34,27.72 -19.07,42.53 -30.62,51.94 -75.52,94 -128.08,123.55 l -121.42,68.28 -29.06,64.64 -291.74,149.89 -79.1,-139.54 c 0,0 -192.1,-61.06 -217.52,-104.67 -25.43,-43.61 12.61,-627.98 12.61,-627.98 0,0 -80.41,-337.25 -97.36,-407.02 -16.95,-69.78 5.46,-153.04 5.46,-153.04 l 143.07,179.57 c 44.45,55.79 142.08,81.43 212.18,80.44 l 599.1,-2.65 -23.83,167.82 484.43,-94.21 c 0,0 83.35,162.53 89.93,165.8 6.58,3.27 -390.44,132.18 -390.44,132.18"
         style="fill:#f2575d;fill-opacity:1;fill-rule:nonzero;stroke:none"
         id="path244" />
      <path
         d="m 1683.39,2674.56 c -4.2,4.28 33.87,-124.26 81.64,-255.16 25.74,-70.54 38.64,-145.35 38.64,-220.69 v -288.2 -185.78 l 287.26,19.51 -42.94,312.23 c 0,0 -35.02,201.41 -44.82,278.01 -8.98,70.14 -39.83,260.34 -39.83,260.34 0,0 -159.67,-42.75 -279.95,79.74"
         style="fill:#ffffff;fill-opacity:1;fill-rule:nonzero;stroke:none"
         id="path246" />
      <path
         d="m 2320.83,1947.88 c -0.34,0.03 -0.43,2.61 -0.02,7.23 0.4,4.63 1.5,11.29 3.78,19.32 4.42,15.96 14.65,37.53 32.82,55.73 18.17,18.21 39.71,28.48 55.68,32.95 8.02,2.29 14.68,3.41 19.3,3.82 4.63,0.42 7.2,0.32 7.23,-0.01 0.12,-0.89 -10.06,-1.98 -25.41,-7.32 -15.27,-5.23 -35.67,-15.64 -53.11,-33.12 -17.44,-17.47 -27.8,-37.89 -33.01,-53.18 -5.31,-15.35 -6.38,-25.54 -7.26,-25.42"
         style="fill:#17282f;fill-opacity:1;fill-rule:nonzero;stroke:none"
         id="path248" />
      <path
         d="m 2335.62,2061.59 c -0.62,1.15 18.25,10.7 43.86,12.71 25.59,2.21 45.78,-4.14 45.34,-5.36 -0.3,-1.56 -20.28,2.31 -44.91,0.17 -24.65,-1.91 -43.73,-8.99 -44.29,-7.52"
         style="fill:#17282f;fill-opacity:1;fill-rule:nonzero;stroke:none"
         id="path250" />
      <path
         d="m 1584.35,1696.72 c -1.03,0 -2.06,0 -3.09,0 -40.97,0.11 -82.32,1.26 -122.1,11.06 -38.52,9.48 -72.28,34.22 -98.64,63.98 123.83,-27.91 257.84,-47.03 257.84,-47.03 l 10.68,45.05 c 45.93,-9.51 91.48,-20.86 136.51,-34 0.67,-11.3 -8.76,-21.29 -19.54,-24.76 -4.45,-1.44 -9.05,-2 -13.71,-2 -6.63,0 -13.35,1.14 -19.85,2.53 -10.03,2.15 -20.1,4.89 -30.31,4.89 -1.06,0 -2.13,-0.03 -3.2,-0.09 -16.88,-1.01 -32.04,-10.24 -48.3,-14.92 -14.95,-4.32 -30.7,-4.71 -46.29,-4.71"
         style="fill:#cc4341;fill-opacity:1;fill-rule:nonzero;stroke:none"
         id="path252" />
      <path
         d="m 2202.91,1766.71 -70.48,74.86 -144.99,36.69 c 0,0 -132.85,-39.8 -136.03,-39.68 -3.18,0.11 -115.63,30.72 -115.63,30.72 l -39.3,-144.15 202.52,-13.87 231.24,9.26 c 0,0 12.06,11.23 4.91,18.91 -7.15,7.67 38.66,-12.98 44.05,-13.24 5.3,-0.24 15.86,-4.38 23,4.26 4.87,5.89 11.48,24.81 0.71,36.24"
         style="fill:#f8a58d;fill-opacity:1;fill-rule:nonzero;stroke:none"
         id="path254" />
      <path
         d="m 2135.15,1739.45 c -0.27,-0.72 -8.98,2.09 -23.04,6.55 -14.05,4.46 -33.49,10.42 -55.24,15.99 -21.77,5.56 -41.69,9.69 -56.15,12.59 -14.45,2.89 -23.42,4.7 -23.32,5.45 0.09,0.68 9.25,0.16 23.93,-1.82 14.69,-1.98 34.89,-5.57 56.83,-11.17 21.93,-5.62 41.37,-12.19 55.18,-17.57 13.81,-5.38 22.07,-9.39 21.81,-10.02"
         style="fill:#f68260;fill-opacity:1;fill-rule:nonzero;stroke:none"
         id="path256" />
      <path
         d="m 2202.91,1766.72 c -0.3,-0.73 -12.41,3.79 -32.17,10.37 -19.74,6.66 -47.32,14.81 -77.99,23.38 -30.64,9.1 -57.92,18.2 -78.61,19.41 -20.61,1.75 -33.18,-2.32 -33.38,-1.3 -0.08,0.28 2.94,1.54 8.68,2.92 5.75,1.39 14.33,2.43 24.92,2.06 21.37,-0.3 49.49,-9.08 79.81,-18.08 30.69,-8.57 58.29,-17.33 77.81,-24.92 9.78,-3.74 17.57,-7.07 22.89,-9.51 5.32,-2.45 8.17,-4.01 8.04,-4.33"
         style="fill:#f68260;fill-opacity:1;fill-rule:nonzero;stroke:none"
         id="path258" />
      <path
         d="m 1399.24,2624.75 c 0,0 -104.52,-72.68 -129.95,-177.35 -25.42,-104.66 -135.6,-532.03 -113,-595.99 22.6,-63.96 462.07,-126.68 462.07,-126.68 l 52.07,219.72 -223.17,61.05 c 0,0 2.82,203.51 5.65,287.82 2.82,84.31 -53.67,331.43 -53.67,331.43"
         style="fill:#f2575d;fill-opacity:1;fill-rule:nonzero;stroke:none"
         id="path260" />
      <path
         d="m 1667.51,1911.67 71.91,-17.7 -43.26,-165.84 -70.66,11.32 42.01,172.22"
         style="fill:#ffffff;fill-opacity:1;fill-rule:nonzero;stroke:none"
         id="path262" />
      <path
         d="m 1154.64,1874.03 c 0.37,0 -0.21,-3.66 1.07,-10.36 1.42,-6.58 5.69,-16.15 15.32,-24.94 19.1,-17.78 55.57,-32.59 101.83,-40.92 l 0.15,-0.02 0.17,-0.06 c 21.15,-6.95 45.21,-12.46 70.97,-18.29 25.8,-5.77 53.46,-11.67 82.71,-17.62 58.47,-11.95 123.17,-24.53 191.71,-37.36 l -2.98,-1.93 c 4.97,20.37 10.22,41.93 15.54,63.77 12.33,50.42 24.27,99.26 35.59,145.57 l 1.76,-3.02 c -73.81,21.07 -141.16,40.29 -198.34,56.62 l -0.12,0.03 -0.11,0.05 c -30.28,12.4 -60.4,16.92 -86.51,15.15 -26.23,-1.2 -48.22,-8.22 -65.29,-15.34 -17.1,-7.32 -29.34,-15.28 -37.51,-20.77 -3.78,-2.76 -6.79,-4.95 -9.09,-6.62 -2.06,-1.49 -3.15,-2.22 -3.21,-2.14 -0.07,0.08 0.89,0.97 2.83,2.61 1.97,1.61 4.81,4.13 8.77,7.12 7.99,5.83 20.12,14.17 37.29,21.9 17.13,7.52 39.34,14.96 66.01,16.49 26.54,2.1 57.3,-2.22 88.27,-14.65 l -0.23,0.08 c 57.27,-16.06 124.7,-34.97 198.61,-55.7 l 2.33,-0.65 -0.57,-2.35 c -11.27,-46.32 -23.15,-95.18 -35.42,-145.61 -5.33,-21.85 -10.6,-43.39 -15.57,-63.77 l -0.59,-2.38 -2.4,0.45 c -68.58,12.92 -133.25,25.67 -191.71,37.92 -29.24,6.08 -56.9,12.16 -82.7,18.11 -25.79,6.03 -49.74,11.71 -71.24,19.01 l 0.32,-0.09 c -46.76,8.9 -83.33,24.3 -102.6,43.02 -9.69,9.23 -13.85,19.33 -14.97,26.15 -0.99,6.93 -0.09,10.54 -0.09,10.54"
         style="fill:#17282f;fill-opacity:1;fill-rule:nonzero;stroke:none"
         id="path264" />
      <path
         d="m 1459.31,1990.93 c -0.62,-0.66 -8.06,6.17 -21.47,15.15 -13.37,9 -33.17,19.58 -56.75,26.49 -23.62,6.83 -46,8.54 -62.11,8.13 -16.13,-0.39 -26.08,-2.14 -26.24,-1.25 -0.14,0.51 9.63,3.58 26.06,4.93 16.38,1.37 39.48,0.21 63.74,-6.81 24.24,-7.1 44.35,-18.52 57.42,-28.49 13.14,-9.95 19.73,-17.78 19.35,-18.15"
         style="fill:#17282f;fill-opacity:1;fill-rule:nonzero;stroke:none"
         id="path266" />
      <path
         d="m 1488.57,2348.91 c 0.36,-0.02 0.4,-4.79 0.15,-13.4 -0.19,-8.62 -0.94,-21.06 -2.11,-36.43 -2.46,-30.7 -7.04,-73.07 -15.07,-119.42 -7.87,-46.39 -17.96,-87.9 -27.72,-117.23 -2.45,-7.32 -4.97,-13.84 -7.12,-19.59 -2.39,-5.37 -4.51,-10.15 -6.39,-14.4 -4.12,-7.64 -6.54,-11.74 -6.85,-11.56 -0.31,0.17 1.49,4.6 5,12.39 1.62,4.31 3.45,9.16 5.51,14.6 1.88,5.79 4.14,12.34 6.34,19.68 8.79,29.37 18.25,70.77 26.1,116.99 7.99,46.18 13.14,88.34 16.53,118.89 1.5,14.5 2.76,26.64 3.76,36.21 0.86,8.56 1.51,13.29 1.87,13.27"
         style="fill:#17282f;fill-opacity:1;fill-rule:nonzero;stroke:none"
         id="path268" />
      <path
         d="m 1743.44,2462.26 c -0.34,-0.09 -1.04,2.73 -3.47,7.4 -2.45,4.58 -6.92,11.14 -15.02,16.42 -7.86,5.25 -20.01,8.97 -32.52,4.76 -12.27,-3.97 -24.38,-15.51 -27.44,-31.06 l -1.4,-7.12 -3.06,6.58 c -10.53,22.66 -21.3,48.84 -30.56,77.21 -16.9,51.5 -24.19,100.81 -22.59,136.42 -0.05,8.9 1.25,16.9 1.76,23.94 1.21,6.97 2.1,12.99 3.18,17.83 2.53,9.63 4.09,14.87 4.44,14.78 1.29,-0.25 -5.92,-21.34 -5.7,-56.62 -0.64,-35.15 7.11,-83.67 23.87,-134.74 9.18,-28.14 19.7,-54.2 29.89,-76.85 l -4.46,-0.53 c 3.72,17.52 17.25,29.8 30.88,33.89 14.01,4.34 27.23,-0.25 35.3,-6.16 8.39,-5.97 12.67,-13.15 14.78,-18.11 1.05,-2.51 1.65,-4.52 1.89,-5.91 0.28,-1.38 0.35,-2.1 0.23,-2.13"
         style="fill:#17282f;fill-opacity:1;fill-rule:nonzero;stroke:none"
         id="path270" />
      <path
         d="m 1987.25,2439.75 c -0.34,-0.03 -1.01,4.19 -2.31,11.9 -1.07,7.69 -3.62,19.01 -2.12,33.52 2,14.24 8.74,31.5 24.11,44.29 7.6,6.29 18.03,10.5 29.07,10.44 10.91,0.01 22.83,-4.24 30.61,-13.69 l -4.42,-2.53 c -3.04,7.67 -6.24,15.72 -9.49,23.9 -18.65,47.11 -35.26,89.86 -47.05,120.89 -5.51,14.85 -10.12,27.23 -13.69,36.85 -3.13,8.74 -4.69,13.63 -4.36,13.75 0.34,0.13 2.55,-4.52 6.26,-13.04 3.98,-9.48 9.1,-21.66 15.25,-36.27 12.66,-30.71 29.82,-73.25 48.47,-120.36 3.24,-8.19 6.41,-16.24 9.44,-23.91 l 6.1,-15.44 -10.52,12.91 c -6.54,8.03 -16.86,11.91 -26.64,12 -9.88,0.12 -19.1,-3.42 -26.2,-9.09 -14.28,-11.41 -21.29,-27.87 -23.54,-41.16 -1.88,-13.68 0.06,-25.08 0.56,-32.83 0.73,-7.79 0.78,-12.11 0.47,-12.13"
         style="fill:#17282f;fill-opacity:1;fill-rule:nonzero;stroke:none"
         id="path272" />
      <path
         d="m 2172.71,2414.94 c 1.43,0.2 24.02,-151.83 50.47,-339.53 26.44,-187.76 46.73,-340.08 45.31,-340.28 -1.42,-0.21 -24.02,151.8 -50.47,339.56 -26.44,187.69 -46.74,340.05 -45.31,340.25"
         style="fill:#17282f;fill-opacity:1;fill-rule:nonzero;stroke:none"
         id="path274" />
      <path
         d="m 1657.94,2421.89 c -14.05,32.91 -22.39,68.39 -24.51,104.27 8.42,-24.42 17.85,-47.03 27.1,-66.92 l 3.06,-6.58 1.4,7.12 c 3.06,15.55 15.17,27.09 27.44,31.06 3.78,1.27 7.53,1.82 11.14,1.82 2.02,0 3.99,-0.17 5.91,-0.49 10.29,-3.19 19.6,-10.15 26.42,-18.84 9.65,-12.29 14.87,-27.68 18.03,-43.14 -12.7,13.2 -29.72,24.41 -47.24,24.41 -3.06,0 -6.15,-0.34 -9.22,-1.08 -16.57,-3.96 -28.65,-18.19 -39.53,-31.63 m 4.28,45.16 c -5.28,11.97 -10.6,24.81 -15.75,38.34 l 16.02,-37.62 c -0.09,-0.24 -0.18,-0.48 -0.27,-0.72 m 1.81,4.18 c 3.01,8.73 10.05,15.71 18.47,19.56 -7.46,-4.26 -14.21,-10.96 -18.47,-19.56"
         style="fill:#cc4341;fill-opacity:1;fill-rule:nonzero;stroke:none"
         id="path276" />
      <path
         d="m 1663.59,2452.66 -3.06,6.58 c -9.25,19.89 -18.68,42.5 -27.1,66.92 -0.18,2.89 -0.31,5.77 -0.4,8.66 l 1.19,-0.66 12.25,-28.77 c 5.15,-13.53 10.47,-26.37 15.75,-38.34 0.09,0.24 0.18,0.48 0.27,0.72 l 0.4,-0.92 c 0.26,1.5 0.65,2.96 1.14,4.38 4.26,8.6 11.01,15.3 18.47,19.56 4.34,1.98 9.05,3.13 13.76,3.26 0.35,0.01 0.7,0.01 1.05,0.01 4.14,0 8.23,-0.66 12.17,-1.89 -1.92,0.32 -3.89,0.49 -5.91,0.49 -3.61,0 -7.36,-0.55 -11.14,-1.82 -12.27,-3.97 -24.38,-15.51 -27.44,-31.06 l -1.4,-7.12"
         style="fill:#0f191d;fill-opacity:1;fill-rule:nonzero;stroke:none"
         id="path278" />
      <path
         d="m 1464.16,2424.93 c -0.97,0.01 -0.64,10.47 -3.67,26.82 -2.98,16.28 -10.27,38.4 -24.32,59.47 -7.07,10.46 -15.01,19.54 -22.85,27.17 -8.08,7.36 -15.82,13.54 -22.92,17.84 -14.04,8.87 -23.95,12.28 -23.61,13.19 0.11,0.34 2.65,-0.29 7.17,-1.75 2.29,-0.67 5.02,-1.67 8.06,-3.14 3.07,-1.41 6.65,-2.89 10.27,-5.14 7.54,-4.01 15.77,-10.07 24.29,-17.48 8.28,-7.67 16.61,-16.99 23.92,-27.8 14.53,-21.79 21.52,-44.93 23.63,-61.78 1.06,-8.44 1.36,-15.34 0.97,-20.08 -0.27,-4.74 -0.58,-7.33 -0.94,-7.32"
         style="fill:#17282f;fill-opacity:1;fill-rule:nonzero;stroke:none"
         id="path280" />
      <path
         d="m 2044.57,3138.58 c -11.84,111.03 -106.99,194.31 -218.6,191.44 l -11.1,-0.28 c -119.43,-10.07 -177.61,-117.12 -164.24,-236.23 l 32.76,-418.95 13.88,-17.03 c 64.21,-78.82 173.42,-104.55 266.07,-62.71 l -9.18,134.78 c 0,0 114.54,20.83 113,135.84 -0.74,55.55 -11.59,169.84 -22.59,273.14"
         style="fill:#f8a58d;fill-opacity:1;fill-rule:nonzero;stroke:none"
         id="path282" />
      <path
         d="m 1955.06,2729.79 c 0,0 -73.31,-6.31 -151.78,40.21 0,0 37.56,-81.83 152.01,-68.52 l -0.23,28.31"
         style="fill:#f68260;fill-opacity:1;fill-rule:nonzero;stroke:none"
         id="path284" />
      <path
         d="m 2008.22,3043.46 c 0.53,-8.66 -6.37,-16.25 -15.41,-16.97 -9.02,-0.71 -16.77,5.7 -17.3,14.37 -0.53,8.66 6.37,16.27 15.38,16.98 9.04,0.72 16.8,-5.72 17.33,-14.38"
         style="fill:#17282f;fill-opacity:1;fill-rule:nonzero;stroke:none"
         id="path286" />
      <path
         d="m 2015.53,3105.98 c -1.3,-2.02 -14.35,-3.4 -29.88,-11.81 -15.58,-8.27 -24.9,-18.89 -27.08,-18.74 -1.05,0.03 -0.11,2.91 3.91,7.61 3.96,4.65 11.38,11.1 21.08,16.3 9.69,5.19 18.76,7.6 24.39,8.09 5.74,0.53 8.24,-0.5 7.58,-1.45"
         style="fill:#17282f;fill-opacity:1;fill-rule:nonzero;stroke:none"
         id="path288" />
      <path
         d="m 1842.24,3034.74 c 0.53,-8.66 -6.37,-16.25 -15.4,-16.97 -9.02,-0.72 -16.78,5.7 -17.31,14.37 -0.53,8.66 6.37,16.26 15.39,16.98 9.04,0.72 16.8,-5.71 17.32,-14.38"
         style="fill:#17282f;fill-opacity:1;fill-rule:nonzero;stroke:none"
         id="path290" />
      <path
         d="m 1839.72,3081.8 c -2.3,-0.5 -13.01,6.74 -30.14,10.96 -17.09,4.33 -31.04,3.24 -32.58,4.7 -0.76,0.67 1.8,1.96 7.92,2.5 6.01,0.56 15.8,0.12 26.47,-2.54 10.67,-2.67 19.05,-6.76 23.59,-9.96 4.63,-3.22 5.85,-5.46 4.74,-5.66"
         style="fill:#17282f;fill-opacity:1;fill-rule:nonzero;stroke:none"
         id="path292" />
      <path
         d="m 1909.04,2944.49 c -0.11,1 10.83,3.19 28.56,5.92 4.5,0.58 8.75,1.59 9.43,4.69 0.98,3.28 -1.03,8.1 -3.35,13.29 -4.53,10.81 -9.26,22.14 -14.23,34.01 -19.79,48.44 -34.23,88.3 -32.27,89.09 1.96,0.78 19.58,-37.85 39.36,-86.28 4.77,-11.95 9.33,-23.34 13.68,-34.23 1.83,-5.08 4.92,-10.83 2.79,-17.65 -1.13,-3.4 -4.38,-5.94 -7.25,-6.79 -2.87,-0.95 -5.4,-1.06 -7.63,-1.26 -17.89,-1.42 -28.99,-1.79 -29.09,-0.79"
         style="fill:#17282f;fill-opacity:1;fill-rule:nonzero;stroke:none"
         id="path294" />
      <path
         d="m 1839.99,3150.07 c -1.98,-4.72 -19.5,-1.59 -40.33,-3.08 -20.86,-1.07 -37.85,-6.32 -40.39,-1.88 -1.12,2.12 2.01,6.49 8.98,10.81 6.92,4.32 17.82,8.21 30.32,8.98 12.5,0.76 23.78,-1.76 31.18,-5.2 7.45,-3.43 11.1,-7.39 10.24,-9.63"
         style="fill:#17282f;fill-opacity:1;fill-rule:nonzero;stroke:none"
         id="path296" />
      <path
         d="m 2015.08,3146.14 c -3.83,-4.05 -19.05,-0.03 -37.31,-0.03 -18.25,0.52 -33.68,-3.04 -37.28,1.12 -1.58,2.02 0.81,6.07 7.52,9.94 6.62,3.86 17.72,7.06 30.27,6.88 12.54,-0.19 23.45,-3.72 29.84,-7.76 6.49,-4.06 8.65,-8.17 6.96,-10.15"
         style="fill:#17282f;fill-opacity:1;fill-rule:nonzero;stroke:none"
         id="path298" />
      <path
         d="m 2078.1,3240.29 c -2.19,10.43 -12.47,19.25 -23.03,17.68 5.64,2.01 11.42,4.1 15.86,8.08 4.47,3.98 7.32,10.36 5.44,16.03 -2.95,8.89 -14.32,10.72 -23.34,13.28 -11.75,3.33 -22.4,10.45 -29.99,20.02 -10.93,13.81 -15.14,31.77 -24.59,46.63 -12.21,19.25 -33.46,32.49 -56.12,34.99 -22.66,2.49 -46.27,-5.81 -62.39,-21.92 -17.57,18.04 -44.06,26.93 -68.96,23.13 -24.89,-3.79 -47.54,-20.17 -58.93,-42.63 -30.51,12.7 -67.75,7.46 -93.57,-13.17 -25.81,-20.63 -39.14,-55.8 -33.49,-88.36 l 71.62,-43.89 c 1.16,22.14 25.87,39.71 47.16,33.56 21.62,-6.25 35.44,-31.28 57.88,-32.98 17.47,-1.32 32.33,12.22 49.26,16.75 20.54,5.5 42.22,-2.73 60.74,-13.17 18.52,-10.43 36.12,-23.41 56.73,-28.62 24.16,-6.09 49.91,-0.75 72.96,8.69 9.88,4.04 19.66,8.98 27.02,16.72 7.34,7.73 11.94,18.74 9.74,29.18"
         style="fill:#17282f;fill-opacity:1;fill-rule:nonzero;stroke:none"
         id="path300" />
      <path
         d="m 1709.05,3243.92 327.97,1.87 c -10.82,22.33 -29.52,39.93 -49.7,54.37 -43.5,31.12 -96.42,49.84 -149.9,49.29 -53.47,-0.55 -160.48,-68.68 -198.18,-106.61 -30.17,-30.36 -29.26,-55.88 -29.26,-55.88 -3.75,-42.63 21.38,-90.27 32,-131.73 5.47,-21.39 16.69,-86.23 16.69,-86.23 h 0.01 c 18.06,0.57 24.37,15.12 21.13,32.9 l -5.32,69.95 c 0,0 60.2,45.36 28.88,124.44 -4.85,6.23 -15.62,35.14 5.68,47.63"
         style="fill:#17282f;fill-opacity:1;fill-rule:nonzero;stroke:none"
         id="path302" />
      <path
         d="m 1669.37,3076.51 c -16.69,58.08 -32.02,120.31 -14.28,178.08 -3.24,0.13 -6.49,0.27 -9.74,0.4 l -4.05,-2.96 c -18.35,6.17 -40.3,-0.82 -51.7,-16.46 -11.4,-15.64 -11.34,-38.68 0.14,-54.26 -19.42,0.91 -38.07,-15.34 -39.84,-34.71 -1.22,-13.36 4.59,-26.28 10.55,-38.31 5.97,-12.02 12.38,-24.48 12.47,-37.9 0.08,-13.43 -8.51,-28 -21.84,-29.6 5.97,-13.75 22.65,-21.86 37.15,-18.04 -4.61,-11.36 -12.52,-21.34 -22.52,-28.42 21.36,-14.55 50.69,-9.58 73.92,1.74 13.79,6.71 27.32,16.28 32.95,30.54 6.24,15.8 1.48,33.57 -3.21,49.9"
         style="fill:#17282f;fill-opacity:1;fill-rule:nonzero;stroke:none"
         id="path304" />
      <path
         d="m 1664.02,3008.84 c -1.98,0.8 -79.6,21.34 -75.07,-57.2 4.53,-78.53 82.45,-57.79 82.45,-55.52 0.01,2.25 -7.38,112.72 -7.38,112.72"
         style="fill:#f8a58d;fill-opacity:1;fill-rule:nonzero;stroke:none"
         id="path306" />
      <path
         d="m 1652.61,2924.67 c -0.36,0.24 -1.31,-1.04 -3.57,-2.23 -2.19,-1.15 -6.03,-2.09 -10.21,-0.79 -8.47,2.56 -16.22,15.33 -17.41,29.47 -0.62,7.12 0.49,14.02 2.7,19.8 2.06,5.89 5.54,10.11 9.68,11.1 4.1,1.2 7.2,-1.13 8.29,-3.29 1.18,-2.13 0.77,-3.73 1.2,-3.84 0.23,-0.19 1.6,1.42 0.79,4.62 -0.42,1.54 -1.45,3.34 -3.38,4.74 -1.97,1.43 -4.79,2.05 -7.68,1.57 -6.03,-0.77 -11.16,-6.66 -13.59,-13.01 -2.75,-6.39 -4.17,-14.15 -3.48,-22.16 1.42,-15.79 10.37,-30.14 21.92,-32.76 5.6,-1.12 10.11,0.81 12.39,2.8 2.32,2.08 2.63,3.86 2.35,3.98"
         style="fill:#f68260;fill-opacity:1;fill-rule:nonzero;stroke:none"
         id="path308" />
      <path
         d="m 1582.47,3073.98 c -0.23,-0.16 -2.2,2.96 -1.44,9.13 0.73,6.01 5.07,14.72 14.68,20.47 9.5,5.79 22.63,7.2 35.98,8.69 13.21,1.43 28.3,5.18 35.85,18.21 7.55,12.69 7.76,28.22 6.15,41.23 -1.88,13.18 -5.37,25.17 -7.09,35.47 -4.15,20.8 -0.17,34.06 0.53,33.7 0.94,-0.14 -1.39,-12.88 3.71,-32.83 2.22,-10.02 6.12,-21.67 8.43,-35.56 1.94,-13.68 2.23,-30.32 -6.52,-45.21 -4.36,-7.33 -11.34,-12.9 -18.71,-15.84 -7.39,-3.01 -14.83,-4.04 -21.71,-4.77 -13.72,-1.2 -25.8,-2.16 -34.53,-6.88 -8.61,-4.54 -13.13,-11.93 -14.44,-17.14 -1.38,-5.35 -0.35,-8.57 -0.89,-8.67"
         style="fill:#33535f;fill-opacity:1;fill-rule:nonzero;stroke:none"
         id="path310" />
      <path
         d="m 1563.51,3108.23 c -0.31,-0.12 -1.73,2.24 -2.43,7.1 -0.64,4.78 -0.27,12.27 3.92,20.2 2.09,3.92 5.14,7.9 9.33,11.21 4.12,3.45 9.74,5.58 15.07,7.04 5.35,1.56 10.91,2.94 14.92,6.12 3.99,3.15 5.79,8.36 5.91,14.39 0.23,5.99 -0.68,12.29 -0.53,18.59 0.09,6.24 0.82,12.24 2,17.83 2.46,11.22 6.51,20.69 11.27,28.08 4.74,7.6 12.31,11.31 17.39,11.05 5.2,-0.05 7.38,-2.39 7.15,-2.59 -0.22,-0.48 -2.63,0.89 -6.97,0.21 -4.35,-0.54 -10.04,-3.93 -13.9,-10.98 -3.89,-6.99 -7.43,-16.33 -9.4,-26.87 -0.97,-5.29 -1.54,-10.93 -1.55,-16.77 -0.08,-5.79 0.89,-11.95 0.66,-18.79 -0.03,-6.66 -2.48,-14.48 -8.3,-18.84 -5.68,-4.28 -11.91,-5.42 -17.14,-6.86 -10.76,-2.1 -17.95,-8.09 -22.15,-14.96 -8.32,-14.07 -4.07,-25.21 -5.25,-25.16"
         style="fill:#33535f;fill-opacity:1;fill-rule:nonzero;stroke:none"
         id="path312" />
      <path
         d="m 2023.1,3315.31 c 0.49,-0.11 -5.93,-4.28 -16.22,0.56 -5.04,2.24 -10.01,6.97 -14.83,12.63 -4.81,5.74 -10.28,11.85 -18.24,16.17 -15.34,8.73 -40.17,10.99 -59.22,-3.92 -9.72,-7.04 -18.31,-16.88 -29.61,-25.11 -5.65,-4.04 -12.21,-7.64 -19.66,-9.09 -7.44,-1.46 -15.33,-0.42 -22.36,2.12 -14.16,5.09 -25.33,13.76 -37.54,18.2 -12.18,4.71 -24.86,6.79 -36.88,6.63 -24.23,-0.05 -45.18,-9.18 -59.49,-20.46 -14.55,-11.26 -23.06,-23.95 -28.08,-32.91 -4.89,-9.12 -6.66,-14.66 -7.17,-14.5 -0.2,0.07 0.07,1.5 0.78,4.19 0.74,2.68 2.11,6.55 4.26,11.39 4.48,9.5 12.69,23.03 27.52,35.22 14.54,12.2 36.54,22.35 62.09,22.71 12.69,0.32 26.14,-1.75 39.11,-6.67 13.18,-4.79 24.58,-13.5 37.42,-18.02 6.38,-2.29 12.94,-3.11 19.21,-1.91 6.26,1.19 12.04,4.26 17.31,7.98 10.56,7.55 19.36,17.39 29.78,24.8 10.27,7.74 22.9,11.49 34.31,11.35 11.5,-0.05 22.02,-3.3 30.38,-8.24 8.47,-4.92 14.27,-11.94 18.71,-17.73 4.55,-5.83 8.83,-10.34 13.29,-12.71 9.03,-5.08 15.16,-2.09 15.13,-2.68"
         style="fill:#33535f;fill-opacity:1;fill-rule:nonzero;stroke:none"
         id="path314" />
      <path
         d="m 1865.38,2923.91 c 2.49,0.57 5.35,-16.22 21.73,-25.71 16.36,-9.55 33.94,-4.65 34.47,-6.97 0.41,-1.02 -3.44,-3.94 -10.96,-5.41 -7.37,-1.51 -18.59,-0.95 -28.61,4.87 -10,5.83 -15.42,14.94 -17.15,21.73 -1.82,6.92 -0.65,11.4 0.52,11.49"
         style="fill:#17282f;fill-opacity:1;fill-rule:nonzero;stroke:none"
         id="path316" />
      <path
         d="m 2900.26,1361.44 c -29.72,26.47 -70.75,38.77 -110.49,36.45 l -67.56,-214.75 c 49.52,-2.18 98.92,-27.73 146.73,-14.63 38.39,10.51 67.51,46.57 72.84,86 5.34,39.45 -11.8,80.45 -41.52,106.93"
         style="fill:#f2575d;fill-opacity:1;fill-rule:nonzero;stroke:none"
         id="path318" />
      <path
         d="m 2790.97,1402.94 c 0.14,1.74 7.35,3.09 20.48,2.95 13.05,-0.36 32.41,-1.85 55.31,-10.42 22.95,-8.5 47.98,-25.87 67.35,-52.3 9.68,-13.21 17.79,-28.93 22.47,-46.58 4.75,-17.62 5.6,-37.26 1.67,-56.33 -3.92,-19.1 -12.31,-37.03 -24.56,-51.27 -12.27,-14.4 -27.99,-24.35 -43.61,-30.24 -31.53,-11.83 -61.82,-9.95 -85,-5.5 -23.41,4.61 -41.03,11.44 -52.98,16.46 -11.92,5.14 -18.14,8.91 -17.63,10.61 0.53,1.73 7.82,1.22 20.49,-0.89 12.65,-2.01 30.7,-5.95 52.68,-7.94 21.8,-1.97 48.23,-1.3 73.44,9.49 12.46,5.36 24.08,13.43 33.06,24.39 9.05,10.97 15.49,24.97 18.59,40.11 6.47,30.54 -2.75,60.96 -18.29,83.95 -15.56,23.25 -35.93,39.8 -55.06,49.18 -19.31,9.63 -37.11,13.89 -49.3,17.24 -12.28,3.17 -19.25,5.26 -19.11,7.09"
         style="fill:#f3f2f1;fill-opacity:1;fill-rule:nonzero;stroke:none"
         id="path320" />
      <path
         d="M 2164.76,597.391 2017.75,185.52 2529.24,0 c 14.73,49.9414 -214.3,244.02 -214.3,244.02 l 105.02,260.031 -255.2,93.34"
         style="fill:#f2575d;fill-opacity:1;fill-rule:nonzero;stroke:none"
         id="path322" />
      <path
         d="m 2161.59,281.828 c -0.55,0 -1.09,0.024 -1.63,0.082 -10.86,1.07 -19.56,12.199 -18.24,23.039 1.25,10.172 10.91,18.41 21.08,18.66 0.58,0.082 1.16,0.121 1.74,0.121 10.16,0 19.87,-11.71 19.77,-22 -0.11,-10.378 -12.19,-19.902 -22.72,-19.902"
         style="fill:#f9acb4;fill-opacity:1;fill-rule:nonzero;stroke:none"
         id="path324" />
      <path
         d="m 2017.75,185.52 14.84,41.57 485.86,-193.8205 c 0,0 19.19,-18.1601 10.79,-33.2695 l -511.49,185.52"
         style="fill:#ffffff;fill-opacity:1;fill-rule:nonzero;stroke:none"
         id="path326" />
      <path
         d="m 2324.18,243.609 c -1,-2.461 -13.89,0.93 -29.1,-2.64 -15.3,-3.18 -25.55,-11.688 -27.49,-9.867 -2.13,1.32 7.02,14.898 25.49,18.898 18.45,4.172 32.46,-4.289 31.1,-6.391"
         style="fill:#17282f;fill-opacity:1;fill-rule:nonzero;stroke:none"
         id="path328" />
      <path
         d="m 2369.77,201.969 c -0.3,-2.617 -12.66,-2.949 -24.98,-10.438 -12.53,-7.121 -18.82,-17.769 -21.26,-16.761 -2.49,0.46 1.08,15.71 16.57,24.73 15.41,9.148 30.48,4.879 29.67,2.469"
         style="fill:#17282f;fill-opacity:1;fill-rule:nonzero;stroke:none"
         id="path330" />
      <path
         d="m 2376.96,126.711 c -2.47,0.289 -1.42,14.031 9.96,25.379 11.3,11.441 25.03,12.558 25.33,10.101 0.67,-2.57 -9.58,-7.16 -18.78,-16.621 -9.41,-9.238 -13.94,-19.511 -16.51,-18.859"
         style="fill:#17282f;fill-opacity:1;fill-rule:nonzero;stroke:none"
         id="path332" />
      <path
         d="m 2341.53,305.539 c -1.87,-1.91 -12.08,5.699 -26.54,9.859 -14.39,4.461 -27.09,3.704 -27.61,6.313 -0.79,2.328 13.28,7.687 30.25,2.551 17,-5.012 25.84,-17.211 23.9,-18.723"
         style="fill:#17282f;fill-opacity:1;fill-rule:nonzero;stroke:none"
         id="path334" />
      <path
         d="m 2351.36,370.641 c -0.35,-1.039 -10.78,0.988 -25.57,9.418 -7.36,4.211 -15.68,10.132 -23.81,17.961 -4.06,3.921 -8.08,8.289 -11.89,13.14 -1.8,2.371 -4.04,4.91 -5.54,8.828 -1.83,3.614 -1,10.801 3.67,13.703 4.05,2.981 9.3,2.989 13.02,1.739 3.81,-1.239 6.59,-3.11 9.13,-4.809 5.19,-3.453 9.84,-7.269 13.94,-11.242 8.16,-7.988 14.05,-16.488 17.99,-24.078 7.89,-15.289 8.56,-26.09 7.53,-26.262 -1.44,-0.418 -4.38,9.5 -13.16,22.953 -4.39,6.699 -10.39,14.149 -18.18,21.168 -3.91,3.469 -8.27,6.828 -13.06,9.86 -4.91,3.39 -9.5,5.101 -11.76,3.191 -0.84,-0.731 -1.04,-1.07 -0.48,-3.07 0.64,-1.891 2.31,-4.11 4.09,-6.461 3.46,-4.59 7.08,-8.809 10.72,-12.649 7.33,-7.652 14.76,-13.769 21.33,-18.461 13.17,-9.41 22.56,-13.601 22.03,-14.929"
         style="fill:#17282f;fill-opacity:1;fill-rule:nonzero;stroke:none"
         id="path336" />
      <path
         d="m 2346.81,368.23 c -1.02,-0.05 -2.73,10.692 2.22,27.2 2.48,8.179 6.84,17.601 13.66,26.781 3.44,4.57 7.48,9.039 12.17,13.18 4.83,3.98 10.95,9.418 21.03,7.007 5.13,-1.648 7.9,-7.117 8.11,-11.019 0.44,-4.07 -0.3,-7.168 -0.78,-10.34 -1.22,-6.32 -3.46,-12.141 -6.24,-17.269 -5.56,-10.301 -13.3,-17.739 -20.54,-22.489 -14.8,-9.633 -26.31,-8.84 -26.21,-7.91 -0.38,1.551 10.08,3.211 22.34,13.18 6.05,4.918 12.41,11.98 16.84,21.14 2.22,4.547 3.96,9.598 4.9,14.969 1.17,5.719 0.72,10.852 -1.51,11.031 -2.53,0.957 -8.34,-1.562 -12,-5.14 -4.3,-3.641 -8.09,-7.571 -11.39,-11.59 -6.56,-8.07 -11.16,-16.422 -14.23,-23.762 -6.15,-14.75 -6.87,-25.07 -8.37,-24.969"
         style="fill:#17282f;fill-opacity:1;fill-rule:nonzero;stroke:none"
         id="path338" />
      <path
         d="m 1669.17,1697.47 c -77.59,-1.8 -151.2,-12.76 -204.63,-69.04 -70.88,-74.65 -158.54,-180.97 -163.51,-254.71 -7.44,-110.21 59.04,-142.97 107.59,-169.84 21.47,-11.89 45.95,-17.25 70.48,-16.3 l 896.8,6.81 28.16,151.9 -580.03,142.95 24.1,218.3 -178.96,-10.07"
         style="fill:#17282f;fill-opacity:1;fill-rule:nonzero;stroke:none"
         id="path340" />
      <path
         d="m 1848.13,1707.54 282.11,13 c 0,0 487.34,-27.09 591.3,-122.38 103.95,-95.3 90.97,-203.58 56.31,-307.53 -34.65,-103.96 -340.01,-768.821 -340.01,-768.821 0,0 24.75,-42.27 10.83,-84.457 C 2427.1,372.02 2369.02,361.5 2369.02,361.5 l -271.2,99.66 c 0,0 -36.82,13 -10.82,47.649 25.98,34.652 43.31,41.152 43.31,41.152 v 69.301 c 0,0 95.29,173.25 103.95,197.078 8.67,23.82 100,376.45 100,376.45 l 60.67,104.25 c 0,0 -146.73,69 -273.9,119.01 l -297,73.19 24.1,218.3"
         style="fill:#17282f;fill-opacity:1;fill-rule:nonzero;stroke:none"
         id="path342" />
      <path
         d="m 2305.7,473.719 c -0.54,-0.649 -9.09,6.113 -23.79,15.601 -14.68,9.52 -35.85,21.321 -60.75,30.821 -24.93,9.441 -48.61,14.691 -65.89,17.32 -17.3,2.68 -28.17,3.301 -28.15,4.148 0,0.59 10.97,1.27 28.63,-0.5 17.61,-1.718 41.87,-6.488 67.26,-16.097 25.35,-9.684 46.64,-22.231 60.97,-32.653 14.37,-10.41 22.11,-18.199 21.72,-18.64"
         style="fill:#33535f;fill-opacity:1;fill-rule:nonzero;stroke:none"
         id="path344" />
      <path
         d="m 2441.25,521.328 c -0.55,-0.437 -6.62,5.852 -15.77,16.594 -9.14,10.738 -21.31,25.969 -34.08,43.297 -12.75,17.351 -23.67,33.5 -31.2,45.422 -7.53,11.941 -11.74,19.589 -11.14,19.98 0.61,0.399 5.9,-6.531 14.19,-17.902 9.47,-13 20.34,-27.93 32.35,-44.41 12.16,-16.368 23.18,-31.188 32.77,-44.09 8.38,-11.297 13.44,-18.418 12.88,-18.891"
         style="fill:#33535f;fill-opacity:1;fill-rule:nonzero;stroke:none"
         id="path346" />
      <path
         d="m 2540.64,1392.25 c 0.16,-0.84 -9.96,-3 -25.7,-8.22 -15.74,-5.19 -36.95,-14.04 -58.39,-27.38 -21.41,-13.41 -38.67,-28.59 -50.25,-40.45 -11.6,-11.84 -17.97,-19.99 -18.67,-19.47 -0.47,0.33 4.89,9.3 15.98,21.98 11.04,12.69 28.32,28.66 50.18,42.36 21.9,13.62 43.84,22.13 60.08,26.48 16.26,4.4 26.68,5.26 26.77,4.7"
         style="fill:#33535f;fill-opacity:1;fill-rule:nonzero;stroke:none"
         id="path348" />
      <path
         d="m 2263.22,921.441 c -0.18,0.047 0.21,2.071 1.11,5.86 1.09,4.328 2.46,9.801 4.16,16.527 4.02,14.961 9.52,35.473 16.25,60.522 14.38,51.56 33.92,121.67 55.51,199.12 11.25,38.84 20.91,75.89 31.76,109.42 12.61,33.27 32.58,58.94 51.06,77.91 18.65,19.04 36.11,31.84 48.49,39.96 6.27,3.99 11.17,7.01 14.63,8.82 3.42,1.88 5.26,2.79 5.35,2.64 0.23,-0.4 -6.79,-4.61 -18.83,-13.13 -11.96,-8.58 -28.92,-21.72 -46.97,-40.84 -17.92,-19.04 -37.21,-44.54 -49.23,-77.02 -10.41,-33.06 -20.06,-70.54 -31.27,-109.25 -22.16,-77.27 -42.21,-147.2 -56.96,-198.65 -7.39,-24.861 -13.43,-45.209 -17.84,-60.06 -2.08,-6.622 -3.76,-12 -5.1,-16.258 -1.22,-3.703 -1.95,-5.621 -2.12,-5.571"
         style="fill:#33535f;fill-opacity:1;fill-rule:nonzero;stroke:none"
         id="path350" />
      <path
         d="m 2013.68,1429.34 c -1.43,-0.13 -7.37,52.62 -13.24,117.8 -5.89,65.21 -9.5,118.15 -8.07,118.28 1.44,0.14 7.37,-52.61 13.25,-117.81 5.88,-65.18 9.49,-118.14 8.06,-118.27"
         style="fill:#33535f;fill-opacity:1;fill-rule:nonzero;stroke:none"
         id="path352" />
      <path
         d="m 1544.13,1288.52 c -0.8,-0.39 -5.15,8.14 -13.98,20.65 -8.78,12.52 -22.63,28.66 -40.97,43.05 -18.4,14.32 -37.42,23.86 -51.69,29.34 -14.27,5.54 -23.61,7.7 -23.42,8.57 0.09,0.55 9.76,-0.34 24.66,-5.1 14.87,-4.7 34.74,-13.98 53.65,-28.71 18.86,-14.78 32.67,-31.82 40.83,-45.11 8.22,-13.3 11.42,-22.48 10.92,-22.69"
         style="fill:#33535f;fill-opacity:1;fill-rule:nonzero;stroke:none"
         id="path354" />
      <path
         d="m 1716.96,1480 c -0.5,-0.8 -12.46,6.88 -33.18,16.3 -20.66,9.46 -50.56,19.83 -84.9,24.82 -34.36,4.87 -65.98,3.33 -88.47,0.05 -22.53,-3.21 -36.16,-7.21 -36.42,-6.3 -0.1,0.35 3.22,1.59 9.36,3.55 6.09,2.06 15.16,4.3 26.48,6.4 22.62,4.24 54.82,6.41 89.79,1.46 34.95,-5.08 65.23,-16.22 85.75,-26.66 10.28,-5.18 18.35,-9.89 23.62,-13.57 5.33,-3.62 8.17,-5.75 7.97,-6.05"
         style="fill:#33535f;fill-opacity:1;fill-rule:nonzero;stroke:none"
         id="path356" />
      <path
         d="m 2392.49,1346.44 c -0.05,-0.18 -2.47,0.23 -7.04,1.16 -5.05,1.09 -11.67,2.53 -19.91,4.32 -17.85,4.01 -42.67,9.59 -73.1,16.42 -61.72,13.83 -147.11,32.37 -241.78,51.12 -94.7,18.74 -180.72,34.14 -243.06,44.87 -30.73,5.27 -55.81,9.58 -73.83,12.66 -8.3,1.49 -14.97,2.69 -20.06,3.6 -4.58,0.88 -6.97,1.42 -6.94,1.6 0.03,0.18 2.47,-0.02 7.1,-0.57 5.13,-0.66 11.84,-1.53 20.2,-2.62 17.54,-2.37 42.87,-6.13 74.13,-11.04 62.52,-9.8 148.71,-24.64 243.48,-43.39 94.72,-18.77 180.05,-37.89 241.59,-52.63 30.78,-7.38 55.62,-13.56 72.74,-18.05 8.15,-2.18 14.69,-3.93 19.69,-5.27 4.49,-1.26 6.83,-2.01 6.79,-2.18"
         style="fill:#33535f;fill-opacity:1;fill-rule:nonzero;stroke:none"
         id="path358" />
      <path
         d="m 1824.03,1463.5 c -1,-0.3 -3.1,11.84 -12.41,28.65 -4.72,8.33 -11.53,17.56 -20.52,26.54 -8.89,9.05 -19.8,18.06 -31.4,27.15 -23.41,17.94 -47.19,30.61 -64.24,39.89 -17.15,9.19 -27.78,14.94 -27.45,15.62 0.31,0.61 11.47,-3.95 29.11,-12.32 17.54,-8.49 41.86,-20.76 65.75,-39.06 11.78,-9.24 22.69,-18.43 31.68,-27.95 9.05,-9.42 15.86,-19.27 20.31,-28.12 4.43,-8.89 6.81,-16.57 8.01,-21.94 1.2,-5.37 1.48,-8.39 1.16,-8.46"
         style="fill:#33535f;fill-opacity:1;fill-rule:nonzero;stroke:none"
         id="path360" />
      <path
         d="m 2822.89,1327.89 c 1.15,-1.11 -13.86,-16.27 -25.54,-39.32 -11.92,-22.93 -15.5,-43.96 -17.07,-43.67 -1.29,-0.01 0.06,22.16 12.44,46.05 12.19,23.97 29.41,37.99 30.17,36.94"
         style="fill:#17282f;fill-opacity:1;fill-rule:nonzero;stroke:none"
         id="path362" />
      <g
         id="g364">
        <g
           id="g366"
           clip-path="url(#clipPath370)">
          <path
             d="m 2184.2,1893.41 h 79.0703 v 451.371 H 2184.2 Z"
             style="fill:#cc4341;fill-opacity:1;fill-rule:nonzero;stroke:none"
             id="path372" />
        </g>
      </g>
      <path
         d="m 2248.39,1893.26 -3.2,7.23 -64.19,452.2 c 1.08,-2.63 2.15,-5.27 3.2,-7.91 9.37,-62.06 23.52,-159.62 38.98,-269.37 9.43,-66.94 18.07,-129.36 25.23,-182 -0.01,-0.05 -0.01,-0.1 -0.02,-0.15"
         style="fill:#0f191d;fill-opacity:1;fill-rule:nonzero;stroke:none"
         id="path374" />
      <path
         d="m 2526.72,2092.82 -208.74,-365.07 -514.31,-11.19 -1.28,-23.29 498,3.7 15.79,0.54 525.87,-1.03 106.27,183.27 135.75,194.56 c 8.89,12.75 -0.27,30.24 -15.82,30.18 l -524.93,-2 c -6.86,-0.03 -13.19,-3.71 -16.6,-9.67"
         style="fill:#dadbd8;fill-opacity:1;fill-rule:nonzero;stroke:none"
         id="path376" />
      <path
         d="m 2948.32,1879.75 c 0,0 27.02,-24.77 22.75,-45.81 -4.27,-21.04 -2.84,-36.68 -22.75,-38.11 0,0 1.42,-27.02 -27.03,-31.29 0,0 6.1,-32.99 -32.3,-38.68 0,0 -11.79,-35.27 -35.97,-26.75 -24.18,8.54 -39.82,18.5 -39.82,18.5 l -7.11,12.79 c 0,0 -35.63,13.4 -26.85,33.52 5.33,12.2 23.75,15.38 23.75,15.38 0,0 -7.66,17.91 2.28,31.28 8.54,11.47 36.36,1.99 36.36,1.99 0,0 -1.65,14.81 8.81,27.22 9.46,11.23 53.74,-19.29 53.74,-19.29 l 24.15,28.85 19.99,30.4"
         style="fill:#f8a58d;fill-opacity:1;fill-rule:nonzero;stroke:none"
         id="path378" />
      <path
         d="m 2888.99,1725.86 c -0.76,-1.22 -20.63,9.76 -44.38,24.51 -23.75,14.76 -42.38,27.71 -41.62,28.93 0.76,1.22 20.62,-9.75 44.38,-24.5 23.74,-14.76 42.37,-27.72 41.62,-28.94"
         style="fill:#f68260;fill-opacity:1;fill-rule:nonzero;stroke:none"
         id="path380" />
      <path
         d="m 2921.29,1764.54 c -0.74,-1.23 -19.18,8.53 -41.18,21.78 -22,13.27 -39.23,25.02 -38.48,26.25 0.74,1.23 19.17,-8.53 41.18,-21.79 21.99,-13.26 39.23,-25.01 38.48,-26.24"
         style="fill:#f68260;fill-opacity:1;fill-rule:nonzero;stroke:none"
         id="path382" />
      <path
         d="m 2877.27,1836.94 c 0.8,1.47 17.31,-7.23 36.51,-19.39 19.22,-12.26 34.72,-21.81 34.34,-22.78 -0.72,-1.7 -17.89,6.09 -37.1,18.37 -19.29,12.2 -34.32,22.73 -33.75,23.8"
         style="fill:#f68260;fill-opacity:1;fill-rule:nonzero;stroke:none"
         id="path384" />
      <path
         d="m 3084.14,2090.66 c 0,-0.09 -0.85,-0.18 -2.51,-0.27 -1.98,-0.07 -4.41,-0.15 -7.39,-0.26 -6.91,-0.12 -16.39,-0.28 -28.39,-0.49 -25.1,-0.19 -60.67,-0.48 -104.44,-0.83 -88.55,-0.19 -210.18,-0.46 -344.53,-0.76 -8.42,0.01 -16.78,0.01 -25.08,0.01 -7.89,0.6 -15.04,-2.87 -19.12,-9.03 -7.92,-14.27 -15.72,-28.33 -23.39,-42.16 -15.37,-27.74 -30.19,-54.5 -44.32,-80.01 -28.31,-50.87 -53.83,-96.7 -75.34,-135.34 -21.44,-38.15 -38.87,-69.15 -51.18,-91.03 -5.97,-10.4 -10.69,-18.62 -14.14,-24.61 -1.53,-2.57 -2.78,-4.65 -3.79,-6.34 -0.88,-1.41 -1.36,-2.12 -1.44,-2.07 -0.08,0.04 0.25,0.83 0.97,2.34 0.9,1.75 2,3.91 3.35,6.58 3.24,6.11 7.67,14.49 13.29,25.1 11.96,22.08 28.89,53.35 49.74,91.83 21.23,38.8 46.41,84.83 74.36,135.89 14.04,25.56 28.79,52.37 44.06,80.17 7.7,13.93 15.55,28.11 23.5,42.5 4.86,7.76 14.71,12.14 23.45,11.37 8.3,0 16.66,0.01 25.08,0.01 134.35,-0.3 255.98,-0.56 344.53,-0.76 43.77,-0.35 79.34,-0.63 104.44,-0.83 12,-0.2 21.48,-0.37 28.39,-0.49 2.99,-0.1 5.41,-0.19 7.39,-0.26 1.66,-0.09 2.51,-0.18 2.51,-0.26"
         style="fill:#17282f;fill-opacity:1;fill-rule:nonzero;stroke:none"
         id="path386" />
      <path
         d="m 2714.08,1907.13 c -9.3,-10.29 -9.51,-25.23 -0.5,-33.37 9.02,-8.13 23.87,-6.39 33.15,3.92 9.29,10.29 9.52,25.23 0.49,33.37 -9.01,8.13 -23.86,6.38 -33.14,-3.92"
         style="fill:#ffffff;fill-opacity:1;fill-rule:nonzero;stroke:none"
         id="path388" />
      <path
         d="m 1424.26,2019.55 c -11.55,6.78 -25.74,13.34 -41.72,18.02 -18.56,5.37 -36.44,7.31 -51.15,7.31 -4.52,0 -8.74,-0.18 -12.59,-0.5 -12.68,-1.04 -21.39,-3.11 -24.65,-4.23 -6.8,-0.8 -13.74,-1.96 -20.83,-3.53 -3.54,-0.78 -15.76,-5.8 -20.47,-5.8 -0.33,0 -0.63,0.03 -0.89,0.08 -3.8,0.82 -7.43,3.96 -7.38,7.85 0.04,4.8 5.12,7.78 9.58,9.57 20.47,8.24 45.16,12.38 69.47,12.38 44,0 86.73,-13.54 100.81,-40.71 -0.06,-0.15 -0.12,-0.3 -0.18,-0.44 m -18.19,3.89 c -22.13,7.97 -43.27,13.89 -64.84,16.52 12.14,-1.07 25.78,-3.32 39.86,-7.39 8.92,-2.61 17.29,-5.75 24.98,-9.13"
         style="fill:#cc4341;fill-opacity:1;fill-rule:nonzero;stroke:none"
         id="path390" />
      <path
         d="m 1423.46,2016.88 c -5.88,2.31 -11.67,4.5 -17.39,6.56 -7.69,3.38 -16.06,6.52 -24.98,9.13 -14.08,4.07 -27.72,6.32 -39.86,7.39 -8.06,0.99 -16.17,1.51 -24.42,1.51 -7.43,0 -14.96,-0.42 -22.66,-1.32 3.26,1.12 11.97,3.19 24.65,4.23 3.85,0.32 8.07,0.5 12.59,0.5 14.71,0 32.59,-1.94 51.15,-7.31 15.98,-4.68 30.17,-11.24 41.72,-18.02 -0.66,-1.68 -0.94,-2.6 -0.8,-2.67 v 0 m 0.57,0.58 c 0.24,0.34 0.56,0.83 0.94,1.46 0.06,-0.11 0.11,-0.22 0.16,-0.33 l -1.1,-1.13"
         style="fill:#0f191d;fill-opacity:1;fill-rule:nonzero;stroke:none"
         id="path392" />
      <path
         d="m 1423.46,2016.88 v 0 c -0.14,0.07 0.14,0.99 0.8,2.67 0.06,0.14 0.12,0.29 0.18,0.44 0.18,-0.36 0.36,-0.71 0.53,-1.07 -0.38,-0.63 -0.7,-1.12 -0.94,-1.46 l -0.57,-0.58"
         style="fill:#0f191d;fill-opacity:1;fill-rule:nonzero;stroke:none"
         id="path394" />
      <path
         d="m 4040.43,18.4609 c 0,-1.4414 -904.56,-2.6015 -2020.12,-2.6015 C 904.359,15.8594 0,17.0195 0,18.4609 c 0,1.4297 904.359,2.6094 2020.31,2.6094 1115.56,0 2020.12,-1.1797 2020.12,-2.6094"
         style="fill:#17282f;fill-opacity:1;fill-rule:nonzero;stroke:none"
         id="path396" />
      <path
         d="m 974.391,3205.96 c 1.726,-1.73 333.789,112.41 333.789,112.41 l -127.68,293.02 -295.586,-113.01 162.596,-93.43 -73.119,-198.99"
         style="fill:#33535f;fill-opacity:1;fill-rule:nonzero;stroke:none"
         id="path398" />
      <path
         d="m 1130.15,3523.1 v 398.97 c 0,0 458.09,83.75 788.12,78.82 330.02,-4.93 669.9,-59.1 669.9,-59.1 v -383.04 c 0,0 -1034.4,92.41 -1458.02,-35.65"
         style="fill:#33535f;fill-opacity:1;fill-rule:nonzero;stroke:none"
         id="path400" />
      <path
         d="m 1127.77,3522.76 180.41,-206.12 v 242.11 c 0,0 -150.9,-18.05 -180.41,-35.99"
         style="fill:#17282f;fill-opacity:1;fill-rule:nonzero;stroke:none"
         id="path402" />
      <path
         d="m 1130.15,3922.1 c 1.44,-0.01 2.07,-89.42 1.42,-199.67 -0.66,-110.29 -2.36,-199.66 -3.8,-199.66 -1.44,0.02 -2.07,89.4 -1.41,199.69 0.66,110.26 2.36,199.65 3.79,199.64"
         style="fill:#17282f;fill-opacity:1;fill-rule:nonzero;stroke:none"
         id="path404" />
      <path
         d="m 2743.43,3236.56 c -1.73,-1.72 -333.79,112.42 -333.79,112.42 l 127.68,293.01 295.59,-113.01 -162.6,-93.42 73.12,-199"
         style="fill:#33535f;fill-opacity:1;fill-rule:nonzero;stroke:none"
         id="path406" />
      <path
         d="m 2590.04,3553.37 -180.4,-206.12 v 224.59 c 60.14,-2.01 120.28,-8.16 180.4,-18.47"
         style="fill:#17282f;fill-opacity:1;fill-rule:nonzero;stroke:none"
         id="path408" />
      <path
         d="m 2588.17,3941.76 c 1.44,0.01 3.02,-86.94 3.54,-194.19 0.52,-107.27 -0.22,-194.22 -1.67,-194.23 -1.43,0 -3.01,86.93 -3.54,194.21 -0.52,107.24 0.22,194.2 1.67,194.21"
         style="fill:#17282f;fill-opacity:1;fill-rule:nonzero;stroke:none"
         id="path410" />
      <path
         d="m 1388.49,3747.13 c -4.41,31.81 16.86,57.96 49.72,62.52 18.24,2.53 34.39,-1.99 46.01,-12.68 l -13.67,-16.64 c -8.22,7.16 -17.7,10.15 -28.25,8.68 -19.75,-2.74 -31.85,-18.55 -29.09,-38.45 2.76,-19.9 18.71,-31.83 38.46,-29.09 10.55,1.47 18.86,6.92 24.8,16.19 l 17.68,-12.29 c -8.26,-13.6 -22.56,-22.34 -40.96,-24.89 -32.71,-4.53 -60.29,14.84 -64.7,46.65"
         style="fill:#ffffff;fill-opacity:1;fill-rule:nonzero;stroke:none"
         id="path412" />
      <path
         d="m 1588.76,3771.54 c -2.07,20.13 -17.71,32.44 -36.64,30.49 -18.92,-1.94 -31.73,-17.18 -29.66,-37.31 2.07,-20.13 17.72,-32.44 36.64,-30.5 18.92,1.95 31.73,17.18 29.66,37.32 z m -91.12,-9.38 c -3.24,31.49 18.88,57.32 52.34,60.76 33.3,3.42 60.35,-17.2 63.6,-48.83 3.26,-31.64 -19.03,-57.34 -52.33,-60.76 -33.46,-3.44 -60.38,17.35 -63.61,48.83"
         style="fill:#ffffff;fill-opacity:1;fill-rule:nonzero;stroke:none"
         id="path414" />
      <path
         d="m 1733.3,3728.84 -4.25,63.76 -27.9,-54.54 -11.08,-0.72 -34.42,49.17 4.02,-62.4 -23.08,-1.48 -6.83,106.27 20.34,1.31 44.03,-63.48 34.92,68.56 20.19,1.3 7.14,-106.26 -23.08,-1.49"
         style="fill:#ffffff;fill-opacity:1;fill-rule:nonzero;stroke:none"
         id="path416" />
      <path
         d="m 1846.03,3800.9 c -0.33,11.71 -8.13,18.35 -23.19,17.92 l -20.09,-0.56 1.04,-36.97 20.09,0.57 c 15.06,0.42 22.47,7.48 22.15,19.04 z m 24.95,0.7 c 0.66,-23.73 -16.72,-38.99 -45.17,-39.79 l -21.45,-0.6 0.82,-29.36 -24.64,-0.69 -3,106.49 46.1,1.29 c 28.45,0.8 46.66,-13.46 47.34,-37.34"
         style="fill:#ffffff;fill-opacity:1;fill-rule:nonzero;stroke:none"
         id="path418" />
      <path
         d="m 1889.69,3840.3 h 24.65 v -86.41 h 53.39 v -20.08 h -78.04 v 106.49"
         style="fill:#ffffff;fill-opacity:1;fill-rule:nonzero;stroke:none"
         id="path420" />
      <path
         d="m 2063.76,3750.89 -0.57,-19.78 -82.46,2.4 3.09,106.49 80.48,-2.34 -0.57,-19.78 -55.99,1.63 -0.67,-23.13 49.45,-1.43 -0.56,-19.17 -49.45,1.44 -0.71,-24.65 57.96,-1.68"
         style="fill:#ffffff;fill-opacity:1;fill-rule:nonzero;stroke:none"
         id="path422" />
      <path
         d="m 2109.28,3815.01 -34,2.05 1.21,20.04 92.62,-5.59 -1.21,-20.04 -34.02,2.05 -5.19,-86.23 -24.6,1.48 5.19,86.24"
         style="fill:#ffffff;fill-opacity:1;fill-rule:nonzero;stroke:none"
         id="path424" />
      <path
         d="m 2258.8,3736.29 -1.82,-19.7 -82.12,7.61 9.82,106.07 80.16,-7.43 -1.83,-19.7 -55.76,5.17 -2.13,-23.03 49.24,-4.57 -1.77,-19.09 -49.24,4.57 -2.27,-24.55 57.72,-5.35"
         style="fill:#ffffff;fill-opacity:1;fill-rule:nonzero;stroke:none"
         id="path426" />
      <path
         d="m 2324.9,3728.45 c 20.95,-2.79 36.35,7.89 39.04,28.09 2.71,20.2 -9.34,34.55 -30.3,37.34 l -22.31,2.99 -8.74,-65.43 z m -35.31,91.73 47.93,-6.41 c 34.53,-4.61 55.42,-28.58 51.15,-60.54 -4.27,-31.96 -30.72,-49.6 -65.25,-44.99 l -47.94,6.41 14.11,105.53"
         style="fill:#ffffff;fill-opacity:1;fill-rule:nonzero;stroke:none"
         id="path428" />
      <path
         d="m 2793.14,3905.48 26.14,-30.74 73.78,30.74 -21.51,32.29 -78.41,-32.29"
         style="fill:#33535f;fill-opacity:1;fill-rule:nonzero;stroke:none"
         id="path430" />
      <path
         d="m 2759.32,4051.52 c 0,-21.22 -17.2,-38.43 -38.43,-38.43 -21.22,0 -38.42,17.21 -38.42,38.43 0,21.22 17.2,38.43 38.42,38.43 21.23,0 38.43,-17.21 38.43,-38.43"
         style="fill:#f2575d;fill-opacity:1;fill-rule:nonzero;stroke:none"
         id="path432" />
      <path
         d="m 1899.1,3478.76 c 0,-10.61 -8.6,-19.21 -19.21,-19.21 -10.62,0 -19.22,8.6 -19.22,19.21 0,10.61 8.6,19.22 19.22,19.22 10.61,0 19.21,-8.61 19.21,-19.22"
         style="fill:#f2575d;fill-opacity:1;fill-rule:nonzero;stroke:none"
         id="path434" />
      <path
         d="m 1004.58,3767.34 c 0,-8.05 -6.533,-14.57 -14.584,-14.57 -8.047,0 -14.574,6.52 -14.574,14.57 0,8.05 6.527,14.58 14.574,14.58 8.051,0 14.584,-6.53 14.584,-14.58"
         style="fill:#f2575d;fill-opacity:1;fill-rule:nonzero;stroke:none"
         id="path436" />
      <path
         d="m 950.383,3928.08 43.035,-2.62 20.432,84.55 -40.186,-1.64 -23.281,-80.29"
         style="fill:#33535f;fill-opacity:1;fill-rule:nonzero;stroke:none"
         id="path438" />
      <path
         d="m 2294.42,3252.78 14.47,-40.62 85.78,14.36 -17.26,36.32 -82.99,-10.06"
         style="fill:#f2575d;fill-opacity:1;fill-rule:nonzero;stroke:none"
         id="path440" />
      <path
         d="m 1426.57,3487.03 -26.5,-34.01 58.16,-64.66 21.38,34.06 -53.04,64.61"
         style="fill:#33535f;fill-opacity:1;fill-rule:nonzero;stroke:none"
         id="path442" />
      <path
         d="m 1323.86,4285.79 101.59,-103.57 142.91,54.01 5.65,-35.45 -61.89,-126.76 57.05,-94.61 -4.78,-28.24 -138.29,23.27 -81.75,-89.74 -19.2,14.58 -16.94,114.11 -129.02,67.17 -5.64,26.03 129.89,35.57 20.42,143.63"
         style="fill:#f2575d;fill-opacity:1;fill-rule:nonzero;stroke:none"
         id="path444" />
      <path
         d="m 1344.35,3884.7 -19.2,14.58 -16.94,114.11 -129.02,67.17 -5.64,26.03 129.89,35.57 20.42,143.63 101.59,-103.57 142.91,54.01 5.65,-35.45 -61.89,-126.76 57.05,-94.61 -4.78,-28.24 -138.29,23.27 -81.75,-89.74"
         style="fill:#cc4341;fill-opacity:1;fill-rule:nonzero;stroke:none"
         id="path446" />
      <path
         d="m 1323.86,4314.84 101.59,-103.57 142.91,24.96 -67.1,-128.62 67.91,-128.2 -143.07,24.07 -100.95,-104.2 -21.31,143.51 -130.29,63.8 129.89,64.61 20.42,143.64"
         style="fill:#f2575d;fill-opacity:1;fill-rule:nonzero;stroke:none"
         id="path448" />
      <path
         d="m 2376.37,4285.79 -101.59,-103.57 -142.92,54.01 -5.64,-35.45 61.89,-126.76 -57.05,-94.61 4.79,-28.24 138.28,23.27 81.75,-89.74 19.19,14.58 16.95,114.11 129.02,67.17 5.64,26.03 -129.9,35.57 -20.41,143.63"
         style="fill:#f2575d;fill-opacity:1;fill-rule:nonzero;stroke:none"
         id="path450" />
      <path
         d="m 2355.88,3884.7 -81.75,89.74 -138.28,-23.27 -4.79,28.24 57.05,94.61 -61.89,126.76 5.64,35.45 142.92,-54.01 101.59,103.57 20.41,-143.63 129.9,-35.57 -5.64,-26.03 -129.02,-67.17 -16.95,-114.11 -19.19,-14.58"
         style="fill:#cc4341;fill-opacity:1;fill-rule:nonzero;stroke:none"
         id="path452" />
      <path
         d="m 2376.37,4314.84 -101.59,-103.57 -142.92,24.96 67.11,-128.62 -67.91,-128.2 143.07,24.07 100.94,-104.2 21.31,143.51 130.31,63.8 -129.91,64.61 -20.41,143.64"
         style="fill:#f2575d;fill-opacity:1;fill-rule:nonzero;stroke:none"
         id="path454" />
      <path
         d="m 1846.78,4467.44 84.5,-165.06 194.94,11.46 -6.62,-45.39 -123.79,-131.09 33.56,-137.17 -16.59,-32.64 -159.86,81.08 -133.92,-78.36 -17.87,25.11 22.8,145.67 -131.83,131.09 3.03,33.92 172.03,-6.09 79.62,167.47"
         style="fill:#f2575d;fill-opacity:1;fill-rule:nonzero;stroke:none"
         id="path456" />
      <path
         d="m 2012.78,3967.55 -159.86,81.08 -133.92,-78.36 -17.87,25.11 22.8,145.67 -131.83,131.09 3.03,33.92 172.03,-6.09 79.62,167.47 84.5,-165.06 194.94,11.46 -6.62,-45.39 -123.79,-131.09 33.56,-137.17 -16.59,-32.64"
         style="fill:#cc4341;fill-opacity:1;fill-rule:nonzero;stroke:none"
         id="path458" />
      <path
         d="m 1857.84,4502.88 84.5,-165.07 183.88,-23.97 -130.88,-131.36 34.03,-182.29 -165.39,83.87 -162.85,-88.68 28.67,183.2 -134.67,127.47 183.09,29.36 79.62,167.47"
         style="fill:#f2575d;fill-opacity:1;fill-rule:nonzero;stroke:none"
         id="path460" />
      <path
         d="m 2194.5,3021.73 141.24,-15.56 c 33.99,48.4 81.36,88.31 139.67,113.4 167.69,72.17 362.13,-5.27 434.3,-172.96 72.17,-167.69 -5.26,-362.14 -172.96,-434.31 -167.69,-72.17 -362.14,5.27 -434.31,172.97 -30.13,70.01 -34.09,144.68 -16.38,213.18 l -0.1,-0.16 -91.46,123.44"
         style="fill:#fafaf9;fill-opacity:1;fill-rule:nonzero;stroke:none"
         id="path462" />
      <path
         d="m 2194.5,3021.73 c 5.54,-7.35 34.09,-45.21 92.51,-122.67 l -2.18,-0.14 0.1,0.16 1.76,0.51 0.62,-1.47 c -11.68,-45.67 -16.18,-105.83 2.19,-170.72 4.69,-16.09 10.36,-32.56 18.28,-48.58 4.01,-7.96 7.82,-16.2 12.17,-24.29 4.88,-7.79 9.83,-15.68 14.84,-23.68 21.46,-31.05 49.4,-60.16 83.51,-83.83 34.02,-23.68 74.16,-41.86 117.92,-51.43 43.67,-9.55 91.01,-10.65 137.58,-0.63 46.49,10.08 92.13,30.6 131.71,61.01 39.41,30.42 73.57,70.21 95.52,117.23 22.57,47.73 34.65,99.89 32.77,150.86 -1.42,50.95 -14.77,100.19 -37.04,143.22 -22.24,43.03 -53.2,80.08 -89.36,107.77 -36.05,27.87 -76.48,47.11 -117.09,57.95 -40.66,10.92 -81.44,13.45 -119.37,9.63 -38.05,-3.96 -72.61,-15.37 -103.5,-28.63 -61.56,-28.25 -103.96,-70.83 -130.68,-108.54 l -1.16,-0.53 c -89.36,10.64 -132.36,15.76 -141.1,16.8 8.75,-0.88 51.83,-5.25 141.37,-14.32 l -1.15,-0.52 c 26.59,38.22 69.11,81.52 131.19,110.38 31.16,13.56 66.09,25.25 104.59,29.4 38.39,4.01 79.72,1.59 120.96,-9.36 41.19,-10.88 82.24,-30.28 118.87,-58.49 36.75,-28.02 68.24,-65.57 90.88,-109.23 22.66,-43.64 36.28,-93.65 37.75,-145.4 1.93,-51.78 -10.31,-104.77 -33.24,-153.25 -22.31,-47.76 -57.01,-88.19 -97.06,-119.06 -40.25,-30.87 -86.59,-51.66 -133.81,-61.83 -47.31,-10.12 -95.37,-8.92 -139.66,0.86 -44.37,9.79 -85.03,28.33 -119.46,52.43 -34.51,24.08 -62.73,53.68 -84.34,85.2 -5.04,8.12 -10.02,16.13 -14.93,24.03 -4.36,8.2 -8.19,16.55 -12.23,24.63 -7.93,16.23 -13.59,32.92 -18.26,49.21 -18.26,65.7 -13.32,126.44 -1.17,172.37 l 2.38,-0.97 -0.08,-0.16 -1.75,-0.5 -0.43,0.37 c -57.09,78.43 -85,116.77 -90.42,124.21"
         style="fill:#17282f;fill-opacity:1;fill-rule:nonzero;stroke:none"
         id="path464" />
      <path
         d="m 2484.22,2933.61 c 0.09,-0.09 0.17,-1.65 0.26,-4.58 0.07,-3.28 0.15,-7.51 0.26,-12.81 0.14,-11.55 0.34,-27.71 0.59,-48.07 0.28,-41.46 0.67,-99.91 1.15,-169.88 l -2.26,2.25 c 68.51,0.11 149.21,0.22 235.32,0.36 0.59,0.55 -4.92,-4.92 -2.58,-2.57 v 0.07 0.12 0.25 0.5 1.02 2.01 4.03 8.03 c 0,5.34 0,10.66 0,15.96 0.01,10.59 0.01,21.08 0.02,31.46 0.03,20.76 0.05,41.07 0.07,60.83 0.09,39.5 0.18,76.78 0.26,111.01 l 2.25,-2.25 c -69.97,0.47 -128.43,0.87 -169.89,1.15 -20.36,0.25 -36.51,0.45 -48.06,0.59 -5.31,0.11 -9.53,0.19 -12.82,0.26 -2.93,0.08 -4.48,0.17 -4.57,0.26 -0.08,0.08 1.31,0.16 4.08,0.25 3.17,0.06 7.25,0.15 12.38,0.26 11.43,0.14 27.41,0.34 47.56,0.59 41.8,0.28 100.75,0.67 171.32,1.15 l 2.24,0.01 0.01,-2.27 c 0.08,-34.23 0.17,-71.51 0.27,-111.01 0.02,-19.76 0.03,-40.07 0.06,-60.83 0,-10.38 0.01,-20.87 0.01,-31.46 0.01,-5.3 0.01,-10.62 0.01,-15.96 v -8.03 -4.03 -2.01 -1.02 -0.5 -0.25 -0.12 -0.07 c 2.33,2.31 -3.16,-3.22 -2.62,-2.64 -86.11,0.12 -166.81,0.24 -235.32,0.35 h -2.26 l 0.02,2.25 c 0.47,70.56 0.86,129.51 1.14,171.32 0.25,20.14 0.45,36.13 0.59,47.56 0.11,5.12 0.19,9.21 0.26,12.38 0.09,2.77 0.17,4.16 0.25,4.08"
         style="fill:#17282f;fill-opacity:1;fill-rule:nonzero;stroke:none"
         id="path466" />
      <path
         d="m 2694.16,2894.7 c 3.38,-2.68 -28.29,-48.27 -70.72,-101.83 -8.47,-10.69 -16.74,-20.88 -24.4,-30.15 l -5.03,-6.08 -5.64,5.07 c -36.75,33.11 -61.69,58.52 -59.44,61.13 2.26,2.62 31.04,-18.37 69.14,-49.9 l -10.66,-1.01 c 7.27,9.59 15.31,19.96 23.79,30.65 42.43,53.55 79.58,94.79 82.96,92.12"
         style="fill:#f2575d;fill-opacity:1;fill-rule:nonzero;stroke:none"
         id="path468" />
    </g>
  </g>
</svg>
