<?xml version="1.0" encoding="UTF-8"?>

<svg xmlns="http://www.w3.org/2000/svg" viewBox="0 0 200 200">
  <g transform="translate(40,-10)">
    <polygon points="102.38 145.31 102.38 184.81 69.13 151.57 69.13 161.42 41.21 187.4 41.21 57.58 69.13 31.6 69.13 112.07 102.38 145.31" fill="#fff" stroke="#a5d6a7" stroke-miterlimit="10" stroke-width="2"/>
    <path d="M125.02,51.51l-104.38,113.75-.23-37.93c1.71-1.57,72.78-58.86,74.55-60.47l-97.65,30.91-.53-37.63,128.24-8.63Z" fill="#231f20" stroke="#a5d6a7" stroke-miterlimit="10" stroke-width="2"/>
    <path d="M80.32,126.63c0,1.77-.22,3.49-.62,5.13-2.31,9.35-10.75,16.29-20.82,16.29-2.97,0-5.8-.6-8.37-1.7-7.68-3.26-13.07-10.87-13.07-19.74,0-11.84,9.6-21.44,21.44-21.44v6.67c-8.13.01-14.71,6.61-14.71,14.74v.03c.01,7.08,5.02,12.99,11.69,14.4.98.21,1.99.31,3.02.32h.03c6.32,0,11.71-3.98,13.8-9.56h-13.76s0-5.13,0-5.13h21.37Z" fill="#a5d6a7" stroke="#231f20" stroke-miterlimit="10" stroke-width="2"/>
  </g>
</svg>
