<?xml version="1.0" encoding="UTF-8"?>
<svg xmlns="http://www.w3.org/2000/svg" viewBox="0 0 500 500">
  <defs>
    <style>
      .cls-1 {
        fill: #f4b8ab;
      }

      .cls-2, .cls-3 {
        fill: #383952;
      }

      .cls-2, .cls-4 {
        opacity: .36;
      }

      .cls-5 {
        fill: #7c9e1e;
      }

      .cls-6 {
        fill: #ffe5e2;
      }

      .cls-7 {
        fill: #af2f48;
      }

      .cls-8 {
        fill: #d35473;
      }

      .cls-9 {
        fill: #fff8f8;
      }

      .cls-10 {
        fill: #fff;
      }

      .cls-10, .cls-11 {
        opacity: .54;
      }

      .cls-12 {
        fill: #773c4d;
      }

      .cls-13 {
        fill: #542633;
      }

      .cls-14 {
        fill: #f49947;
      }

      .cls-15 {
        fill: #3b364d;
      }

      .cls-16 {
        stroke: #191918;
        stroke-width: 2px;
      }

      .cls-16, .cls-17, .cls-18 {
        fill: none;
        stroke-miterlimit: 10;
      }

      .cls-11 {
        fill: #232433;
      }

      .cls-17 {
        stroke: #e56a85;
        stroke-linecap: round;
      }

      .cls-19 {
        fill: #ffc55a;
      }

      .cls-18 {
        stroke: #aab2c8;
      }

      .cls-20 {
        fill: #f27c49;
      }

      .cls-21, .cls-4 {
        fill: #426313;
      }

      .cls-22 {
        fill: #31344c;
      }

      .cls-23 {
        fill: #aab2c8;
      }

      .cls-24 {
        fill: #e0e7ff;
      }

      .cls-25 {
        fill: #a88f14;
      }

      .cls-26 {
        fill: #c3c9f4;
      }

      .cls-27 {
        fill: #edf1fc;
      }

      .cls-28 {
        fill: #b7ac15;
      }

      .cls-29 {
        fill: #965363;
      }

      .cls-30 {
        fill: #dd6595;
        opacity: .53;
      }

      .cls-31 {
        fill: #61648a;
      }

      .cls-32 {
        fill: #6d3744;
      }

      .cls-33 {
        fill: #3a3852;
      }

      .cls-34 {
        fill: #fcfcfc;
      }
    </style>
  </defs>
  <g id="OBJECTS">
    <g>
      <path class="cls-9" d="M430.29,421.58c53.24-54.44,30.19-138.91-72.96-158.18-103.15-19.27-125.39-134.7-219.2-110.63C44.33,176.85,8.71,354.13,104.98,421.58H430.29Z"/>
      <rect class="cls-15" x="423.73" y="243.35" width="6.56" height="164.27" transform="translate(854.03 650.96) rotate(180)"/>
      <path class="cls-6" d="M182.75,421.58c0,2.38-20.87,4.31-46.62,4.31s-46.62-1.93-46.62-4.31,20.87-4.31,46.62-4.31,46.62,1.93,46.62,4.31Z"/>
      <ellipse class="cls-6" cx="309.02" cy="426.19" rx="90.62" ry="8.92"/>
      <g>
        <rect class="cls-23" x="50.75" y="123.15" width="147.91" height="131.12" rx="10.76" ry="10.76"/>
        <rect class="cls-24" x="60.77" y="133.99" width="127.85" height="109.44"/>
        <line class="cls-18" x1="124.7" y1="133.99" x2="124.7" y2="243.43"/>
        <line class="cls-18" x1="188.63" y1="188.71" x2="60.77" y2="188.71"/>
        <polygon class="cls-10" points="116.71 133.99 73.83 243.35 92.79 243.35 136.13 133.99 116.71 133.99"/>
        <polygon class="cls-10" points="149.86 133.99 106.98 243.35 125.95 243.35 169.29 133.99 149.86 133.99"/>
      </g>
      <rect class="cls-12" x="328.82" y="237.47" width="125.9" height="11.74"/>
      <rect class="cls-29" x="374.42" y="237.47" width="80.3" height="11.74"/>
      <g>
        <path class="cls-31" d="M356.07,218.61h64.22v18.86h-64.22c-2.23,0-4.05-1.81-4.05-4.05v-10.76c0-2.23,1.81-4.05,4.05-4.05Z"/>
        <rect class="cls-27" x="356.98" y="222.6" width="64.41" height="10.89"/>
        <rect class="cls-24" x="356.82" y="222.6" width="45.98" height="10.89"/>
        <path class="cls-19" d="M345.53,199.76h64.22v18.86h-64.22c-2.23,0-4.05-1.81-4.05-4.05v-10.76c0-2.23,1.81-4.05,4.05-4.05Z"/>
        <rect class="cls-27" x="346.28" y="203.74" width="64.41" height="10.89"/>
        <rect class="cls-24" x="346.28" y="203.74" width="46.3" height="10.89"/>
        <path class="cls-7" d="M360.09,180.9h64.22v18.86h-64.22c-2.23,0-4.05-1.81-4.05-4.05v-10.76c0-2.23,1.81-4.05,4.05-4.05Z"/>
        <rect class="cls-27" x="361.06" y="184.88" width="64.41" height="10.89"/>
        <rect class="cls-24" x="360.84" y="184.88" width="43.41" height="10.89"/>
      </g>
      <g>
        <path class="cls-19" d="M352.79,334.6c.09,14.03-1.24,27.4-4.86,39.44,0,0,0,.02,0,.03-10.16,33.69-38.42,56.91-104.49,54.76-89.67-2.92-105.96-86.3-113.48-164.26-6.11-63.26,12.91-109.81,69.99-125.13,13.27-3.56,28.61-5.44,46.17-5.44,80.7,0,106.34,147.26,106.68,200.61Z"/>
        <path class="cls-14" d="M347.92,374.06c-10.16,33.69-38.42,56.91-104.49,54.76-89.67-2.92-105.96-86.3-113.48-164.26-6.11-63.26,12.91-109.81,69.99-125.13-49.02,29.88-61.2,84.33-41.16,167.15,20.03,82.82,70.58,106.91,103.31,106.96,32.73,.06,73.81-10.62,85.83-39.48Z"/>
        <path class="cls-14" d="M223.38,212.17c-63.96,11.39-36.06,102.75-21.92,128.34,14.14,25.58,20.16,55.88,52.83,57.23,32.67,1.35,74.41-13.47,78.45-24.24,4.04-10.77-14.44-66.92-14.44-66.92,0,0-2.56-56.82-20.26-71.75-17.7-14.92-53.42-26.44-74.66-22.66Z"/>
        <path class="cls-20" d="M309.02,366.26c-11.68,21.84-51.51,29.52-65.15,26.06-8.03-2.04-17.67-9.33-26.43-19.8-5.6-9.86-10.08-21.35-15.97-32.01-2.22-4.01-4.76-9.62-7.24-16.29-4.87-23.46-4.73-51.32,4.43-60.81,12.44-12.87,24.51-21.94,25.38-29.91,.67-6.26-6.43-14.51-5-20.38,1.39-.36,2.84-.67,4.35-.93,17.5-3.12,44.81,4.14,63.8,15.14,1.83,6.92,1.99,16.19,6.28,19.2,6.61,4.6,16.82,33.46,19.41,47.02,2.58,13.55-3.85,72.73-3.85,72.73Z"/>
      </g>
      <g>
        <path class="cls-7" d="M395.9,400.9c.52,8.22,24.3-2.27,27.44-6.82,0,0-13.02,37.42-19.8,37.42s-25.26-19.49-25.26-19.49l2.22-11.11h15.39Z"/>
        <path class="cls-8" d="M403.54,431.5c-7.38,3.16,11.06-43.36,19.8-42.31,8.74,1.05-10.27,38.23-19.8,42.31Z"/>
        <path class="cls-22" d="M398.72,347.03c-.48,24.05-6.73,53.88-6.73,53.88h-15.4s-9.47-20.3-13.9-40.73c-1.12-5.12-1.91-10.26-2.16-15.08,0,0-23.86,7.22-46.95,2.88-9.6-1.8-20.48-4.85-29.91-7.8-13.23-4.13-23.61-8.07-23.61-8.07l.78-.99,16.84-21.3,45.32-6.82,5.31-.8,32.22,9.99c28.58,3.09,38.68,10.78,38.19,34.84Z"/>
        <path class="cls-11" d="M362.69,360.18c-1.12-5.12-1.91-10.26-2.16-15.08,0,0-23.86,7.22-46.95,2.88-9.6-1.8-20.48-4.85-29.91-7.8l-22.83-9.06-2-.79-3.78-15.76,48.74-17.03,19.19,5.46,32.24,9.17c-7.79,14,7.89,30.55,11.33,35.53,3.44,4.98,13.23-3.06,19.44,0,6.21,3.06-18.38,1.59-23.31,12.47Z"/>
        <path class="cls-7" d="M371.79,414.37c7.08,15.38,17.57,22.73,23.17,20.28l-2.45-25.53-10.14-4.37-10.58,9.62Z"/>
        <path class="cls-8" d="M394.96,434.65c-12.46,2.08-10.14-22.04-9.44-33.75,.7-11.71,10.49-10.66,11.54-1.57,1.05,9.09,6.29,33.92-2.1,35.32Z"/>
        <path class="cls-3" d="M382.37,404.75l-10.58,9.62c-43.3-12.51-68.79-51.95-68.79-51.95-24.05,27.9-50.99,34.16-72.67,0,0,0,1.37-15.18,18.95-26.89,3.41-2.28,7.43-4.43,12.18-6.3,18.8-7.44,43.8-8.89,59.21-8.98,9.3-.05,18.01,4.48,23.37,12.07,9.06,12.81,17.7,28.7,24.48,42.33,8.33,16.76,13.85,30.09,13.85,30.09Z"/>
        <path class="cls-11" d="M382.37,404.75l-10.58,9.62c-43.3-12.51-68.79-51.95-68.79-51.95-24.05,27.9-50.99,34.16-72.67,0,0,0,1.37-15.18,18.95-26.89l18.15-3.36c-21.18,41.59,29.74,31.89,38.92,24.31,9.19-7.59,17.86-15.19,21.96-15.61,4.1-.42-17.54,15.57-2.27,33.78,15.26,18.21,50.48,29.56,42.49,0,8.33,16.76,13.85,30.09,13.85,30.09Z"/>
        <path class="cls-32" d="M276.85,197.61h-.65s-6.41,24.55-17.35,33.7c-1.97,1.65-4.09,2.8-6.34,3.22-14.76,2.73-27.61-14.08-30.04-25.61-1.36-6.45,1.04-10.41,3.42-12.63,1.87-1.78,3.73-2.47,3.73-2.47,0,0,.97-18.19,7.3-17.86,6.09,.31,5.07,2.73,4.99,2.91,.39-.52,13.65-18.15,22.76-16.23,9.26,1.95,2.76,15.58,2.76,15.58,0,0,11.69-11.84,15.58-5.03,3.9,6.82-7.63,15.1-7.63,15.1,0,0,9.9-.16,10.88,3.42,.97,3.56-.49,6.98-9.42,5.9Z"/>
        <path class="cls-13" d="M258.85,231.31c-1.97,1.65-4.09,2.8-6.34,3.22-14.76,2.73-27.61-14.08-30.04-25.61-1.36-6.45,1.04-10.41,3.42-12.63,2.2,2.85,5.13,8.57,11.84,1.32h3.11l18.02,33.7Z"/>
        <path class="cls-31" d="M298.04,304.35l-67.38,62.46c-3.28-2.95-6.13-6.02-8.59-9.22h0c-4.58-5.91-7.87-12.22-10.21-18.8-1.75-4.94-2.97-10.03-3.77-15.22-1.85-11.84-1.59-24.21-.85-36.5,1.75-28.78,10.45-48,45-48.48,0,0,15.84-4.43,27.56,1.89,9.22,4.96,15.23,41.63,17.37,57.06,.58,4.18,.88,6.81,.88,6.81Z"/>
        <path class="cls-2" d="M283.69,275.9c-35.47,13.3-50.16-12.5-50.16-12.5l-11.47,41.23,24.54,7.56,42.73-4.45-5.65-31.84Z"/>
        <path class="cls-2" d="M298.04,304.35l-67.38,62.46c-3.28-2.95-6.13-6.02-8.59-9.22,11.72-.89,36.9-28.92,30.29-30.38-5.92-1.3-26.29,12.56-40.5,11.58-1.75-4.94-2.97-10.03-3.77-15.22l21.65-18.95,67.43-7.09c.58,4.18,.88,6.81,.88,6.81Z"/>
        <path class="cls-1" d="M260.06,296.05c7.91-5.35,17.13-.89,20.39,1.49,3.27,2.38,0,8.62,0,8.62,0,0-3.57-2.08-4.75-2.38-1.19-.3-6.92,4.16-18.32,2.38-11.4-1.78,2.68-10.1,2.68-10.1Z"/>
        <path class="cls-31" d="M213.82,258.73c15.52-11.57,24.31-1.4,23.56,18.6l-.75,20s19.79-6.32,24.64-6.32c0,0,.42,13.69,0,18.6,0,0-23.93,23.16-39.72,24.91-15.79,1.75-12.63-29.48-14.04-43.86-1.4-14.39,.92-27.91,6.32-31.93Z"/>
        <g>
          <path class="cls-26" d="M277.72,307.08l11.77-47.69c1.2-4.86,5.56-8.28,10.57-8.28h67.55c4.44,0,7.68,4.18,6.58,8.48l-13.63,49.86-82.85-2.38Z"/>
          <path class="cls-24" d="M282.45,307.08l11.77-47.69c1.2-4.86,5.56-8.28,10.57-8.28h67.55c4.44,0,7.68,4.18,6.58,8.48l-13.63,49.86-82.85-2.38Z"/>
          <path class="cls-26" d="M345.78,311.83h-85.94c-1.31,0-2.38-1.06-2.38-2.38h0c0-1.31,1.06-2.38,2.38-2.38h85.94c1.31,0,2.38,1.06,2.38,2.38h0c0,1.31-1.06,2.38-2.38,2.38Z"/>
          <path class="cls-24" d="M366.04,311.83h-85.94c-1.31,0-2.38-1.06-2.38-2.38h0c0-1.31,1.06-2.38,2.38-2.38h85.94c1.31,0,2.38,1.06,2.38,2.38h0c0,1.31-1.06,2.38-2.38,2.38Z"/>
          <path class="cls-26" d="M337.31,280.15c-1.13,6.2-3.94,10.88-6.28,10.45s-3.31-5.8-2.17-12c1.13-6.2,3.94-10.88,6.28-10.45,2.33,.43,3.31,5.8,2.17,12Z"/>
        </g>
        <path class="cls-1" d="M280.7,201.6c1.5,21.96-2,31.69-14.47,32.93v5.11c0,3.79-3.07,6.86-6.86,6.86h0c-3.79,0-6.86-3.07-6.86-6.86v-5.11s-9.98-4.24-11.98-10.48,0-1,0-1l-.89-25.45h41.38l-.32,3.99Z"/>
        <path class="cls-1" d="M241.16,213.49c-3.14-5.72-6.83-3.32-7.57,0-.74,3.32,5.91,11.41,7.57,8.57,1.66-2.84,0-8.57,0-8.57Z"/>
        <path class="cls-32" d="M234.28,194.79c6.68,8.12,25.62,12.34,32.47,10.39,6.85-1.95-2.89-8.28-2.89-8.28,0,0,12.71,8.77,18.53,5.84,5.82-2.92-9.87-10.07-9.87-10.07l-38.24,2.11Z"/>
        <path class="cls-16" d="M256.97,212.17c0,1.17-.21,2.13-.47,2.13s-.47-.95-.47-2.13,.21-2.13,.47-2.13,.47,.95,.47,2.13Z"/>
        <path class="cls-16" d="M270.46,212.17c0,1.17-.21,2.13-.47,2.13s-.47-.95-.47-2.13,.21-2.13,.47-2.13,.47,.95,.47,2.13Z"/>
        <path class="cls-17" d="M265.03,224.03c-6.46,.15-11.47-4.5-11.47-4.5"/>
        <path class="cls-30" d="M266.23,234.53c-5.53,.5-11.93,.29-11.93,.29l11.93,4.82v-5.11Z"/>
        <path class="cls-30" d="M240.83,215.03c-2.8-2.94-4.17-1.73-3.98,1.32,.19,3.05,3.86,5.24,5.06,4.36,1.19-.87-1.07-5.68-1.07-5.68Z"/>
      </g>
      <g>
        <g>
          <path class="cls-5" d="M131.43,367.93c-12.41-4.56-19.25-2.79-23.04-7.85,0,0,10.13-1.77,15.7,0l7.34,7.85Z"/>
          <path class="cls-28" d="M124.08,360.08c-15.08-7.88-19.55-16.82-23.38-23-3.83-6.18-5.96-11.29-7.45-11.71-1.49-.43,6.18,1.06,13.42,8.3,7.24,7.24,10.22,8.3,15.97,14.05,5.75,5.75,10.86,14.21,11.5,20.2h-2.7l-7.34-7.85Z"/>
          <path class="cls-5" d="M128.38,357.95c-8.15-12.5-.83-19.68-10.65-33.86-11.5-16.61-7.88-33.22-6.18-43.65,0,0-2.55,12.14,7.46,23.96,10.01,11.82,19.8,16.39,20.65,34.01,.85,17.62-2.56,29.52-2.56,29.52h-5.69l-3.04-9.98Z"/>
          <path class="cls-28" d="M135.8,367.93c-2.73-11.71,2.59-31.7,3.02-51.5,.43-19.8-10.65-34.5,5.75-53.02,0,0-3.41,3.41,1.28,17.03,4.68,13.63,15.12,27.89,10.01,46.21s-16.12,33.31-16.05,41.28h-4.01Z"/>
          <path class="cls-25" d="M139.8,367.93c-1.7-14.05,12.64-35.96,24.78-40.86,0,0,1.28,10.76-6.6,19.54-7.88,8.78-13.74,21.31-13.74,21.31h-4.44Z"/>
          <path class="cls-21" d="M144.24,367.93c.53-9.34,8.63-12.62,16.93-15.02,0,0-10.01,10.1-11.71,15.02h-5.22Z"/>
          <path class="cls-4" d="M148.14,368.99c1.41-7.08,4.61-9.3,4.02-9.7-.58-.4-4.21,5.55-6.04,8.64,0,0-2.43-8.07,1.21-15.02,3.64-6.95,7.08-12.21,7.08-12.21,0,0-11.72,13.54-12.33,20.39,0,0-1.21-6.88,.81-15.76,2.02-8.88,7.28-17.37,5.36-27.88-1.92-10.51-4-21.73-4-21.73,0,0,.87,10.69,1.88,19.95,1.01,9.26-1.74,14.11-4.41,24.02-2.67,9.91-1.18,24-2.33,23.93-1.15-.07-2.97,2.55-2.97,2.55,0,0-1.22-15.16-3.04-28.1-1.82-12.94-1.61-14.68-9.5-22.4-7.88-7.72-8.89-12.44-8.89-12.44,0,0,5.32,10.58,9.74,17.45,4.41,6.87,5.83,9.91,5.83,22.03s.61,18.95,1.62,20.89c1.01,1.95-7.48-11.53-14.15-16.11-6.67-4.58-12.13-10.85-12.74-11.86-.61-1.01,6.47,11.72,11.72,15.16,5.26,3.44,14.42,15.16,14.42,15.16l-15.02-4.04,16.98,7.08h14.76Z"/>
        </g>
        <path class="cls-33" d="M161.53,371.7l-7.99,46.03c-.1,.56-.29,1.07-.56,1.54-.81,1.39-2.32,2.31-4.02,2.31h-28.75c-2.28,0-4.22-1.65-4.59-3.9l-7.49-46.03c-.46-2.83,1.72-5.39,4.59-5.39h44.22c2.89,0,5.07,2.6,4.58,5.44Z"/>
        <path class="cls-11" d="M152.98,419.27c-.81,1.39-2.32,2.31-4.02,2.31h-28.75c-2.28,0-4.22-1.65-4.59-3.9l-7.49-46.03c-.46-2.83,1.72-5.39,4.59-5.39h15.21c-14.1,21.9,9.42,47.35,25.05,53.02Z"/>
      </g>
      <path class="cls-19" d="M201.46,340.5c5.89,10.67,10.38,22.15,15.97,32.01-6.13-7.31-11.83-16.18-16.26-25.9-2.84-6.22-5.21-14.03-6.95-22.4,2.48,6.67,5.03,12.28,7.24,16.29Z"/>
    </g>
  </g>
</svg>